<?xml version="1.0" encoding="utf-8"?>
<!-- Generator: Adobe Illustrator 25.2.1, SVG Export Plug-In . SVG Version: 6.00 Build 0)  -->
<svg version="1.1" id="accident-major" xmlns="http://www.w3.org/2000/svg" xmlns:xlink="http://www.w3.org/1999/xlink" x="0px"
	 y="0px" viewBox="0 0 58 66.7" style="enable-background:new 0 0 58 66.7;" xml:space="preserve">
<style type="text/css">
	.st0{fill-rule:evenodd;clip-rule:evenodd;fill:#FFFFFF;}
	.st1{fill-rule:evenodd;clip-rule:evenodd;fill:#BDC1C6;}
	.st2{fill:#024C2A;}
	.st3{fill:#1CC871;stroke:#024C2A;stroke-width:2.261;}
	.st4{fill:#FFFFFF;}
	.st5{fill:#076032;}
	.st6{fill:#18427C;}
	.st7{fill:#33CCFF;stroke:#18427C;stroke-width:2.261;}
	.st8{fill:#1469C6;}
	.st9{fill:#FFFFFF;filter:url(#Adobe_OpacityMaskFilter);}
	.st10{fill-rule:evenodd;clip-rule:evenodd;}
	.st11{mask:url(#b_1_);fill:#75011D;}
	.st12{fill-rule:evenodd;clip-rule:evenodd;fill:#FFFFFF;filter:url(#Adobe_OpacityMaskFilter_1_);}
	.st13{mask:url(#c_1_);fill:#75011D;}
	.st14{fill-rule:evenodd;clip-rule:evenodd;fill:#FFFFFF;filter:url(#Adobe_OpacityMaskFilter_2_);}
	.st15{mask:url(#c_2_);fill:#FD804B;}
</style>
<g id="Pin">
	<path class="st0" d="M37.4,56.8C49.3,53.1,58,42.1,58,29C58,13,45,0,29,0S0,13,0,29c0,13.1,8.7,24.1,20.6,27.8l6.8,9.1
		c0.7,0.9,1.9,1.1,2.8,0.4c0.2-0.1,0.3-0.2,0.4-0.4L37.4,56.8z"/>
	<path class="st1" d="M29,55c14.4,0,26-11.6,26-26S43.4,3,29,3S3,14.6,3,29S14.6,55,29,55z"/>
</g>
<g id="Cars" transform="translate(-4 -4)">
	<path class="st2" d="M44.8,37.7h3.3v4.6c0,0.9-0.7,1.7-1.7,1.7c-0.9,0-1.7-0.7-1.7-1.7l0,0V37.7z M29,37.7h3.3v4.6
		c0,0.9-0.7,1.7-1.7,1.7c-0.9,0-1.7-0.7-1.7-1.7c0,0,0,0,0,0V37.7z"/>
	<path class="st3" d="M42.3,20.5c-2.5-0.4-5-0.4-7.5,0c-2.3,0.4-4.2,2.1-4.7,4.4l-1,4.4c-0.1,0.5-0.4,0.9-0.7,1.3
		c-0.7,0.9-1,1.9-1,3v1.2c0,2.8,2.2,5,5,5h12.5c2.8,0,5-2.2,5-5v-1.2c0-1.3-0.5-2.6-1.5-3.6l-1.2-5.1C46.5,22.6,44.7,20.8,42.3,20.5
		z"/>
	<path class="st4" d="M32.7,32.3L32.7,32.3c1.1,0,2.1,0.9,2.1,2.1v0c0,1.1-0.9,2.1-2.1,2.1h0c-1.1,0-2.1-0.9-2.1-2.1v0
		C30.7,33.2,31.6,32.3,32.7,32.3z"/>
	<path class="st4" d="M44.4,32.3L44.4,32.3c1.1,0,2.1,0.9,2.1,2.1v0c0,1.1-0.9,2.1-2.1,2.1h0c-1.1,0-2.1-0.9-2.1-2.1v0
		C42.3,33.2,43.2,32.3,44.4,32.3z"/>
	<path class="st5" d="M32.3,25.8l-0.3,0.9c-0.2,0.9,0.3,1.8,1.2,2.1c0.1,0,0.3,0.1,0.4,0.1h9.7c0.9,0,1.7-0.8,1.7-1.7
		c0-0.2,0-0.3-0.1-0.4l-0.3-0.9c-0.3-1.1-1.2-1.9-2.4-2.1c-2.5-0.4-5.1-0.4-7.7,0C33.6,23.9,32.6,24.7,32.3,25.8z"/>
	<path class="st6" d="M33.5,42.2h3.3v4.6c0,0.9-0.7,1.7-1.7,1.7c-0.9,0-1.7-0.7-1.7-1.7V42.2z M17.7,42.2H21v4.6
		c0,0.9-0.7,1.7-1.7,1.7c-0.9,0-1.7-0.7-1.7-1.7c0,0,0,0,0,0V42.2z"/>
	<path class="st7" d="M31,25c-2.5-0.4-5-0.4-7.5,0c-2.3,0.4-4.2,2.1-4.7,4.4l-1,4.4c-0.1,0.5-0.4,0.9-0.7,1.3c-0.7,0.9-1,1.9-1,3
		v1.2c0,2.8,2.2,5,5,5h12.5c2.8,0,5-2.2,5-5v-1.2c0-1.3-0.5-2.6-1.5-3.6l-1.2-5.1C35.2,27.1,33.4,25.4,31,25L31,25z"/>
	<path class="st4" d="M21.4,36.8L21.4,36.8c1.1,0,2.1,0.9,2.1,2.1v0c0,1.1-0.9,2.1-2.1,2.1h0c-1.1,0-2.1-0.9-2.1-2.1v0
		C19.4,37.8,20.3,36.8,21.4,36.8z"/>
	<path class="st4" d="M33.1,36.8L33.1,36.8c1.1,0,2.1,0.9,2.1,2.1v0c0,1.1-0.9,2.1-2.1,2.1h0C31.9,41,31,40,31,38.9v0
		C31,37.8,31.9,36.8,33.1,36.8z"/>
	<path class="st8" d="M21,30.3l-0.3,0.9c-0.2,0.9,0.3,1.8,1.2,2.1c0.1,0,0.3,0.1,0.4,0.1h9.7c0.9,0,1.7-0.8,1.7-1.7
		c0-0.2,0-0.3-0.1-0.4l-0.3-0.9c-0.3-1.1-1.2-1.9-2.4-2.1c-2.5-0.4-5.1-0.4-7.7,0C22.3,28.4,21.3,29.2,21,30.3z"/>
	<path class="st0" d="M23.4,24.6c-0.3,0.2-0.3,0.5-0.2,0.8c0,0.1,0.1,0.1,0.2,0.2l3.2,1.9l-0.7,2.9c-0.1,0.3,0.1,0.6,0.4,0.7
		c0.1,0,0.2,0,0.3,0l2.7-0.9l1.9,3.1c0.2,0.3,0.5,0.4,0.8,0.2c0.1,0,0.1-0.1,0.2-0.2l1.9-3.1l2.7,0.9c0.3,0.1,0.6-0.1,0.7-0.4
		c0-0.1,0-0.2,0-0.3l-0.7-2.9l3.2-1.9c0.3-0.2,0.3-0.5,0.2-0.8c0-0.1-0.1-0.1-0.2-0.2l-3.1-1.8l0.9-2.7c0.1-0.3-0.1-0.6-0.4-0.7
		c-0.1,0-0.2,0-0.3,0l-3,0.7l-1.9-3.2c-0.2-0.3-0.5-0.3-0.8-0.2c-0.1,0-0.1,0.1-0.2,0.2l-1.9,3.2l-3-0.7c-0.3-0.1-0.6,0.1-0.7,0.4
		c0,0.1,0,0.2,0,0.3l0.9,2.7L23.4,24.6z"/>
	<defs>
		<filter id="Adobe_OpacityMaskFilter" filterUnits="userSpaceOnUse" x="20.9" y="14.3" width="21.5" height="21.5">
			<feColorMatrix  type="matrix" values="1 0 0 0 0  0 1 0 0 0  0 0 1 0 0  0 0 0 1 0"/>
		</filter>
	</defs>
	<mask maskUnits="userSpaceOnUse" x="20.9" y="14.3" width="21.5" height="21.5" id="b_1_">
		<path class="st9" d="M20.1,13.6h23v23h-23V13.6z"/>
		<path class="st10" d="M23.4,24.6c-0.3,0.2-0.3,0.5-0.2,0.8c0,0.1,0.1,0.1,0.2,0.2l3.2,1.9l-0.7,2.9c-0.1,0.3,0.1,0.6,0.4,0.7
			c0.1,0,0.2,0,0.3,0l2.7-0.9l1.9,3.1c0.2,0.3,0.5,0.4,0.8,0.2c0.1,0,0.1-0.1,0.2-0.2l1.9-3.1l2.7,0.9c0.3,0.1,0.6-0.1,0.7-0.4
			c0-0.1,0-0.2,0-0.3l-0.7-2.9l3.2-1.9c0.3-0.2,0.3-0.5,0.2-0.8c0-0.1-0.1-0.1-0.2-0.2l-3.1-1.8l0.9-2.7c0.1-0.3-0.1-0.6-0.4-0.7
			c-0.1,0-0.2,0-0.3,0l-3,0.7l-1.9-3.2c-0.2-0.3-0.5-0.3-0.8-0.2c-0.1,0-0.1,0.1-0.2,0.2l-1.9,3.2l-3-0.7c-0.3-0.1-0.6,0.1-0.7,0.4
			c0,0.1,0,0.2,0,0.3l0.9,2.7L23.4,24.6z"/>
	</mask>
	<path class="st11" d="M23.4,25.6l-1.2,1.9L23.4,25.6z M23.4,24.6l-1.2-1.9L23.4,24.6z M26.6,27.5l2.2,0.5l0.4-1.6l-1.4-0.9
		L26.6,27.5z M25.9,30.4l2.2,0.5L25.9,30.4z M26.6,31.1l0.7,2.1L26.6,31.1z M29.3,30.2l1.9-1.2l-0.9-1.6l-1.7,0.6L29.3,30.2z
		 M31.1,33.3l-1.9,1.2L31.1,33.3z M32.1,33.3l1.9,1.2L32.1,33.3z M33.9,30.2l0.7-2.1l-1.7-0.6L32,29L33.9,30.2z M36.6,31.1l0.7-2.1
		L36.6,31.1z M37.3,30.4l2.2-0.5L37.3,30.4z M36.6,27.5l-1.2-1.9L34,26.4l0.4,1.6L36.6,27.5z M39.8,25.6l-1.2-1.9L39.8,25.6z
		 M39.8,24.6l1.2-1.9L39.8,24.6z M36.7,22.8l-2.1-0.7L34,23.8l1.6,0.9L36.7,22.8z M37.6,20l2.1,0.7L37.6,20z M37,19.3l0.5,2.2
		L37,19.3z M34,20.1L32,21.2l0.9,1.4l1.6-0.4L34,20.1z M32.1,16.9l1.9-1.2L32.1,16.9z M31.1,16.9l-1.9-1.2L31.1,16.9z M29.2,20.1
		l-0.5,2.2l1.6,0.4l0.9-1.4L29.2,20.1z M26.2,19.3l0.5-2.2L26.2,19.3z M25.5,20l2.1-0.7L25.5,20z M26.5,22.8l1.2,1.9l1.6-0.9
		l-0.6-1.7L26.5,22.8z M24.5,23.6c0.8,0.5,1.1,1.5,0.6,2.3c-0.1,0.2-0.3,0.4-0.6,0.6l-2.3-3.9c-1.8,1.1-1.8,3.7,0,4.8L24.5,23.6z
		 M27.8,25.6l-3.2-1.9l-2.3,3.9l3.2,1.9L27.8,25.6z M28.1,31l0.7-2.9l-4.4-1.1l-0.7,2.9L28.1,31z M25.9,28.9c1.3-0.4,2.5,0.7,2.2,2
		l-4.4-1.1c-0.5,2.2,1.5,4.1,3.6,3.4L25.9,28.9z M28.5,28.1l-2.7,0.9l1.4,4.3l2.7-0.9L28.5,28.1z M33,32.1L31.2,29l-3.9,2.3l1.9,3.1
		L33,32.1z M30.1,32.1c0.5-0.8,1.5-1.1,2.3-0.6c0.2,0.1,0.4,0.3,0.6,0.6l-3.9,2.3c1.1,1.8,3.7,1.8,4.8,0L30.1,32.1z M32,29l-1.9,3.1
		l3.9,2.3l1.9-3.1L32,29z M37.3,28.9l-2.7-0.9l-1.4,4.3l2.7,0.9L37.3,28.9z M35.1,31c-0.3-1.3,0.9-2.5,2.2-2l-1.4,4.3
		c2.1,0.7,4.2-1.2,3.6-3.4L35.1,31z M34.4,28l0.7,2.9l4.4-1.1l-0.7-2.9L34.4,28z M38.6,23.6l-3.2,1.9l2.3,3.9l3.2-1.9L38.6,23.6z
		 M38.6,26.5c-0.8-0.5-1.1-1.5-0.6-2.3c0.1-0.2,0.3-0.4,0.6-0.6l2.3,3.9c1.8-1.1,1.8-3.7,0-4.8L38.6,26.5z M35.6,24.7l3.1,1.8
		l2.3-3.9l-3.1-1.8L35.6,24.7z M35.5,19.3L34.6,22l4.3,1.4l0.9-2.7L35.5,19.3z M37.5,21.5c-1.3,0.3-2.5-0.9-2-2.2l4.3,1.4
		c0.7-2.1-1.2-4.2-3.4-3.6L37.5,21.5z M34.5,22.3l3-0.7l-1.1-4.4l-3,0.7L34.5,22.3z M30.1,18l1.9,3.2l3.9-2.3L34,15.7L30.1,18z
		 M33,18c-0.5,0.8-1.5,1.1-2.3,0.6c-0.2-0.1-0.4-0.3-0.6-0.6l3.9-2.3c-1.1-1.8-3.7-1.8-4.8,0L33,18z M31.1,21.2L33,18l-3.9-2.3
		l-1.9,3.2L31.1,21.2z M25.7,21.5l3,0.7l1.1-4.4l-3-0.7L25.7,21.5z M27.7,19.3c0.4,1.3-0.7,2.5-2,2.2l1.1-4.4
		c-2.2-0.5-4.1,1.5-3.4,3.6L27.7,19.3z M28.6,22l-0.9-2.7l-4.3,1.4l0.9,2.7L28.6,22z M24.5,26.5l3.1-1.8l-2.3-3.9l-3.1,1.8
		L24.5,26.5z"/>
	<path class="st0" d="M23.4,24.6c-0.3,0.2-0.3,0.5-0.2,0.8c0,0.1,0.1,0.1,0.2,0.2l3.2,1.9l-0.7,2.9c-0.1,0.3,0.1,0.6,0.4,0.7
		c0.1,0,0.2,0,0.3,0l2.7-0.9l1.9,3.1c0.2,0.3,0.5,0.4,0.8,0.2c0.1,0,0.1-0.1,0.2-0.2l1.9-3.1l2.7,0.9c0.3,0.1,0.6-0.1,0.7-0.4
		c0-0.1,0-0.2,0-0.3l-0.7-2.9l3.2-1.9c0.3-0.2,0.3-0.5,0.2-0.8c0-0.1-0.1-0.1-0.2-0.2l-3.1-1.8l0.9-2.7c0.1-0.3-0.1-0.6-0.4-0.7
		c-0.1,0-0.2,0-0.3,0l-3,0.7l-1.9-3.2c-0.2-0.3-0.5-0.3-0.8-0.2c-0.1,0-0.1,0.1-0.2,0.2l-1.9,3.2l-3-0.7c-0.3-0.1-0.6,0.1-0.7,0.4
		c0,0.1,0,0.2,0,0.3l0.9,2.7L23.4,24.6z"/>
	<defs>
		<filter id="Adobe_OpacityMaskFilter_1_" filterUnits="userSpaceOnUse" x="21.4" y="14.9" width="20.5" height="20.5">
			<feColorMatrix  type="matrix" values="1 0 0 0 0  0 1 0 0 0  0 0 1 0 0  0 0 0 1 0"/>
		</filter>
	</defs>
	<mask maskUnits="userSpaceOnUse" x="21.4" y="14.9" width="20.5" height="20.5" id="c_1_">
		<path class="st12" d="M23.4,24.6c-0.3,0.2-0.3,0.5-0.2,0.8c0,0.1,0.1,0.1,0.2,0.2l3.2,1.9l-0.7,2.9c-0.1,0.3,0.1,0.6,0.4,0.7
			c0.1,0,0.2,0,0.3,0l2.7-0.9l1.9,3.1c0.2,0.3,0.5,0.4,0.8,0.2c0.1,0,0.1-0.1,0.2-0.2l1.9-3.1l2.7,0.9c0.3,0.1,0.6-0.1,0.7-0.4
			c0-0.1,0-0.2,0-0.3l-0.7-2.9l3.2-1.9c0.3-0.2,0.3-0.5,0.2-0.8c0-0.1-0.1-0.1-0.2-0.2l-3.1-1.8l0.9-2.7c0.1-0.3-0.1-0.6-0.4-0.7
			c-0.1,0-0.2,0-0.3,0l-3,0.7l-1.9-3.2c-0.2-0.3-0.5-0.3-0.8-0.2c-0.1,0-0.1,0.1-0.2,0.2l-1.9,3.2l-3-0.7c-0.3-0.1-0.6,0.1-0.7,0.4
			c0,0.1,0,0.2,0,0.3l0.9,2.7L23.4,24.6z"/>
	</mask>
	<path class="st13" d="M23.4,25.6l-0.9,1.5L23.4,25.6z M23.4,24.6l-0.9-1.5L23.4,24.6z M26.6,27.5l1.7,0.4l0.3-1.3L27.5,26
		L26.6,27.5z M25.9,30.4l1.7,0.4L25.9,30.4z M26.6,31.1l0.6,1.7L26.6,31.1z M29.3,30.2l1.5-0.9L30,28.1l-1.3,0.4L29.3,30.2z
		 M31.1,33.3l-1.5,0.9L31.1,33.3z M32.1,33.3l1.5,0.9L32.1,33.3z M33.9,30.2l0.6-1.7l-1.3-0.4l-0.7,1.2L33.9,30.2z M36.6,31.1
		l0.6-1.7L36.6,31.1z M37.3,30.4L39,30L37.3,30.4z M36.6,27.5L35.7,26l-1.1,0.7l0.3,1.3L36.6,27.5z M39.8,25.6l-0.9-1.5L39.8,25.6z
		 M39.8,24.6l0.9-1.5L39.8,24.6z M36.7,22.8l-1.7-0.6l-0.4,1.3l1.2,0.7L36.7,22.8z M37.6,20l1.7,0.6L37.6,20z M37,19.3l0.4,1.7
		L37,19.3z M34,20.1L32.5,21l0.7,1.1l1.3-0.3L34,20.1z M32.1,16.9l1.5-0.9L32.1,16.9z M31.1,16.9L29.6,16L31.1,16.9z M29.2,20.1
		l-0.4,1.7l1.3,0.3l0.7-1.1L29.2,20.1z M26.2,19.3l0.4-1.7L26.2,19.3z M25.5,20l1.7-0.6L25.5,20z M26.5,22.8l0.9,1.5l1.2-0.7
		l-0.4-1.3L26.5,22.8z M24.3,24.1c0.6,0.3,0.7,1.1,0.4,1.6c-0.1,0.2-0.2,0.3-0.4,0.4l-1.8-3c-1.5,0.9-1.5,3.1,0,4L24.3,24.1z
		 M27.5,26l-3.2-1.9l-1.8,3l3.2,1.9L27.5,26z M27.6,30.8l0.7-2.9l-3.4-0.9L24.2,30L27.6,30.8z M26,29.4c0.6-0.2,1.3,0.1,1.5,0.8
		c0.1,0.2,0.1,0.4,0,0.7L24.2,30c-0.4,1.8,1.2,3.3,3,2.8L26,29.4z M28.7,28.5L26,29.4l1.1,3.3l2.7-0.9L28.7,28.5z M32.6,32.4
		l-1.9-3.1l-3,1.8l1.9,3.1L32.6,32.4z M30.6,32.4c0.3-0.6,1.1-0.7,1.6-0.4c0.2,0.1,0.3,0.2,0.4,0.4l-3,1.8c0.9,1.5,3.1,1.5,4,0
		L30.6,32.4z M32.4,29.3l-1.9,3.1l3,1.8l1.9-3.1L32.4,29.3z M37.1,29.4l-2.7-0.9l-1.1,3.3l2.7,0.9L37.1,29.4z M35.6,30.8
		c-0.2-0.6,0.2-1.3,0.9-1.4c0.2-0.1,0.5,0,0.7,0L36,32.8c1.7,0.6,3.4-1,3-2.8L35.6,30.8z M34.9,27.9l0.7,2.9L39,30l-0.7-2.9
		L34.9,27.9z M38.9,24.1L35.7,26l1.8,3l3.2-1.9L38.9,24.1z M38.9,26.1c-0.6-0.3-0.7-1.1-0.4-1.6c0.1-0.2,0.2-0.3,0.4-0.4l1.8,3
		c1.5-0.9,1.5-3.1,0-4L38.9,26.1z M35.8,24.3l3.1,1.8l1.8-3l-3.1-1.8L35.8,24.3z M36,19.5l-0.9,2.7l3.3,1.1l0.9-2.7L36,19.5z
		 M37.4,21c-0.6,0.2-1.3-0.2-1.4-0.9c-0.1-0.2,0-0.5,0-0.7l3.3,1.1c0.6-1.7-1-3.4-2.8-3L37.4,21z M34.4,21.8l3-0.7l-0.9-3.4l-3,0.7
		L34.4,21.8z M30.6,17.8l1.9,3.2l3-1.8L33.6,16L30.6,17.8z M32.6,17.8c-0.3,0.6-1.1,0.7-1.6,0.4c-0.2-0.1-0.3-0.2-0.4-0.4l3-1.8
		c-0.9-1.5-3.1-1.5-4,0L32.6,17.8z M30.7,21l1.9-3.2l-3-1.8l-1.9,3.2L30.7,21z M25.8,21l3,0.7l0.9-3.4l-3-0.7L25.8,21z M27.2,19.5
		c0.2,0.6-0.1,1.3-0.8,1.5c-0.2,0.1-0.4,0.1-0.7,0l0.9-3.4c-1.8-0.4-3.3,1.2-2.8,3L27.2,19.5z M28.1,22.2l-0.9-2.7l-3.3,1.1l0.9,2.7
		L28.1,22.2z M24.3,26.1l3.1-1.8l-1.8-3l-3.1,1.8L24.3,26.1z"/>
	<defs>
		<filter id="Adobe_OpacityMaskFilter_2_" filterUnits="userSpaceOnUse" x="21.4" y="14.9" width="20.5" height="20.5">
			<feColorMatrix  type="matrix" values="1 0 0 0 0  0 1 0 0 0  0 0 1 0 0  0 0 0 1 0"/>
		</filter>
	</defs>
	<mask maskUnits="userSpaceOnUse" x="21.4" y="14.9" width="20.5" height="20.5" id="c_2_">
		<path class="st14" d="M23.4,24.6c-0.3,0.2-0.3,0.5-0.2,0.8c0,0.1,0.1,0.1,0.2,0.2l3.2,1.9l-0.7,2.9c-0.1,0.3,0.1,0.6,0.4,0.7
			c0.1,0,0.2,0,0.3,0l2.7-0.9l1.9,3.1c0.2,0.3,0.5,0.4,0.8,0.2c0.1,0,0.1-0.1,0.2-0.2l1.9-3.1l2.7,0.9c0.3,0.1,0.6-0.1,0.7-0.4
			c0-0.1,0-0.2,0-0.3l-0.7-2.9l3.2-1.9c0.3-0.2,0.3-0.5,0.2-0.8c0-0.1-0.1-0.1-0.2-0.2l-3.1-1.8l0.9-2.7c0.1-0.3-0.1-0.6-0.4-0.7
			c-0.1,0-0.2,0-0.3,0l-3,0.7l-1.9-3.2c-0.2-0.3-0.5-0.3-0.8-0.2c-0.1,0-0.1,0.1-0.2,0.2l-1.9,3.2l-3-0.7c-0.3-0.1-0.6,0.1-0.7,0.4
			c0,0.1,0,0.2,0,0.3l0.9,2.7L23.4,24.6z"/>
	</mask>
	<path class="st15" d="M23.4,25.6l-0.9,1.5L23.4,25.6z M23.4,24.6l-0.9-1.5L23.4,24.6z M26.6,27.5l1.7,0.4l0.3-1.3L27.5,26
		L26.6,27.5z M25.9,30.4l1.7,0.4L25.9,30.4z M26.6,31.1l0.6,1.7L26.6,31.1z M29.3,30.2l1.5-0.9L30,28.1l-1.3,0.4L29.3,30.2z
		 M31.1,33.3l-1.5,0.9L31.1,33.3z M32.1,33.3l1.5,0.9L32.1,33.3z M33.9,30.2l0.6-1.7l-1.3-0.4l-0.7,1.2L33.9,30.2z M36.6,31.1
		l0.6-1.7L36.6,31.1z M37.3,30.4L39,30L37.3,30.4z M36.6,27.5L35.7,26l-1.1,0.7l0.3,1.3L36.6,27.5z M39.8,25.6l-0.9-1.5L39.8,25.6z
		 M39.8,24.6l0.9-1.5L39.8,24.6z M36.7,22.8l-1.7-0.6l-0.4,1.3l1.2,0.7L36.7,22.8z M37.6,20l1.7,0.6L37.6,20z M37,19.3l0.4,1.7
		L37,19.3z M34,20.1L32.5,21l0.7,1.1l1.3-0.3L34,20.1z M32.1,16.9l1.5-0.9L32.1,16.9z M31.1,16.9L29.6,16L31.1,16.9z M29.2,20.1
		l-0.4,1.7l1.3,0.3l0.7-1.1L29.2,20.1z M26.2,19.3l0.4-1.7L26.2,19.3z M25.5,20l1.7-0.6L25.5,20z M26.5,22.8l0.9,1.5l1.2-0.7
		l-0.4-1.3L26.5,22.8z M24.3,24.1c0.6,0.3,0.7,1.1,0.4,1.6c-0.1,0.2-0.2,0.3-0.4,0.4l-1.8-3c-1.5,0.9-1.5,3.1,0,4L24.3,24.1z
		 M27.5,26l-3.2-1.9l-1.8,3l3.2,1.9L27.5,26z M27.6,30.8l0.7-2.9l-3.4-0.9L24.2,30L27.6,30.8z M26,29.4c0.6-0.2,1.3,0.1,1.5,0.8
		c0.1,0.2,0.1,0.4,0,0.7L24.2,30c-0.4,1.8,1.2,3.3,3,2.8L26,29.4z M28.7,28.5L26,29.4l1.1,3.3l2.7-0.9L28.7,28.5z M32.6,32.4
		l-1.9-3.1l-3,1.8l1.9,3.1L32.6,32.4z M30.6,32.4c0.3-0.6,1.1-0.7,1.6-0.4c0.2,0.1,0.3,0.2,0.4,0.4l-3,1.8c0.9,1.5,3.1,1.5,4,0
		L30.6,32.4z M32.4,29.3l-1.9,3.1l3,1.8l1.9-3.1L32.4,29.3z M37.1,29.4l-2.7-0.9l-1.1,3.3l2.7,0.9L37.1,29.4z M35.6,30.8
		c-0.2-0.6,0.2-1.3,0.9-1.4c0.2-0.1,0.5,0,0.7,0L36,32.8c1.7,0.6,3.4-1,3-2.8L35.6,30.8z M34.9,27.9l0.7,2.9L39,30l-0.7-2.9
		L34.9,27.9z M38.9,24.1L35.7,26l1.8,3l3.2-1.9L38.9,24.1z M38.9,26.1c-0.6-0.3-0.7-1.1-0.4-1.6c0.1-0.2,0.2-0.3,0.4-0.4l1.8,3
		c1.5-0.9,1.5-3.1,0-4L38.9,26.1z M35.8,24.3l3.1,1.8l1.8-3l-3.1-1.8L35.8,24.3z M36,19.5l-0.9,2.7l3.3,1.1l0.9-2.7L36,19.5z
		 M37.4,21c-0.6,0.2-1.3-0.2-1.4-0.9c-0.1-0.2,0-0.5,0-0.7l3.3,1.1c0.6-1.7-1-3.4-2.8-3L37.4,21z M34.4,21.8l3-0.7l-0.9-3.4l-3,0.7
		L34.4,21.8z M30.6,17.8l1.9,3.2l3-1.8L33.6,16L30.6,17.8z M32.6,17.8c-0.3,0.6-1.1,0.7-1.6,0.4c-0.2-0.1-0.3-0.2-0.4-0.4l3-1.8
		c-0.9-1.5-3.1-1.5-4,0L32.6,17.8z M30.7,21l1.9-3.2l-3-1.8l-1.9,3.2L30.7,21z M25.8,21l3,0.7l0.9-3.4l-3-0.7L25.8,21z M27.2,19.5
		c0.2,0.6-0.1,1.3-0.8,1.5c-0.2,0.1-0.4,0.1-0.7,0l0.9-3.4c-1.8-0.4-3.3,1.2-2.8,3L27.2,19.5z M28.1,22.2l-0.9-2.7l-3.3,1.1l0.9,2.7
		L28.1,22.2z M24.3,26.1l3.1-1.8l-1.8-3l-3.1,1.8L24.3,26.1z"/>
</g>
</svg>
