<svg width="58" height="66.667" fill="none" xmlns="http://www.w3.org/2000/svg"><path fill-rule="evenodd" clip-rule="evenodd" d="M37.434 56.755C49.337 53.142 58 42.082 58 29 58 12.984 45.016 0 29 0S0 12.984 0 29c0 13.083 8.663 24.142 20.566 27.755l6.834 9.112a2 2 0 0 0 3.2 0z" fill="#fff"/><path fill-rule="evenodd" clip-rule="evenodd" d="M29 55c14.36 0 26-11.64 26-26S43.36 3 29 3 3 14.64 3 29s11.64 26 26 26z" fill="#bdc1c6"/><mask id="a" mask-type="alpha" maskUnits="userSpaceOnUse" x="7" y="7" width="52" height="52"><path fill-rule="evenodd" clip-rule="evenodd" d="M33 59c14.36 0 26-11.64 26-26S47.36 7 33 7 7 18.64 7 33s11.64 26 26 26z" fill="#fff"/></mask><g mask="url(#a)" transform="translate(-4 -4)"><path d="M44.798 37.703h3.324v4.57a1.662 1.662 0 0 1-3.324 0zM29.009 37.703h3.324v4.57a1.662 1.662 0 1 1-3.324 0z" fill="#024c2a"/><path d="M42.337 20.455a23.385 23.385 0 0 0-7.544 0 5.846 5.846 0 0 0-4.747 4.43l-1.032 4.386c-.11.467-.363.883-.654 1.265a4.964 4.964 0 0 0-1.012 3.012v1.247a4.986 4.986 0 0 0 4.985 4.985h12.464a4.986 4.986 0 0 0 4.986-4.985v-1.247a4.97 4.97 0 0 0-1.498-3.562l-1.2-5.101a5.846 5.846 0 0 0-4.748-4.43z" fill="#1cc871" stroke="#024c2a" stroke-width="2.261"/><rect x="30.672" y="32.302" width="4.155" height="4.155" rx="2.077" fill="#fff"/><rect x="42.304" y="32.302" width="4.155" height="4.155" rx="2.077" fill="#fff"/><path d="m32.343 25.812-.257.937a1.687 1.687 0 0 0 1.628 2.133h9.702a1.687 1.687 0 0 0 1.627-2.133l-.256-.937a2.897 2.897 0 0 0-2.385-2.102 27.154 27.154 0 0 0-7.675 0 2.897 2.897 0 0 0-2.384 2.102z" fill="#076032"/><path d="M33.492 42.225h3.324v4.57a1.662 1.662 0 0 1-3.324 0zM17.704 42.225h3.324v4.57a1.662 1.662 0 1 1-3.324 0z" fill="#18427c"/><path d="M31.032 24.977a23.38 23.38 0 0 0-7.544 0 5.845 5.845 0 0 0-4.747 4.43l-1.032 4.385c-.11.467-.363.884-.653 1.266a4.964 4.964 0 0 0-1.013 3.012v1.247a4.986 4.986 0 0 0 4.986 4.985h12.463a4.986 4.986 0 0 0 4.986-4.985V38.07a4.97 4.97 0 0 0-1.498-3.563l-1.2-5.1a5.845 5.845 0 0 0-4.747-4.43z" fill="#3cf" stroke="#18427c" stroke-width="2.261"/><rect x="19.366" y="36.824" width="4.155" height="4.155" rx="2.077" fill="#fff"/><rect x="30.999" y="36.824" width="4.155" height="4.155" rx="2.077" fill="#fff"/><path d="m21.037 30.334-.256.936a1.687 1.687 0 0 0 1.627 2.133h9.702a1.687 1.687 0 0 0 1.628-2.133l-.257-.936a2.897 2.897 0 0 0-2.384-2.102 27.162 27.162 0 0 0-7.675 0 2.897 2.897 0 0 0-2.385 2.102z" fill="#1469c6"/><mask id="b" maskUnits="userSpaceOnUse" x="20.111" y="13.609" width="23" height="23" fill="#000"><path fill="#fff" d="M20.111 13.609h23v23h-23z"/><path fill-rule="evenodd" clip-rule="evenodd" d="M23.383 24.608a.56.56 0 0 0 0 .959l3.215 1.929-.732 2.926a.56.56 0 0 0 .72.666l2.667-.889 1.857 3.095a.56.56 0 0 0 .96 0l1.856-3.095 2.667.89a.56.56 0 0 0 .72-.667l-.732-2.926 3.216-1.93a.56.56 0 0 0 0-.958l-3.07-1.842.909-2.727a.56.56 0 0 0-.667-.72l-2.988.747-1.912-3.186a.56.56 0 0 0-.959 0L29.2 20.066l-2.99-.747a.56.56 0 0 0-.666.72l.91 2.727z"/></mask><path fill-rule="evenodd" clip-rule="evenodd" d="M23.383 24.608a.56.56 0 0 0 0 .959l3.215 1.929-.732 2.926a.56.56 0 0 0 .72.666l2.667-.889 1.857 3.095a.56.56 0 0 0 .96 0l1.856-3.095 2.667.89a.56.56 0 0 0 .72-.667l-.732-2.926 3.216-1.93a.56.56 0 0 0 0-.958l-3.07-1.842.909-2.727a.56.56 0 0 0-.667-.72l-2.988.747-1.912-3.186a.56.56 0 0 0-.959 0L29.2 20.066l-2.99-.747a.56.56 0 0 0-.666.72l.91 2.727z" fill="#fff"/><path d="m23.383 25.567-1.163 1.939zm0-.96L22.22 22.67zm3.215 2.889 2.193.548.406-1.625-1.436-.862zm-.732 2.926 2.194.549zm.72.666.715 2.145zm2.667-.889 1.939-1.163-.933-1.555-1.72.573zm1.857 3.095-1.939 1.163zm.96 0 1.938 1.163zm1.856-3.095.715-2.144-1.72-.574-.933 1.555zm2.667.89.715-2.145zm.72-.667 2.193-.548zm-.732-2.926-1.163-1.938-1.436.861.406 1.626zm3.216-1.93-1.163-1.938zm0-.958 1.163-1.94zm-3.07-1.842-2.145-.715-.574 1.72 1.555.933zm.909-2.727 2.145.714zm-.667-.72.549 2.193zm-2.988.747-1.939 1.163.862 1.437 1.625-.406zm-1.912-3.186 1.94-1.163zm-.959 0-1.938-1.163zM29.2 20.066l-.549 2.194 1.625.406.862-1.437zm-2.99-.747.549-2.193zm-.666.72 2.145-.715zm.91 2.727 1.163 1.939 1.555-.933-.574-1.721zm-1.907.862a1.702 1.702 0 0 1 0 2.918L22.22 22.67c-1.826 1.095-1.826 3.741 0 4.837zm3.215 1.93-3.215-1.93-2.326 3.878 3.215 1.929zm.299 5.413.731-2.927-4.387-1.096-.731 2.926zm-2.19-2.027c1.274-.425 2.515.724 2.19 2.027l-4.387-1.097c-.54 2.159 1.517 4.063 3.628 3.36zm2.668-.89-2.667.89 1.43 4.29 2.667-.89zm4.51 4.077-1.856-3.095-3.877 2.326 1.857 3.095zm-2.917 0a1.702 1.702 0 0 1 2.918 0l-3.877 2.326c1.095 1.826 3.74 1.826 4.836 0zm1.857-3.095-1.857 3.095 3.877 2.326 1.857-3.094zm5.32-.092-2.667-.89-1.43 4.29 2.667.89zM35.12 30.97c-.325-1.303.915-2.452 2.19-2.027l-1.43 4.29c2.11.703 4.167-1.201 3.627-3.36zm-.731-2.926.731 2.926 4.387-1.097-.731-2.926zm4.246-4.417-3.216 1.93 2.326 3.877 3.216-1.93zm0 2.918a1.702 1.702 0 0 1 0-2.918l2.326 3.878c1.826-1.096 1.826-3.742 0-4.837zm-3.07-1.842 3.07 1.842 2.326-3.877-3.07-1.842zm-.073-5.38-.91 2.727 4.29 1.43.91-2.728zm2.027 2.188c-1.303.326-2.452-.915-2.027-2.188l4.29 1.43c.703-2.112-1.201-4.168-3.36-3.628zm-2.989.748 2.989-.748-1.097-4.386-2.988.747zm-4.398-4.216 1.911 3.185 3.878-2.326-1.912-3.186zm2.918 0a1.702 1.702 0 0 1-2.918 0l3.877-2.327c-1.095-1.825-3.741-1.825-4.836 0zm-1.912 3.185 1.912-3.185-3.877-2.327-1.912 3.186zm-5.476.283 2.99.748 1.096-4.387-2.99-.747zm2.027-2.188c.425 1.273-.724 2.514-2.027 2.188l1.097-4.386c-2.16-.54-4.063 1.516-3.36 3.627zm.91 2.727-.91-2.727-4.29 1.43.91 2.727zm-4.052 4.495 3.07-1.841-2.327-3.878-3.07 1.842z" fill="#75011d" mask="url(#b)"/><mask id="c" fill="#fff"><path fill-rule="evenodd" clip-rule="evenodd" d="M23.383 24.608a.56.56 0 0 0 0 .959l3.215 1.929-.732 2.926a.56.56 0 0 0 .72.666l2.667-.889 1.857 3.095a.56.56 0 0 0 .96 0l1.856-3.095 2.667.89a.56.56 0 0 0 .72-.667l-.732-2.926 3.216-1.93a.56.56 0 0 0 0-.958l-3.07-1.842.909-2.727a.56.56 0 0 0-.667-.72l-2.988.747-1.912-3.186a.56.56 0 0 0-.959 0L29.2 20.066l-2.99-.747a.56.56 0 0 0-.666.72l.91 2.727z"/></mask><path fill-rule="evenodd" clip-rule="evenodd" d="M23.383 24.608a.56.56 0 0 0 0 .959l3.215 1.929-.732 2.926a.56.56 0 0 0 .72.666l2.667-.889 1.857 3.095a.56.56 0 0 0 .96 0l1.856-3.095 2.667.89a.56.56 0 0 0 .72-.667l-.732-2.926 3.216-1.93a.56.56 0 0 0 0-.958l-3.07-1.842.909-2.727a.56.56 0 0 0-.667-.72l-2.988.747-1.912-3.186a.56.56 0 0 0-.959 0L29.2 20.066l-2.99-.747a.56.56 0 0 0-.666.72l.91 2.727z" fill="#fff"/><path d="m23.383 25.567-.903 1.505zm0-.96-.903-1.504zm3.215 2.889 1.702.425.316-1.261-1.115-.67zm-.732 2.926 1.703.426zm.72.666.555 1.665zm2.667-.889 1.505-.903-.724-1.207-1.336.445zm1.857 3.095-1.505.903zm.96 0 1.504.903zm1.856-3.095.555-1.664-1.335-.446-.725 1.208zm2.667.89.555-1.665zm.72-.667 1.702-.425zm-.732-2.926-.903-1.505-1.115.67.316 1.26zm3.216-1.93-.903-1.504zm0-.958.903-1.505zm-3.07-1.842-1.665-.555-.445 1.335 1.207.725zm.909-2.727 1.665.555zm-.667-.72.426 1.703zm-2.988.747-1.505.903.669 1.115 1.261-.315zm-1.912-3.186 1.505-.903zm-.959 0-1.505-.903zM29.2 20.066l-.426 1.703 1.262.315.669-1.115zm-2.99-.747.426-1.703zm-.666.72 1.665-.555zm.91 2.727.902 1.505 1.207-.724-.445-1.336zm-2.167 1.296a1.196 1.196 0 0 1 0 2.05l-1.806-3.01c-1.498.9-1.498 3.07 0 3.97zm3.215 1.929-3.215-1.929-1.806 3.01L25.695 29zm.068 4.857.731-2.927-3.405-.85-.731 2.926zm-1.538-1.424a1.196 1.196 0 0 1 1.538 1.424l-3.405-.851c-.443 1.771 1.244 3.334 2.977 2.756zm2.667-.89-2.667.89 1.11 3.33 2.667-.89zm3.917 3.857-1.857-3.095-3.01 1.806 1.857 3.095zm-2.05 0a1.196 1.196 0 0 1 2.05 0l-3.01 1.806c.9 1.498 3.07 1.498 3.97 0zm1.856-3.094-1.856 3.094 3.01 1.806 1.856-3.095zm4.727.127-2.667-.89-1.11 3.33 2.667.89zm-1.538 1.424a1.196 1.196 0 0 1 1.538-1.424l-1.11 3.33c1.733.577 3.42-.986 2.977-2.757zm-.731-2.926.731 2.926 3.405-.851-.731-2.926zm4.015-3.86-3.216 1.93L37.484 29l3.216-1.93zm0 2.05a1.196 1.196 0 0 1 0-2.05l1.806 3.01c1.498-.9 1.498-3.07 0-3.97zm-3.07-1.841 3.07 1.842 1.806-3.01-3.07-1.842zm.147-4.787-.91 2.727 3.33 1.11.91-2.727zm1.424 1.538a1.196 1.196 0 0 1-1.424-1.538l3.33 1.11c.577-1.733-.986-3.42-2.757-2.978zm-2.988.747 2.988-.747-.851-3.406-2.989.748zm-3.842-3.986 1.911 3.186 3.01-1.806-1.912-3.186zm2.05 0a1.196 1.196 0 0 1-2.05 0l3.01-1.806c-.9-1.498-3.07-1.498-3.97 0zm-1.911 3.186 1.911-3.186-3.01-1.806-1.911 3.186zm-4.92.053 2.989.747.851-3.405-2.989-.748zm1.424-1.538a1.196 1.196 0 0 1-1.424 1.538l.851-3.406c-1.771-.443-3.334 1.245-2.757 2.978zm.91 2.727-.91-2.727-3.33 1.11.91 2.727zm-3.832 3.902 3.07-1.842-1.806-3.01-3.07 1.842z" fill="#75011d" mask="url(#c)"/><path d="m23.383 25.567-.903 1.505zm0-.96-.903-1.504zm3.215 2.889 1.702.425.316-1.261-1.115-.67zm-.732 2.926 1.703.426zm.72.666.555 1.665zm2.667-.889 1.505-.903-.724-1.207-1.336.445zm1.857 3.095-1.505.903zm.96 0 1.504.903zm1.856-3.095.555-1.664-1.335-.446-.725 1.208zm2.667.89.555-1.665zm.72-.667 1.702-.425zm-.732-2.926-.903-1.505-1.115.67.316 1.26zm3.216-1.93-.903-1.504zm0-.958.903-1.505zm-3.07-1.842-1.665-.555-.445 1.335 1.207.725zm.909-2.727 1.665.555zm-.667-.72.426 1.703zm-2.988.747-1.505.903.669 1.115 1.261-.315zm-1.912-3.186 1.505-.903zm-.959 0-1.505-.903zM29.2 20.066l-.426 1.703 1.262.315.669-1.115zm-2.99-.747.426-1.703zm-.666.72 1.665-.555zm.91 2.727.902 1.505 1.207-.724-.445-1.336zm-2.167 1.296a1.196 1.196 0 0 1 0 2.05l-1.806-3.01c-1.498.9-1.498 3.07 0 3.97zm3.215 1.929-3.215-1.929-1.806 3.01L25.695 29zm.068 4.857.731-2.927-3.405-.85-.731 2.926zm-1.538-1.424a1.196 1.196 0 0 1 1.538 1.424l-3.405-.851c-.443 1.771 1.244 3.334 2.977 2.756zm2.667-.89-2.667.89 1.11 3.33 2.667-.89zm3.917 3.857-1.857-3.095-3.01 1.806 1.857 3.095zm-2.05 0a1.196 1.196 0 0 1 2.05 0l-3.01 1.806c.9 1.498 3.07 1.498 3.97 0zm1.856-3.094-1.856 3.094 3.01 1.806 1.856-3.095zm4.727.127-2.667-.89-1.11 3.33 2.667.89zm-1.538 1.424a1.196 1.196 0 0 1 1.538-1.424l-1.11 3.33c1.733.577 3.42-.986 2.977-2.757zm-.731-2.926.731 2.926 3.405-.851-.731-2.926zm4.015-3.86-3.216 1.93L37.484 29l3.216-1.93zm0 2.05a1.196 1.196 0 0 1 0-2.05l1.806 3.01c1.498-.9 1.498-3.07 0-3.97zm-3.07-1.841 3.07 1.842 1.806-3.01-3.07-1.842zm.147-4.787-.91 2.727 3.33 1.11.91-2.727zm1.424 1.538a1.196 1.196 0 0 1-1.424-1.538l3.33 1.11c.577-1.733-.986-3.42-2.757-2.978zm-2.988.747 2.988-.747-.851-3.406-2.989.748zm-3.842-3.986 1.911 3.186 3.01-1.806-1.912-3.186zm2.05 0a1.196 1.196 0 0 1-2.05 0l3.01-1.806c-.9-1.498-3.07-1.498-3.97 0zm-1.911 3.186 1.911-3.186-3.01-1.806-1.911 3.186zm-4.92.053 2.989.747.851-3.405-2.989-.748zm1.424-1.538a1.196 1.196 0 0 1-1.424 1.538l.851-3.406c-1.771-.443-3.334 1.245-2.757 2.978zm.91 2.727-.91-2.727-3.33 1.11.91 2.727zm-3.832 3.902 3.07-1.842-1.806-3.01-3.07 1.842z" fill="#fd804b" mask="url(#c)"/></g></svg>