<?xml version="1.0" encoding="utf-8"?>
<!-- Generator: Adobe Illustrator 25.2.1, SVG Export Plug-In . SVG Version: 6.00 Build 0)  -->
<svg version="1.1" id="accident-major" xmlns="http://www.w3.org/2000/svg" xmlns:xlink="http://www.w3.org/1999/xlink" x="0px"
	 y="0px" viewBox="0 0 58 66.7" style="enable-background:new 0 0 58 66.7;" xml:space="preserve">
<style type="text/css">
	.st0{fill-rule:evenodd;clip-rule:evenodd;fill:#FFFFFF;}
	.st1{fill-rule:evenodd;clip-rule:evenodd;fill:#BDC1C6;}
	.st2{fill:#024C2A;}
	.st3{fill:#1CC871;stroke:#024C2A;stroke-width:2.261;}
	.st4{fill:#FFFFFF;}
	.st5{fill:#076032;}
	.st6{fill:#18427C;}
	.st7{fill:#33CCFF;stroke:#18427C;stroke-width:2.261;}
	.st8{fill:#1469C6;}
	.st9{fill:#FD804B;}
	.st10{fill:#75011D;}
	.st11{display:none;}
	.st12{display:inline;fill-rule:evenodd;clip-rule:evenodd;fill:#FFFFFF;}
	.st13{display:inline;fill:#FD804B;}
	.st14{display:inline;fill:#75011D;}
</style>
<g id="Pin">
	<path class="st0" d="M37.4,56.8C49.3,53.1,58,42.1,58,29C58,13,45,0,29,0S0,13,0,29c0,13.1,8.7,24.1,20.6,27.8l6.8,9.1
		c0.7,0.9,1.9,1.1,2.8,0.4c0.2-0.1,0.3-0.2,0.4-0.4L37.4,56.8z"/>
	<path class="st1" d="M29,55c14.4,0,26-11.6,26-26S43.4,3,29,3S3,14.6,3,29S14.6,55,29,55z"/>
</g>
<g id="Cars" transform="translate(-4 -4)">
	<g id="Green">
		<path class="st2" d="M44.8,37.7h3.3v4.6c0,0.9-0.7,1.7-1.7,1.7c-0.9,0-1.7-0.7-1.7-1.7l0,0V37.7z M29,37.7h3.3v4.6
			c0,0.9-0.7,1.7-1.7,1.7c-0.9,0-1.7-0.7-1.7-1.7c0,0,0,0,0,0V37.7z"/>
		<path class="st3" d="M42.3,20.5c-2.5-0.4-5-0.4-7.5,0c-2.3,0.4-4.2,2.1-4.7,4.4l-1,4.4c-0.1,0.5-0.4,0.9-0.7,1.3
			c-0.7,0.9-1,1.9-1,3v1.2c0,2.8,2.2,5,5,5h12.5c2.8,0,5-2.2,5-5v-1.2c0-1.3-0.5-2.6-1.5-3.6l-1.2-5.1
			C46.5,22.6,44.7,20.8,42.3,20.5z"/>
		<path class="st4" d="M32.7,32.3L32.7,32.3c1.1,0,2.1,0.9,2.1,2.1v0c0,1.1-0.9,2.1-2.1,2.1h0c-1.1,0-2.1-0.9-2.1-2.1v0
			C30.7,33.2,31.6,32.3,32.7,32.3z"/>
		<path class="st4" d="M44.4,32.3L44.4,32.3c1.1,0,2.1,0.9,2.1,2.1v0c0,1.1-0.9,2.1-2.1,2.1h0c-1.1,0-2.1-0.9-2.1-2.1v0
			C42.3,33.2,43.2,32.3,44.4,32.3z"/>
		<path class="st5" d="M32.3,25.8l-0.3,0.9c-0.2,0.9,0.3,1.8,1.2,2.1c0.1,0,0.3,0.1,0.4,0.1h9.7c0.9,0,1.7-0.8,1.7-1.7
			c0-0.2,0-0.3-0.1-0.4l-0.3-0.9c-0.3-1.1-1.2-1.9-2.4-2.1c-2.5-0.4-5.1-0.4-7.7,0C33.6,23.9,32.6,24.7,32.3,25.8z"/>
	</g>
	<g id="Blue">
		<path class="st6" d="M33.5,42.2h3.3v4.6c0,0.9-0.7,1.7-1.7,1.7c-0.9,0-1.7-0.7-1.7-1.7V42.2z M17.7,42.2H21v4.6
			c0,0.9-0.7,1.7-1.7,1.7c-0.9,0-1.7-0.7-1.7-1.7c0,0,0,0,0,0V42.2z"/>
		<path class="st7" d="M31,25c-2.5-0.4-5-0.4-7.5,0c-2.3,0.4-4.2,2.1-4.7,4.4l-1,4.4c-0.1,0.5-0.4,0.9-0.7,1.3c-0.7,0.9-1,1.9-1,3
			v1.2c0,2.8,2.2,5,5,5h12.5c2.8,0,5-2.2,5-5v-1.2c0-1.3-0.5-2.6-1.5-3.6l-1.2-5.1C35.2,27.1,33.4,25.4,31,25L31,25z"/>
		<path class="st4" d="M21.4,36.8L21.4,36.8c1.1,0,2.1,0.9,2.1,2.1v0c0,1.1-0.9,2.1-2.1,2.1h0c-1.1,0-2.1-0.9-2.1-2.1v0
			C19.4,37.8,20.3,36.8,21.4,36.8z"/>
		<path class="st4" d="M33.1,36.8L33.1,36.8c1.1,0,2.1,0.9,2.1,2.1v0c0,1.1-0.9,2.1-2.1,2.1h0C31.9,41,31,40,31,38.9v0
			C31,37.8,31.9,36.8,33.1,36.8z"/>
		<path class="st8" d="M21,30.3l-0.3,0.9c-0.2,0.9,0.3,1.8,1.2,2.1c0.1,0,0.3,0.1,0.4,0.1h9.7c0.9,0,1.7-0.8,1.7-1.7
			c0-0.2,0-0.3-0.1-0.4l-0.3-0.9c-0.3-1.1-1.2-1.9-2.4-2.1c-2.5-0.4-5.1-0.4-7.7,0C22.3,28.4,21.3,29.2,21,30.3z"/>
	</g>
</g>
<g id="Star">
	<polygon class="st0" points="25.7,25 23,25.9 23.7,23 20.5,21.1 23.7,19.2 22.7,16.5 25.7,17.2 27.6,14 29.5,17.2 32.4,16.5 
		31.5,19.2 34.7,21.1 31.4,23 32.1,25.9 29.5,25 27.6,28.1 	"/>
	<path class="st9" d="M27.6,16l0.7,1.1l0.8,1.3l1.4-0.4l0.4-0.1l-0.1,0.2l-0.5,1.5l1.4,0.8l1,0.6l-1.2,0.7l-1.3,0.8l0.4,1.4l0.1,0.4
		l-0.2-0.1L29,23.8l-0.8,1.4l-0.6,1l-0.6-1l-0.8-1.4l-1.5,0.5l-0.2,0.1l0.1-0.4l0.4-1.4l-1.3-0.8l-1.2-0.7l1-0.6l1.4-0.8l-0.5-1.5
		l-0.1-0.2l0.4,0.1l1.4,0.4l0.8-1.3L27.6,16 M27.6,12.6c-0.1,0-0.2,0-0.3,0.1c-0.1,0-0.1,0.1-0.2,0.2l-1.9,3.2l-3-0.7
		c0,0-0.1,0-0.1,0c-0.3,0-0.5,0.2-0.5,0.4c0,0.1,0,0.2,0,0.3l0.9,2.7l-3.1,1.8c-0.3,0.2-0.3,0.5-0.2,0.8c0,0.1,0.1,0.1,0.2,0.2
		l3.2,1.9l-0.7,2.9c-0.1,0.3,0.1,0.6,0.4,0.7c0,0,0.1,0,0.1,0c0.1,0,0.1,0,0.2,0l2.7-0.9l1.9,3.1c0.1,0.2,0.3,0.3,0.5,0.3
		c0.1,0,0.2,0,0.3-0.1c0.1,0,0.1-0.1,0.2-0.2l1.9-3.1l2.7,0.9c0.1,0,0.1,0,0.2,0c0.2,0,0.5-0.1,0.5-0.4c0-0.1,0-0.2,0-0.3l-0.7-2.9
		l3.2-1.9c0.3-0.2,0.3-0.5,0.2-0.8c0-0.1-0.1-0.1-0.2-0.2l-3.1-1.8l0.9-2.7c0.1-0.3-0.1-0.6-0.4-0.7c-0.1,0-0.1,0-0.2,0
		c0,0-0.1,0-0.1,0l-3,0.7l-1.9-3.2C28,12.7,27.8,12.6,27.6,12.6L27.6,12.6z"/>
	<path class="st10" d="M27.6,12.6c0.2,0,0.4,0.1,0.5,0.3l1.9,3.2l3-0.7c0,0,0.1,0,0.1,0c0.1,0,0.1,0,0.2,0c0.3,0.1,0.5,0.4,0.4,0.7
		l-0.9,2.7l3.1,1.8c0.1,0,0.1,0.1,0.2,0.2c0.2,0.3,0.1,0.6-0.2,0.8l-3.2,1.9l0.7,2.9c0,0.1,0,0.2,0,0.3c-0.1,0.2-0.3,0.4-0.5,0.4
		c-0.1,0-0.1,0-0.2,0l-2.7-0.9l-1.9,3.1c0,0.1-0.1,0.1-0.2,0.2c-0.1,0.1-0.2,0.1-0.3,0.1c-0.2,0-0.4-0.1-0.5-0.3l-1.9-3.1l-2.7,0.9
		c-0.1,0-0.1,0-0.2,0c0,0-0.1,0-0.1,0c-0.3-0.1-0.5-0.4-0.4-0.7l0.7-2.9l-3.2-1.9c-0.1,0-0.1-0.1-0.2-0.2c-0.2-0.3-0.1-0.6,0.2-0.8
		l3.1-1.8L21.5,16c0-0.1,0-0.2,0-0.3c0.1-0.3,0.3-0.4,0.5-0.4c0,0,0.1,0,0.1,0l3,0.7l1.9-3.2c0-0.1,0.1-0.1,0.2-0.2
		C27.4,12.6,27.5,12.6,27.6,12.6 M27.6,10.4C27.6,10.4,27.6,10.4,27.6,10.4C27.6,10.4,27.6,10.4,27.6,10.4c-0.5,0-1,0.1-1.4,0.4
		c-0.4,0.2-0.7,0.6-0.9,0.9l-1.1,1.8l-1.4-0.4c-0.2-0.1-0.4-0.1-0.7-0.1c-1.3,0-2.4,0.9-2.7,2.1c-0.1,0.5-0.1,1,0.1,1.5l0.4,1.1
		l-1.6,0.9c-1.3,0.8-1.7,2.5-0.9,3.8c0.2,0.4,0.6,0.7,0.9,0.9l1.8,1.1l-0.3,1.3c-0.4,1.5,0.5,3,2,3.3c0.2,0.1,0.4,0.1,0.7,0.1
		c0.3,0,0.6,0,0.9-0.1l1-0.3l0.9,1.6c0.5,0.8,1.4,1.3,2.4,1.3c0.5,0,1-0.1,1.4-0.4c0.4-0.2,0.7-0.6,0.9-0.9l0.9-1.6l1,0.3
		c0.3,0.1,0.6,0.1,0.9,0.1c1.2,0,2.2-0.8,2.6-1.9c0.2-0.5,0.2-1,0.1-1.5l-0.3-1.3l1.8-1.1c1.3-0.8,1.7-2.5,0.9-3.8
		c-0.2-0.4-0.6-0.7-0.9-0.9l-1.6-0.9l0.4-1.1c0.5-1.4-0.3-3-1.7-3.5c-0.3-0.1-0.6-0.1-0.9-0.1c-0.2,0-0.5,0-0.7,0.1L31,13.5L30,11.7
		C29.5,10.9,28.6,10.4,27.6,10.4L27.6,10.4L27.6,10.4z"/>
</g>
<g id="Star_1_" class="st11">
	<polygon class="st12" points="25.7,25 23,25.9 23.7,23 20.5,21.1 23.7,19.2 22.7,16.5 25.7,17.2 27.6,14 29.5,17.2 32.4,16.5 
		31.5,19.2 34.7,21.1 31.4,23 32.1,25.9 29.5,25 27.6,28.1 	"/>
	<path class="st13" d="M27.6,16l0.7,1.1l0.8,1.3l1.4-0.4l0.4-0.1l-0.1,0.2l-0.5,1.5l1.4,0.8l1,0.6l-1.2,0.7l-1.3,0.8l0.4,1.4
		l0.1,0.4l-0.2-0.1L29,23.8l-0.8,1.4l-0.6,1l-0.6-1l-0.8-1.4l-1.5,0.5l-0.2,0.1l0.1-0.4l0.4-1.4l-1.3-0.8l-1.2-0.7l1-0.6l1.4-0.8
		l-0.5-1.5l-0.1-0.2l0.4,0.1l1.4,0.4l0.8-1.3L27.6,16 M27.6,12.6c-0.1,0-0.2,0-0.3,0.1c-0.1,0-0.1,0.1-0.2,0.2l-1.9,3.2l-3-0.7
		c0,0-0.1,0-0.1,0c-0.3,0-0.5,0.2-0.5,0.4c0,0.1,0,0.2,0,0.3l0.9,2.7l-3.1,1.8c-0.3,0.2-0.3,0.5-0.2,0.8c0,0.1,0.1,0.1,0.2,0.2
		l3.2,1.9l-0.7,2.9c-0.1,0.3,0.1,0.6,0.4,0.7c0,0,0.1,0,0.1,0c0.1,0,0.1,0,0.2,0l2.7-0.9l1.9,3.1c0.1,0.2,0.3,0.3,0.5,0.3
		c0.1,0,0.2,0,0.3-0.1c0.1,0,0.1-0.1,0.2-0.2l1.9-3.1l2.7,0.9c0.1,0,0.1,0,0.2,0c0.2,0,0.5-0.1,0.5-0.4c0-0.1,0-0.2,0-0.3l-0.7-2.9
		l3.2-1.9c0.3-0.2,0.3-0.5,0.2-0.8c0-0.1-0.1-0.1-0.2-0.2l-3.1-1.8l0.9-2.7c0.1-0.3-0.1-0.6-0.4-0.7c-0.1,0-0.1,0-0.2,0
		c0,0-0.1,0-0.1,0l-3,0.7l-1.9-3.2C28,12.7,27.8,12.6,27.6,12.6L27.6,12.6z"/>
	<path class="st14" d="M27.6,12.6c0.2,0,0.4,0.1,0.5,0.3l1.9,3.2l3-0.7c0,0,0.1,0,0.1,0c0.1,0,0.1,0,0.2,0c0.3,0.1,0.5,0.4,0.4,0.7
		l-0.9,2.7l3.1,1.8c0.1,0,0.1,0.1,0.2,0.2c0.2,0.3,0.1,0.6-0.2,0.8l-3.2,1.9l0.7,2.9c0,0.1,0,0.2,0,0.3c-0.1,0.2-0.3,0.4-0.5,0.4
		c-0.1,0-0.1,0-0.2,0l-2.7-0.9l-1.9,3.1c0,0.1-0.1,0.1-0.2,0.2c-0.1,0.1-0.2,0.1-0.3,0.1c-0.2,0-0.4-0.1-0.5-0.3l-1.9-3.1l-2.7,0.9
		c-0.1,0-0.1,0-0.2,0c0,0-0.1,0-0.1,0c-0.3-0.1-0.5-0.4-0.4-0.7l0.7-2.9l-3.2-1.9c-0.1,0-0.1-0.1-0.2-0.2c-0.2-0.3-0.1-0.6,0.2-0.8
		l3.1-1.8L21.5,16c0-0.1,0-0.2,0-0.3c0.1-0.3,0.3-0.4,0.5-0.4c0,0,0.1,0,0.1,0l3,0.7l1.9-3.2c0-0.1,0.1-0.1,0.2-0.2
		C27.4,12.6,27.5,12.6,27.6,12.6 M27.6,10.4C27.6,10.4,27.6,10.4,27.6,10.4C27.6,10.4,27.6,10.4,27.6,10.4c-0.5,0-1,0.1-1.4,0.4
		c-0.4,0.2-0.7,0.6-0.9,0.9l-1.1,1.8l-1.4-0.4c-0.2-0.1-0.4-0.1-0.7-0.1c-1.3,0-2.4,0.9-2.7,2.1c-0.1,0.5-0.1,1,0.1,1.5l0.4,1.1
		l-1.6,0.9c-1.3,0.8-1.7,2.5-0.9,3.8c0.2,0.4,0.6,0.7,0.9,0.9l1.8,1.1l-0.3,1.3c-0.4,1.5,0.5,3,2,3.3c0.2,0.1,0.4,0.1,0.7,0.1
		c0.3,0,0.6,0,0.9-0.1l1-0.3l0.9,1.6c0.5,0.8,1.4,1.3,2.4,1.3c0.5,0,1-0.1,1.4-0.4c0.4-0.2,0.7-0.6,0.9-0.9l0.9-1.6l1,0.3
		c0.3,0.1,0.6,0.1,0.9,0.1c1.2,0,2.2-0.8,2.6-1.9c0.2-0.5,0.2-1,0.1-1.5l-0.3-1.3l1.8-1.1c1.3-0.8,1.7-2.5,0.9-3.8
		c-0.2-0.4-0.6-0.7-0.9-0.9l-1.6-0.9l0.4-1.1c0.5-1.4-0.3-3-1.7-3.5c-0.3-0.1-0.6-0.1-0.9-0.1c-0.2,0-0.5,0-0.7,0.1L31,13.5L30,11.7
		C29.5,10.9,28.6,10.4,27.6,10.4L27.6,10.4L27.6,10.4z"/>
</g>
</svg>
