<?xml version="1.0" encoding="utf-8"?>
<!-- Generator: Adobe Illustrator 25.2.1, SVG Export Plug-In . SVG Version: 6.00 Build 0)  -->
<svg version="1.1" id="Calque_1" xmlns="http://www.w3.org/2000/svg" xmlns:xlink="http://www.w3.org/1999/xlink" x="0px" y="0px"
	 viewBox="0 0 58 66.7" style="enable-background:new 0 0 58 66.7;" xml:space="preserve">
<style type="text/css">
	.st0{fill-rule:evenodd;clip-rule:evenodd;fill:#FFFFFF;}
	.st1{fill-rule:evenodd;clip-rule:evenodd;fill:#BDC1C6;}
	.st2{fill:#18427C;}
	.st3{fill:#33CCFF;stroke:#18427C;stroke-width:2.261;}
	.st4{fill:#FFFFFF;}
	.st5{fill:#1469C6;}
	.st6{fill:#FD804B;}
	.st7{fill:#75011D;}
</style>
<g id="Pin">
	<path class="st0" d="M37.4,56.8C49.3,53.1,58,42.1,58,29C58,13,45,0,29,0S0,13,0,29c0,13.1,8.7,24.1,20.6,27.8l6.8,9.1
		c0.7,0.9,1.9,1.1,2.8,0.4c0.2-0.1,0.3-0.2,0.4-0.4L37.4,56.8z"/>
	<path class="st1" d="M29,55c14.4,0,26-11.6,26-26S43.4,3,29,3S3,14.6,3,29S14.6,55,29,55z"/>
</g>
<g id="Car">
	<path class="st2" d="M31.8,36.7h3.3v4.6c0,0.9-0.7,1.7-1.7,1.7c-0.9,0-1.7-0.7-1.7-1.7c0,0,0,0,0,0V36.7z M16,36.7h3.3v4.6
		c0,0.9-0.7,1.7-1.7,1.7c-0.9,0-1.7-0.7-1.7-1.7c0,0,0,0,0,0V36.7z"/>
	<path class="st3" d="M29.3,19.4c-2.5-0.4-5-0.4-7.5,0c-2.3,0.4-4.2,2.1-4.7,4.4l-1,4.4c-0.1,0.5-0.4,0.9-0.7,1.3
		c-0.7,0.9-1,1.9-1,3v1.2c0,2.8,2.2,5,5,5h12.5c2.8,0,5-2.2,5-5v-1.2c0-1.3-0.5-2.6-1.5-3.6L34,23.9C33.5,21.6,31.6,19.8,29.3,19.4z
		"/>
	<path class="st4" d="M19.7,31.3L19.7,31.3c1.1,0,2.1,0.9,2.1,2.1v0c0,1.1-0.9,2.1-2.1,2.1h0c-1.1,0-2.1-0.9-2.1-2.1v0
		C17.6,32.2,18.6,31.3,19.7,31.3z"/>
	<path class="st4" d="M31.3,31.3L31.3,31.3c1.1,0,2.1,0.9,2.1,2.1v0c0,1.1-0.9,2.1-2.1,2.1h0c-1.1,0-2.1-0.9-2.1-2.1v0
		C29.3,32.2,30.2,31.3,31.3,31.3z"/>
	<path class="st5" d="M19.3,24.8L19,25.7c-0.2,0.9,0.3,1.8,1.2,2.1c0.1,0,0.3,0.1,0.4,0.1h9.7c0.9,0,1.7-0.8,1.7-1.7
		c0-0.2,0-0.3-0.1-0.4l-0.3-0.9c-0.3-1.1-1.2-1.9-2.4-2.1c-2.5-0.4-5.1-0.4-7.7,0C20.5,22.9,19.6,23.7,19.3,24.8z"/>
</g>
<g id="Star">
	<polygon class="st0" points="35.6,26.7 32.9,27.6 33.6,24.7 30.4,22.8 33.5,20.9 32.6,18.2 35.6,18.9 37.5,15.7 39.4,18.9 
		42.4,18.2 41.4,20.9 44.6,22.8 41.3,24.7 42.1,27.6 39.4,26.7 37.5,29.9 	"/>
	<path class="st6" d="M37.5,17.6l0.7,1.1l0.8,1.3l1.4-0.4l0.4-0.1l-0.1,0.2l-0.5,1.5l1.4,0.8l1,0.6l-1.2,0.7l-1.3,0.8l0.4,1.4
		l0.1,0.4L40.5,26l-1.5-0.5l-0.8,1.4l-0.6,1l-0.6-1L36,25.5L34.5,26l-0.2,0.1l0.1-0.4l0.4-1.4l-1.3-0.8l-1.2-0.7l1-0.6l1.4-0.8
		l-0.5-1.5l-0.1-0.2l0.4,0.1L36,20l0.8-1.3L37.5,17.6 M37.5,14.3c-0.1,0-0.2,0-0.3,0.1c-0.1,0-0.1,0.1-0.2,0.2l-1.9,3.2l-3-0.8
		c0,0-0.1,0-0.1,0c-0.3,0-0.5,0.2-0.5,0.4c0,0.1,0,0.2,0,0.3l0.9,2.7l-3.1,1.9c-0.3,0.2-0.4,0.5-0.2,0.8c0,0.1,0.1,0.1,0.2,0.2
		l3.2,1.9l-0.7,2.9c-0.1,0.3,0.1,0.6,0.4,0.7c0,0,0.1,0,0.1,0c0.1,0,0.1,0,0.2,0l2.7-0.9L37,31c0.1,0.2,0.3,0.3,0.5,0.3
		c0.1,0,0.2,0,0.3-0.1c0.1,0,0.1-0.1,0.2-0.2l1.9-3.1l2.7,0.9c0.1,0,0.1,0,0.2,0c0.2,0,0.5-0.1,0.5-0.4c0-0.1,0-0.2,0-0.3l-0.7-2.9
		l3.2-1.9c0.3-0.2,0.4-0.5,0.2-0.8c0-0.1-0.1-0.1-0.2-0.2l-3.1-1.9l0.9-2.7c0.1-0.3-0.1-0.6-0.4-0.7c-0.1,0-0.1,0-0.2,0
		c0,0-0.1,0-0.1,0l-3,0.8L38,14.5C37.9,14.4,37.7,14.3,37.5,14.3L37.5,14.3z"/>
	<path class="st7" d="M37.5,14.3c0.2,0,0.4,0.1,0.5,0.3l1.9,3.2l3-0.8c0,0,0.1,0,0.1,0c0.1,0,0.1,0,0.2,0c0.3,0.1,0.5,0.4,0.4,0.7
		l-0.9,2.7l3.1,1.9c0.1,0,0.1,0.1,0.2,0.2c0.2,0.3,0.1,0.6-0.2,0.8l-3.2,1.9l0.7,2.9c0,0.1,0,0.2,0,0.3c-0.1,0.2-0.3,0.4-0.5,0.4
		c-0.1,0-0.1,0-0.2,0l-2.7-0.9L38,31c0,0.1-0.1,0.1-0.2,0.2c-0.1,0.1-0.2,0.1-0.3,0.1c-0.2,0-0.4-0.1-0.5-0.3l-1.9-3.1l-2.7,0.9
		c-0.1,0-0.1,0-0.2,0c0,0-0.1,0-0.1,0c-0.3-0.1-0.5-0.4-0.4-0.7l0.7-2.9l-3.2-1.9c-0.1,0-0.1-0.1-0.2-0.2c-0.2-0.3-0.1-0.6,0.2-0.8
		l3.1-1.9l-0.9-2.7c0-0.1,0-0.2,0-0.3c0.1-0.3,0.3-0.4,0.5-0.4c0,0,0.1,0,0.1,0l3,0.8l1.9-3.2c0-0.1,0.1-0.1,0.2-0.2
		C37.3,14.3,37.4,14.3,37.5,14.3 M37.5,12C37.5,12,37.5,12,37.5,12C37.5,12,37.5,12,37.5,12c-0.5,0-1,0.1-1.4,0.4
		c-0.4,0.2-0.7,0.6-0.9,0.9L34,15.2l-1.4-0.4c-0.2-0.1-0.4-0.1-0.7-0.1c-1.3,0-2.4,0.9-2.7,2.1c-0.1,0.5-0.1,1,0.1,1.5l0.4,1.1
		l-1.6,0.9c-1.3,0.8-1.7,2.5-0.9,3.8c0.2,0.4,0.6,0.7,0.9,0.9l1.8,1.1l-0.3,1.4c-0.4,1.5,0.5,3,2,3.4c0.2,0.1,0.4,0.1,0.7,0.1
		c0.3,0,0.6,0,0.9-0.1l1-0.3l1,1.6c0.5,0.8,1.4,1.3,2.4,1.3c0.5,0,1-0.1,1.4-0.4c0.4-0.2,0.7-0.6,0.9-0.9l1-1.6l1,0.3
		c0.3,0.1,0.6,0.1,0.9,0.1c1.2,0,2.3-0.8,2.6-1.9c0.2-0.5,0.2-1,0.1-1.5L45,26.3l1.8-1.1c1.3-0.8,1.7-2.5,0.9-3.8
		c-0.2-0.4-0.6-0.7-0.9-0.9l-1.6-0.9l0.4-1.1c0.5-1.5-0.3-3-1.8-3.5c-0.3-0.1-0.6-0.1-0.9-0.1c-0.2,0-0.5,0-0.7,0.1l-1.4,0.4
		l-1.1-1.8C39.4,12.6,38.4,12,37.5,12L37.5,12L37.5,12z"/>
</g>
</svg>
