<svg width="58" height="66.667" fill="none" xmlns="http://www.w3.org/2000/svg"><path fill-rule="evenodd" clip-rule="evenodd" d="M37.434 56.755C49.337 53.142 58 42.082 58 29 58 12.984 45.016 0 29 0S0 12.984 0 29c0 13.083 8.663 24.142 20.566 27.755l6.834 9.112a2 2 0 0 0 3.2 0z" fill="#fff"/><path fill-rule="evenodd" clip-rule="evenodd" d="M29 55c14.36 0 26-11.64 26-26S43.36 3 29 3 3 14.64 3 29s11.64 26 26 26z" fill="#bdc1c6"/><path d="M31.753 36.691h3.324v4.57a1.662 1.662 0 1 1-3.324 0zM15.965 36.691h3.324v4.57a1.662 1.662 0 1 1-3.324 0z" fill="#18427c"/><path d="M29.293 19.443a23.379 23.379 0 0 0-7.544 0 5.845 5.845 0 0 0-4.747 4.43l-1.032 4.385c-.11.468-.363.884-.654 1.266a4.964 4.964 0 0 0-1.012 3.012v1.247a4.986 4.986 0 0 0 4.985 4.985h12.464a4.986 4.986 0 0 0 4.986-4.985v-1.247a4.97 4.97 0 0 0-1.499-3.562l-1.2-5.101a5.845 5.845 0 0 0-4.747-4.43z" fill="#3cf" stroke="#18427c" stroke-width="2.261"/><rect x="17.627" y="31.29" width="4.155" height="4.155" rx="2.077" fill="#fff"/><rect x="29.26" y="31.29" width="4.155" height="4.155" rx="2.077" fill="#fff"/><path d="m19.298 24.8-.257.936a1.687 1.687 0 0 0 1.628 2.134h9.702a1.687 1.687 0 0 0 1.628-2.134l-.257-.936a2.897 2.897 0 0 0-2.384-2.102 27.154 27.154 0 0 0-7.676 0 2.897 2.897 0 0 0-2.384 2.102z" fill="#1469c6"/><mask id="a" maskUnits="userSpaceOnUse" x="30.001" y="15.304" width="23" height="23" fill="#000"><path fill="#fff" d="M30.001 15.304h23v23h-23z"/><path fill-rule="evenodd" clip-rule="evenodd" d="M33.273 26.303a.56.56 0 0 0 0 .96l3.214 1.928-.731 2.927a.56.56 0 0 0 .72.666l2.667-.89L41 34.99a.56.56 0 0 0 .96 0l1.856-3.095 2.667.889a.56.56 0 0 0 .72-.666l-.732-2.926 3.215-1.93a.56.56 0 0 0 0-.959l-3.07-1.842.91-2.727a.56.56 0 0 0-.667-.72l-2.988.748-1.912-3.186a.56.56 0 0 0-.96 0l-1.91 3.186-2.99-.748a.56.56 0 0 0-.666.72l.91 2.727z"/></mask><path fill-rule="evenodd" clip-rule="evenodd" d="M29.273 22.303a.56.56 0 0 0 0 .96l3.214 1.928-.731 2.927a.56.56 0 0 0 .72.666l2.667-.89L37 30.99a.56.56 0 0 0 .96 0l1.856-3.095 2.667.889a.56.56 0 0 0 .72-.666l-.732-2.926 3.215-1.93a.56.56 0 0 0 0-.959l-3.07-1.842.91-2.727a.56.56 0 0 0-.667-.72l-2.989.748-1.91-3.186a.56.56 0 0 0-.96 0l-1.912 3.186-2.989-.748a.56.56 0 0 0-.666.72l.91 2.727z" fill="#fff"/><path d="m33.273 27.262-1.164 1.94zm0-.959-1.164-1.939zm3.214 2.888 2.194.549.406-1.625-1.436-.862zm-.012 3.593-.715-2.145zm2.668-.89 1.939-1.162-.934-1.556-1.72.574zM41 34.99l-1.939 1.163zm.96 0 1.938 1.163zm1.856-3.095.715-2.145-1.72-.573-.934 1.555zm2.667.889.715-2.145zm.72-.666-2.194.548zm-.732-2.926-1.163-1.939-1.437.862.406 1.625zm3.215-1.93 1.164 1.94zm0-.959 1.164-1.939zm-3.07-1.842-2.145-.715-.573 1.72 1.555.934zm.91-2.727 2.144.715zm-.667-.72.548 2.194zm-2.989.748-1.938 1.163.862 1.436 1.625-.406zm-1.91-3.186 1.938-1.163zm-.96 0 1.939 1.163zm-1.912 3.186-.548 2.193 1.625.406.862-1.436zm-2.989-.748.549-2.193zm-.666.72 2.145-.715zm.91 2.727 1.162 1.94 1.555-.934-.573-1.72zm-1.907.863a1.702 1.702 0 0 1 0 2.918l-2.327-3.878c-1.825 1.096-1.825 3.742 0 4.837zm3.215 1.929-3.215-1.93-2.327 3.878 3.215 1.929zm.298 5.413.732-2.926-4.387-1.097-.731 2.926zm-2.189-2.027c1.274-.425 2.515.724 2.19 2.027l-4.387-1.097c-.54 2.16 1.516 4.063 3.627 3.36zm2.668-.89-2.668.89 1.43 4.29 2.668-.89zm4.51 4.077-1.856-3.094-3.878 2.326 1.857 3.095zm-2.918 0a1.702 1.702 0 0 1 2.918 0l-3.877 2.327c1.096 1.825 3.741 1.825 4.837 0zm1.857-3.094-1.857 3.094 3.878 2.327 1.857-3.095zm5.32-.093-2.666-.889-1.43 4.29 2.667.889zm-2.188 2.027c-.326-1.303.915-2.451 2.189-2.027l-1.43 4.29c2.111.703 4.167-1.2 3.628-3.36zm-.732-2.926.732 2.926 4.387-1.097-.732-2.926zm4.246-4.416-3.215 1.929 2.326 3.877 3.216-1.929zm0 2.918a1.702 1.702 0 0 1 0-2.918L50.85 29.2c1.825-1.095 1.825-3.741 0-4.837zm-3.07-1.842 3.07 1.842 2.327-3.878-3.07-1.842zm-.073-5.38-.909 2.726 4.29 1.43.91-2.727zm2.027 2.188c-1.302.325-2.451-.915-2.027-2.189l4.29 1.43c.704-2.111-1.2-4.168-3.36-3.628zm-2.988.747 2.988-.747-1.096-4.387-2.989.747zm-4.399-4.216 1.912 3.186 3.877-2.327-1.911-3.185zm2.918 0a1.702 1.702 0 0 1-2.918 0l3.878-2.326c-1.096-1.826-3.742-1.826-4.837 0zm-1.911 3.186 1.912-3.186-3.878-2.326-1.911 3.186zm-5.476.283 2.989.747 1.097-4.387-2.99-.747zm2.027-2.189c.424 1.274-.724 2.514-2.027 2.189l1.097-4.387c-2.16-.54-4.064 1.517-3.36 3.628zm.909 2.727-.91-2.727-4.289 1.43.91 2.727zm-4.051 4.496 3.07-1.842-2.327-3.877-3.07 1.841z" fill="#75011d" mask="url(#a)" transform="translate(-4 -4)"/><mask id="b" fill="#fff"><path fill-rule="evenodd" clip-rule="evenodd" d="M33.273 26.303a.56.56 0 0 0 0 .96l3.214 1.928-.731 2.927a.56.56 0 0 0 .72.666l2.667-.89L41 34.99a.56.56 0 0 0 .96 0l1.856-3.095 2.667.889a.56.56 0 0 0 .72-.666l-.732-2.926 3.215-1.93a.56.56 0 0 0 0-.959l-3.07-1.842.91-2.727a.56.56 0 0 0-.667-.72l-2.988.748-1.912-3.186a.56.56 0 0 0-.96 0l-1.91 3.186-2.99-.748a.56.56 0 0 0-.666.72l.91 2.727z"/></mask><path fill-rule="evenodd" clip-rule="evenodd" d="M29.273 22.303a.56.56 0 0 0 0 .96l3.214 1.928-.731 2.927a.56.56 0 0 0 .72.666l2.667-.89L37 30.99a.56.56 0 0 0 .96 0l1.856-3.095 2.667.889a.56.56 0 0 0 .72-.666l-.732-2.926 3.215-1.93a.56.56 0 0 0 0-.959l-3.07-1.842.91-2.727a.56.56 0 0 0-.667-.72l-2.989.748-1.91-3.186a.56.56 0 0 0-.96 0l-1.912 3.186-2.989-.748a.56.56 0 0 0-.666.72l.91 2.727z" fill="#fff"/><path d="m33.273 27.262-.903 1.505zm0-.959-.903-1.505zm3.214 2.888 1.703.426.315-1.262-1.115-.669zm-.012 3.593-.555-1.665zm2.668-.89 1.505-.902-.725-1.207-1.335.445zM41 34.99l-1.505.903zm.96 0 1.504.903zm1.856-3.095.555-1.665-1.336-.445-.724 1.207zm2.667.889.555-1.665zm.72-.666-1.703.425zm-.732-2.926-.903-1.505-1.115.669.315 1.261zm3.215-1.93.903 1.505zm0-.959.903-1.505zm-3.07-1.842-1.665-.555-.445 1.336 1.207.724zm.91-2.727 1.664.555zm-.667-.72.426 1.703zm-2.989.748-1.504.903.669 1.115 1.261-.316zm-1.91-3.186 1.504-.903zm-.96 0 1.505.903zm-1.912 3.186-.425 1.702 1.261.316.67-1.115zm-2.989-.748.426-1.702zm-.666.72 1.665-.555zm.91 2.727.902 1.505 1.207-.724-.445-1.336zm-2.168 1.296a1.196 1.196 0 0 1 0 2.051l-1.805-3.01c-1.499.9-1.499 3.07 0 3.97zm3.215 1.93-3.215-1.93-1.805 3.01 3.215 1.93zm.069 4.856.731-2.926-3.405-.851-.732 2.926zM35.92 31.12a1.196 1.196 0 0 1 1.538 1.424l-3.405-.851c-.443 1.772 1.245 3.334 2.977 2.757zm2.668-.89-2.668.89 1.11 3.33 2.668-.89zm3.917 3.858-1.857-3.095-3.01 1.806 1.857 3.095zm-2.05 0a1.196 1.196 0 0 1 2.05 0l-3.01 1.806c.899 1.498 3.07 1.498 3.969 0zm1.856-3.095-1.857 3.095 3.01 1.806 1.857-3.095zm4.727.127-2.667-.889-1.11 3.33 2.667.889zM45.5 32.543a1.196 1.196 0 0 1 1.538-1.424l-1.11 3.33c1.732.577 3.42-.985 2.977-2.757zm-.732-2.926.732 2.926 3.405-.851-.732-2.926zm4.015-3.86-3.215 1.93 1.806 3.01 3.215-1.93zm0 2.051a1.196 1.196 0 0 1 0-2.05l1.806 3.01c1.498-.9 1.498-3.07 0-3.97zm-3.07-1.842 3.07 1.842 1.806-3.01-3.07-1.842zm.147-4.787-.909 2.727 3.33 1.11.91-2.727zm1.425 1.538a1.196 1.196 0 0 1-1.425-1.538l3.33 1.11c.578-1.732-.985-3.42-2.757-2.977zm-2.989.747 2.989-.747-.852-3.405-2.988.747zm-3.842-3.985 1.912 3.186 3.01-1.806-1.912-3.186zm2.05 0a1.196 1.196 0 0 1-2.05 0l3.01-1.806c-.899-1.498-3.07-1.498-3.97 0zm-1.91 3.186 1.91-3.186-3.01-1.806-1.91 3.186zm-4.92.052 2.989.747.85-3.405-2.988-.747zm1.424-1.538a1.196 1.196 0 0 1-1.424 1.538l.85-3.405c-1.77-.443-3.334 1.244-2.756 2.977zm.909 2.728-.91-2.728-3.329 1.11.91 2.727zm-3.831 3.901 3.069-1.842-1.806-3.01-3.07 1.842z" fill="#75011d" mask="url(#b)" transform="translate(-4 -4)"/><path d="m33.273 27.262-.903 1.505zm0-.959-.903-1.505zm3.214 2.888 1.703.426.315-1.262-1.115-.669zm-.012 3.593-.555-1.665zm2.668-.89 1.505-.902-.725-1.207-1.335.445zM41 34.99l-1.505.903zm.96 0 1.504.903zm1.856-3.095.555-1.665-1.336-.445-.724 1.207zm2.667.889.555-1.665zm.72-.666-1.703.425zm-.732-2.926-.903-1.505-1.115.669.315 1.261zm3.215-1.93.903 1.505zm0-.959.903-1.505zm-3.07-1.842-1.665-.555-.445 1.336 1.207.724zm.91-2.727 1.664.555zm-.667-.72.426 1.703zm-2.989.748-1.504.903.669 1.115 1.261-.316zm-1.91-3.186 1.504-.903zm-.96 0 1.505.903zm-1.912 3.186-.425 1.702 1.261.316.67-1.115zm-2.989-.748.426-1.702zm-.666.72 1.665-.555zm.91 2.727.902 1.505 1.207-.724-.445-1.336zm-2.168 1.296a1.196 1.196 0 0 1 0 2.051l-1.805-3.01c-1.499.9-1.499 3.07 0 3.97zm3.215 1.93-3.215-1.93-1.805 3.01 3.215 1.93zm.069 4.856.731-2.926-3.405-.851-.732 2.926zM35.92 31.12a1.196 1.196 0 0 1 1.538 1.424l-3.405-.851c-.443 1.772 1.245 3.334 2.977 2.757zm2.668-.89-2.668.89 1.11 3.33 2.668-.89zm3.917 3.858-1.857-3.095-3.01 1.806 1.857 3.095zm-2.05 0a1.196 1.196 0 0 1 2.05 0l-3.01 1.806c.899 1.498 3.07 1.498 3.969 0zm1.856-3.095-1.857 3.095 3.01 1.806 1.857-3.095zm4.727.127-2.667-.889-1.11 3.33 2.667.889zM45.5 32.543a1.196 1.196 0 0 1 1.538-1.424l-1.11 3.33c1.732.577 3.42-.985 2.977-2.757zm-.732-2.926.732 2.926 3.405-.851-.732-2.926zm4.015-3.86-3.215 1.93 1.806 3.01 3.215-1.93zm0 2.051a1.196 1.196 0 0 1 0-2.05l1.806 3.01c1.498-.9 1.498-3.07 0-3.97zm-3.07-1.842 3.07 1.842 1.806-3.01-3.07-1.842zm.147-4.787-.909 2.727 3.33 1.11.91-2.727zm1.425 1.538a1.196 1.196 0 0 1-1.425-1.538l3.33 1.11c.578-1.732-.985-3.42-2.757-2.977zm-2.989.747 2.989-.747-.852-3.405-2.988.747zm-3.842-3.985 1.912 3.186 3.01-1.806-1.912-3.186zm2.05 0a1.196 1.196 0 0 1-2.05 0l3.01-1.806c-.899-1.498-3.07-1.498-3.97 0zm-1.91 3.186 1.91-3.186-3.01-1.806-1.91 3.186zm-4.92.052 2.989.747.85-3.405-2.988-.747zm1.424-1.538a1.196 1.196 0 0 1-1.424 1.538l.85-3.405c-1.77-.443-3.334 1.244-2.756 2.977zm.909 2.728-.91-2.728-3.329 1.11.91 2.727zm-3.831 3.901 3.069-1.842-1.806-3.01-3.07 1.842z" fill="#fd804b" mask="url(#b)" transform="translate(-4 -4)"/></svg>