<?xml version="1.0" encoding="utf-8"?>
<!-- Generator: Adobe Illustrator 25.2.1, SVG Export Plug-In . SVG Version: 6.00 Build 0)  -->
<svg version="1.1" id="Calque_1" xmlns="http://www.w3.org/2000/svg" xmlns:xlink="http://www.w3.org/1999/xlink" x="0px" y="0px"
	 viewBox="0 0 58 66.7" style="enable-background:new 0 0 58 66.7;" xml:space="preserve">
<style type="text/css">
	.st0{fill-rule:evenodd;clip-rule:evenodd;fill:#FFFFFF;}
	.st1{fill-rule:evenodd;clip-rule:evenodd;fill:#FFC400;}
	.st2{fill:#3C4043;stroke:#3C4043;stroke-width:2.261;}
	.st3{fill-rule:evenodd;clip-rule:evenodd;fill:#FF5252;}
	.st4{fill-rule:evenodd;clip-rule:evenodd;fill:#1CC871;}
	.st5{fill-rule:evenodd;clip-rule:evenodd;fill:#FF5252;stroke:#A8010C;stroke-width:2;}
</style>
<g id="Pin">
	<path class="st0" d="M37.4,56.8C49.3,53.1,58,42.1,58,29C58,13,45,0,29,0S0,13,0,29c0,13.1,8.7,24.1,20.6,27.8l6.8,9.1
		c0.7,0.9,1.9,1.1,2.8,0.4c0.2-0.1,0.3-0.2,0.4-0.4L37.4,56.8z"/>
	<path class="st1" d="M29,55c14.4,0,26-11.6,26-26S43.4,3,29,3S3,14.6,3,29S14.6,55,29,55z"/>
</g>
<g id="Lights">
	<path class="st2" d="M31.1,13.2h0.2c4.3,0,7.8,3.5,7.8,7.8V37c0,4.3-3.5,7.8-7.8,7.8h-0.2c-4.3,0-7.8-3.5-7.8-7.8V21
		C23.3,16.7,26.8,13.2,31.1,13.2z"/>
	<path class="st3" d="M31.3,23.3c1.9,0,3.4-1.5,3.4-3.4s-1.5-3.4-3.4-3.4c-1.9,0-3.4,1.5-3.4,3.4S29.4,23.3,31.3,23.3z"/>
	<path class="st4" d="M31.3,41.4c1.9,0,3.4-1.5,3.4-3.4c0-1.9-1.5-3.4-3.4-3.4c-1.9,0-3.4,1.5-3.4,3.4
		C27.9,39.9,29.4,41.4,31.3,41.4z"/>
	<path class="st1" d="M31.3,32.4c1.9,0,3.4-1.5,3.4-3.4c0-1.9-1.5-3.4-3.4-3.4c0,0,0,0,0,0c-1.9,0-3.4,1.5-3.4,3.4
		C27.9,30.9,29.4,32.4,31.3,32.4z"/>
</g>
<path class="st5" d="M18.8,30.8c3.5,0,6.4-2.8,6.4-6.4s-2.8-6.4-6.4-6.4s-6.4,2.8-6.4,6.4S15.3,30.8,18.8,30.8z"/>
<path class="st0" d="M21.6,21.8c-0.4-0.4-1-0.4-1.4,0l-1.4,1.4l-1.4-1.4c-0.4-0.4-0.9-0.4-1.3,0c-0.4,0.4-0.4,0.9,0,1.3l1.4,1.4
	l-1.4,1.4c-0.4,0.4-0.3,1,0.1,1.4c0.4,0.3,0.9,0.3,1.3,0l1.4-1.4l1.4,1.4c0.4,0.4,0.9,0.4,1.3,0c0.4-0.4,0.4-0.9,0-1.3l-1.4-1.4
	l1.4-1.4C21.9,22.7,21.9,22.1,21.6,21.8L21.6,21.8z"/>
</svg>
