<svg width="58" height="66.667" fill="none" xmlns="http://www.w3.org/2000/svg"><path fill-rule="evenodd" clip-rule="evenodd" d="M37.434 56.755C49.337 53.142 58 42.082 58 29 58 12.984 45.016 0 29 0S0 12.984 0 29c0 13.083 8.663 24.142 20.566 27.755l6.834 9.112a2 2 0 0 0 3.2 0l6.834-9.113z" fill="#fff"/><path fill-rule="evenodd" clip-rule="evenodd" d="M29 55c14.36 0 26-11.64 26-26S43.36 3 29 3 3 14.64 3 29s11.64 26 26 26z" fill="#52eeaa"/><path fill-rule="evenodd" clip-rule="evenodd" d="M29.565 16.565c-6.555 0-11.87 5.314-11.87 11.87 0 6.366 5.012 11.561 11.305 11.856v3.405C37.478 40.87 41.435 34.652 41.435 29h-.014c.009-.187.013-.376.013-.565 0-6.556-5.314-11.87-11.87-11.87z" fill="#1cc871"/><path d="M29 40.291h1.017v-.97l-.97-.046L29 40.29zm0 3.405h-1.017v1.411l1.339-.446zM41.435 29h1.017v-1.017h-1.017zm-.014 0-1.016-.048-.05 1.066h1.066zm-22.708-.565c0-5.994 4.858-10.852 10.852-10.852v-2.035c-7.117 0-12.887 5.77-12.887 12.887zm10.335 10.84c-5.753-.27-10.335-5.02-10.335-10.84h-2.035c0 6.912 5.441 12.552 12.274 12.872zm.97 4.42v-3.404h-2.035v3.405h2.034zM40.417 29c0 5.149-3.611 11.021-11.74 13.73l.644 1.93c8.828-2.942 13.13-9.504 13.13-15.66h-2.035zm1.003 1.017h.014v-2.034h-.014zm-1.004-1.582c0 .173-.004.346-.012.517l2.032.096c.01-.204.015-.408.015-.613zM29.565 17.583c5.993 0 10.852 4.858 10.852 10.852h2.035c0-7.118-5.77-12.887-12.887-12.887z" fill="#024c2a"/><path fill-rule="evenodd" clip-rule="evenodd" d="M23.913 30.13a1.696 1.696 0 1 0 0-3.39 1.696 1.696 0 0 0 0 3.39zm5.652 0a1.696 1.696 0 1 0 0-3.39 1.696 1.696 0 0 0 0 3.39zm5.652 0a1.696 1.696 0 1 0 0-3.39 1.696 1.696 0 0 0 0 3.39z" fill="#024c2a"/></svg>