<?xml version="1.0" encoding="utf-8"?>
<!-- Generator: Adobe Illustrator 25.2.1, SVG Export Plug-In . SVG Version: 6.00 Build 0)  -->
<svg version="1.1" id="Closure" xmlns="http://www.w3.org/2000/svg" xmlns:xlink="http://www.w3.org/1999/xlink" x="0px" y="0px"
	 viewBox="0 0 58 66.7" style="enable-background:new 0 0 58 66.7;" xml:space="preserve">
<style type="text/css">
	.st0{fill-rule:evenodd;clip-rule:evenodd;fill:#FFFFFF;}
	.st1{fill-rule:evenodd;clip-rule:evenodd;fill:#FF9100;}
	.st2{fill:#75011D;}
	.st3{fill:#FF5252;}
	.st4{fill:#C4C4C4;stroke:#75011D;stroke-width:2.261;stroke-linejoin:round;}
	.st5{fill-rule:evenodd;clip-rule:evenodd;fill:#FF5252;}
</style>
<g id="Pin">
	<path class="st0" d="M37.4,56.8C49.3,53.1,58,42.1,58,29C58,13,45,0,29,0S0,13,0,29c0,13.1,8.7,24.1,20.6,27.8l6.8,9.1
		c0.7,0.9,1.9,1.1,2.8,0.4c0.2-0.1,0.3-0.2,0.4-0.4L37.4,56.8z"/>
	<path class="st1" d="M29,55c14.4,0,26-11.6,26-26S43.4,3,29,3S3,14.6,3,29S14.6,55,29,55z"/>
</g>
<g id="Event">
	<path class="st2" d="M37.7,5.9c0.4,0.1,0.5,0.4,0.5,0.8c0,1.3,0,2.5,0,3.8c0,0.5-0.2,0.7-0.7,0.7c-0.8,0-1.6,0-2.3,0
		c-0.2,0-0.2,0-0.2,0.2c0,1.1,0,2.2,0,3.3c0,0.1,0,0.1,0,0.2c-0.3-0.3-0.6-0.5-0.9-0.6c-0.3-0.1-0.3-0.3-0.3-0.5c0-0.8,0-1.6,0-2.4
		c0-0.2-0.1-0.2-0.2-0.2c-0.8,0-1.6,0-2.3,0c-0.5,0-0.7-0.2-0.7-0.8c0-1.3,0-2.5,0-3.8c0-0.4,0.1-0.6,0.5-0.8
		C33.1,5.9,35.4,5.9,37.7,5.9z"/>
	<path class="st2" d="M39.5,26.4c-0.2,0.4-0.4,0.5-0.8,0.5c-1.5,0-2.9,0-4.4,0c-0.1,0-0.1,0-0.2,0c0.2-0.9,0-1.7-0.3-2.5
		c0.4,0.2,0.8,0.3,1.2,0.4c1.3,0.2,2.4-0.2,3.3-1.1c0.1-0.1,0.2-0.1,0.3,0c0.5,0.6,0.8,1.2,0.9,2c0,0,0,0.1,0,0.1
		C39.5,26,39.5,26.2,39.5,26.4z"/>
	<path class="st3" d="M23.1,14.9c0-0.8,0-1.5,0-2.2c0-0.2,0-0.3-0.2-0.3c-1.2,0-2.4,0-3.6,0c-0.5,0-0.8-0.2-0.8-0.8
		c0-1.3,0-2.5,0-3.8c0-0.5,0.2-0.7,0.7-0.7c3,0,6,0,9,0c0.5,0,0.7,0.2,0.7,0.7c0,1.3,0,2.5,0,3.8c0,0.5-0.2,0.7-0.7,0.7
		c-1.2,0-2.4,0-3.7,0c-0.2,0-0.2,0.1-0.2,0.2c0,0.4,0,0.8,0,1.3c0,0.1,0,0.2-0.2,0.2C23.8,14.4,23.5,14.6,23.1,14.9z"/>
	<path class="st2" d="M33,21c0.1-1.5,1.2-2.6,2.7-2.5c1.5,0.1,2.6,1.2,2.5,2.7c-0.1,1.4-1.2,2.6-2.6,2.5C34.1,23.5,32.9,22.4,33,21z
		"/>
	<path class="st2" d="M22.3,23.6c-1.5-0.1-2.6-1.3-2.5-2.7c0.1-1.4,1.3-2.5,2.7-2.5c1.4,0.1,2.5,1.3,2.5,2.7
		C24.9,22.5,23.7,23.7,22.3,23.6z"/>
	<path class="st3" d="M26.4,21c0-1.4,1.2-2.6,2.6-2.6c1.4,0,2.6,1.2,2.6,2.6c0,1.4-1.2,2.6-2.6,2.6C27.6,23.6,26.4,22.4,26.4,21z"/>
	<path class="st3" d="M29,26.9c-1.1,0-2.1,0-3.2,0c-0.5,0-0.7-0.2-0.7-0.7c0-0.9,0.4-1.8,1-2.5c0.1-0.1,0.1-0.1,0.2,0
		c1.5,1.5,3.9,1.5,5.4,0c0.1-0.1,0.2-0.1,0.2,0c0.6,0.7,1,1.6,1,2.5c0,0.4-0.3,0.6-0.6,0.6C31.2,26.9,30.1,26.9,29,26.9z"/>
	<path class="st2" d="M24.2,24.4c-0.4,1.3-0.4,1.7-0.3,2.5c-0.1,0-0.1,0-0.2,0c-1.5,0-3,0-4.5,0c-0.5,0-0.7-0.2-0.7-0.7
		c0-0.9,0.4-1.8,1-2.5c0.1-0.1,0.1-0.1,0.2,0C20.8,24.8,22.6,25.2,24.2,24.4C24.2,24.4,24.2,24.4,24.2,24.4z"/>
	<path class="st2" d="M25.7,19.1c-0.6-0.9-1.4-1.5-2.4-1.8c-0.2,0-0.1-0.1-0.1-0.2c0.3-1.1,1.3-1.9,2.4-1.9c1.2,0,2.2,0.7,2.6,1.8
		c0,0,0,0.1,0,0.1c0.1,0.2,0.1,0.3-0.2,0.3C27.1,17.6,26.3,18.1,25.7,19.1C25.8,19,25.7,19,25.7,19.1z"/>
	<path class="st2" d="M32.3,19.1c-0.4-0.6-0.9-1.1-1.5-1.5c-0.3-0.1-0.5-0.2-0.8-0.3c-0.1,0-0.2-0.1-0.1-0.2c0.2-1.1,1.3-2,2.5-2
		c1.2,0,2.3,0.9,2.5,2c0,0.1,0,0.1-0.1,0.2C33.7,17.5,32.9,18.1,32.3,19.1z"/>
</g>
<g>
	<path id="Feet" class="st4" d="M19,36.5h5v12h-5V36.5z M34,36.5h5v12h-5V36.5z"/>
	<g id="Barrier">
		<path class="st0" d="M42,35.9c0,0.4-0.3,0.6-0.6,0.6H16.6c-0.4,0-0.6-0.3-0.6-0.6l0,0v-6.7c0-0.4,0.3-0.6,0.6-0.6h24.7
			c0.4,0,0.6,0.3,0.6,0.6V35.9z"/>
		<path class="st5" d="M16,34.7l7-6.2h-7V34.7z M28.6,36.5l8.5-7.9h-7l-9,7.9H28.6z M35,36.5l7-6.2v6.2H35z"/>
		<path class="st2" d="M41.4,28.5c0.4,0,0.6,0.3,0.6,0.6v6.7c0,0.4-0.3,0.6-0.6,0.6H16.6c-0.4,0-0.6-0.3-0.6-0.6v-6.7
			c0-0.4,0.3-0.6,0.6-0.6H41.4 M41.4,26.5H16.6c-1.4,0-2.6,1.1-2.6,2.6v6.7c0,1.4,1.1,2.6,2.6,2.6h24.7c1.4,0,2.6-1.1,2.6-2.6v-6.7
			C44,27.7,42.8,26.5,41.4,26.5L41.4,26.5z"/>
	</g>
</g>
</svg>
