<?xml version="1.0" encoding="utf-8"?>
<!-- Generator: Adobe Illustrator 25.2.1, SVG Export Plug-In . SVG Version: 6.00 Build 0)  -->
<svg version="1.1" id="Closure" xmlns="http://www.w3.org/2000/svg" xmlns:xlink="http://www.w3.org/1999/xlink" x="0px" y="0px"
	 viewBox="0 0 58 66.7" style="enable-background:new 0 0 58 66.7;" xml:space="preserve">
<style type="text/css">
	.st0{fill-rule:evenodd;clip-rule:evenodd;fill:#FFFFFF;}
	.st1{fill-rule:evenodd;clip-rule:evenodd;fill:#FF9100;}
	.st2{fill:#C4C4C4;stroke:#75011D;stroke-width:2.261;stroke-linejoin:round;}
	.st3{fill-rule:evenodd;clip-rule:evenodd;fill:#FF5252;}
	.st4{fill:#75011D;}
</style>
<g id="Pin">
	<path class="st0" d="M37.4,56.8C49.3,53.1,58,42.1,58,29C58,13,45,0,29,0S0,13,0,29c0,13.1,8.7,24.1,20.6,27.8l6.8,9.1
		c0.7,0.9,1.9,1.1,2.8,0.4c0.2-0.1,0.3-0.2,0.4-0.4L37.4,56.8z"/>
	<path class="st1" d="M29,55c14.4,0,26-11.6,26-26S43.4,3,29,3S3,14.6,3,29S14.6,55,29,55z"/>
</g>
<path id="Feet" class="st2" d="M17.7,27.9h5.7v13.6h-5.7V27.9z M34.7,27.9h5.7v13.6h-5.7V27.9z"/>
<g id="Barrier">
	<path class="st0" d="M43.7,27.2c0,0.4-0.3,0.7-0.7,0.7H15c-0.4,0-0.7-0.3-0.7-0.7l0,0v-7.6c0-0.4,0.3-0.7,0.7-0.7h28
		c0.4,0,0.7,0.3,0.7,0.7V27.2z"/>
	<path class="st3" d="M14.3,25.9l7.9-7h-7.9V25.9z M28.5,27.9l9.6-9h-7.9l-10.2,9H28.5z M35.8,27.9l7.9-7v7H35.8z"/>
	<path class="st4" d="M43,18.8c0.4,0,0.7,0.3,0.7,0.7v7.6c0,0.4-0.3,0.7-0.7,0.7H15c-0.4,0-0.7-0.3-0.7-0.7v-7.6
		c0-0.4,0.3-0.7,0.7-0.7H43 M43,16.6H15c-1.6,0-3,1.3-3,3v7.6c0,1.6,1.3,3,3,3h28c1.6,0,3-1.3,3-3v-7.6C46,17.9,44.6,16.6,43,16.6
		L43,16.6z"/>
</g>
</svg>
