<?xml version="1.0" encoding="utf-8"?>
<!-- Generator: Adobe Illustrator 25.2.1, SVG Export Plug-In . SVG Version: 6.00 Build 0)  -->
<svg version="1.1" id="Calque_1" xmlns="http://www.w3.org/2000/svg" xmlns:xlink="http://www.w3.org/1999/xlink" x="0px" y="0px"
	 viewBox="0 0 58 66.7" style="enable-background:new 0 0 58 66.7;" xml:space="preserve">
<style type="text/css">
	.st0{fill-rule:evenodd;clip-rule:evenodd;fill:#FFFFFF;}
	.st1{fill-rule:evenodd;clip-rule:evenodd;fill:#FFC400;}
	.st2{fill-rule:evenodd;clip-rule:evenodd;fill:#FBC57A;stroke:#A84600;stroke-width:2.035;stroke-linejoin:round;}
	.st3{fill-rule:evenodd;clip-rule:evenodd;fill:#F8F9FA;}
	.st4{fill-rule:evenodd;clip-rule:evenodd;fill:#FDEC7B;}
	.st5{fill:none;stroke:#202124;stroke-width:2.34;stroke-linecap:round;}
	.st6{fill-rule:evenodd;clip-rule:evenodd;fill:#FCE354;stroke:#A84600;stroke-width:2.035;stroke-linejoin:round;}
	.st7{fill-rule:evenodd;clip-rule:evenodd;fill:#FCE354;}
	.st8{fill:#A84600;}
	.st9{fill:none;stroke:#8A3700;stroke-width:2.035;stroke-linecap:round;}
</style>
<path class="st0" d="M37.4,56.8C49.3,53.1,58,42.1,58,29C58,13,45,0,29,0S0,13,0,29c0,13.1,8.7,24.1,20.6,27.8l6.8,9.1
	c0.7,0.9,1.9,1.1,2.8,0.4c0.2-0.1,0.3-0.2,0.4-0.4L37.4,56.8z"/>
<path class="st1" d="M29,55c14.4,0,26-11.6,26-26S43.4,3,29,3S3,14.6,3,29S14.6,55,29,55z"/>
<path class="st2" d="M29,43.2c5.6,0,10.7-4,10.7-13.2s-4.9-8.1-10.7-8.1c-5.1,0-10.7-1.1-10.7,8.1S23.4,43.2,29,43.2L29,43.2z"/>
<path class="st3" d="M29,22.9c1.1,0,2-0.9,2-2c0-1.1-0.9-2-2-2c0,0,0,0,0,0c-1.1,0-2,0.9-2,2C27,22,27.9,22.9,29,22.9z"/>
<path class="st4" d="M25.3,21.2v-3.6c0-1,0.6-1.9,1.6-2.2l0.4-0.1c1-0.3,2-0.3,3,0l0.4,0.1c1,0.3,1.6,1.2,1.6,2.2v3.6"/>
<path class="st5" d="M25.3,21.2v-3.8c0-0.9,0.6-1.7,1.4-2l0.8-0.3c0.8-0.3,1.8-0.3,2.6,0l0.8,0.3c0.8,0.3,1.4,1.1,1.4,2v3.8"/>
<path class="st6" d="M29,14.8c11.3,0,12.4,8.4,12.3,11.8c0,0.9,0.3,1.8,0.9,2.4H15.8c0.6-0.6,0.9-1.5,0.9-2.4
	C16.6,23.1,17.7,14.8,29,14.8z"/>
<path class="st7" d="M33.1,23.9l2.5,8.8H22.9l2-8.8 M24.9,19.3v-3.8c0-1.1,0.7-2,1.8-2.3l1.2-0.3c0.7-0.2,1.5-0.2,2.3,0l1.2,0.3
	c1,0.3,1.8,1.2,1.8,2.3v3.8"/>
<path class="st8" d="M33.8,23c-0.2-0.5-0.7-0.9-1.3-0.7c-0.5,0.2-0.9,0.7-0.7,1.3L33.8,23z M35.3,32.1v1h1.4l-0.4-1.3L35.3,32.1z
	 M22.6,32.1l-1-0.2l-0.3,1.2h1.3V32.1z M25.6,23.5c0.1-0.6-0.3-1.1-0.8-1.2c-0.5-0.1-1,0.2-1.2,0.7L25.6,23.5z M23.6,18.7
	c0,0.6,0.5,1,1,1s1-0.5,1-1H23.6z M31.8,18.7c0,0.6,0.5,1,1,1c0.6,0,1-0.5,1-1H31.8z M31,12.7l0.2-1L31,12.7z M27.6,12.4l-0.2-1
	L27.6,12.4z M29.8,12.4l-0.2,1L29.8,12.4z M26.4,12.7l0.2,1L26.4,12.7z M31.8,23.6l2.5,8.8l2-0.6L33.8,23L31.8,23.6z M35.3,31H22.6
	v2h12.7L35.3,31z M23.6,32.3l2-8.8l-2-0.5l-2,8.8L23.6,32.3z M25.7,18.7v-3.8h-2v3.8H25.7z M26.7,13.6l1.2-0.3l-0.5-2l-1.2,0.3
	L26.7,13.6z M29.6,13.4l1.2,0.3l0.5-2l-1.2-0.3L29.6,13.4z M31.8,14.9v3.8h2v-3.8H31.8z M30.8,13.6c0.6,0.1,1,0.7,1,1.3h2
	c0-1.5-1-2.9-2.5-3.3L30.8,13.6z M27.8,13.4c0.6-0.1,1.2-0.1,1.8,0l0.5-2c-0.9-0.2-1.9-0.2-2.8,0L27.8,13.4z M25.7,14.9
	c0-0.6,0.4-1.1,1-1.3l-0.5-2c-1.5,0.4-2.5,1.7-2.5,3.3H25.7z"/>
<g>
	<path class="st7" d="M29,33.9c-7.2,0-8.3-0.8-9.4-2.2c-0.3-0.4-0.6-0.7-1.2-1c-0.8-0.4-1.6-0.8-2.4-1.2c-0.7-0.4-1.1-1.2-0.8-2
		l0.2-0.5c0.2-0.5,0.6-0.8,1.2-0.8h0.1l0.2,0c1.4,0.3,6.5,1.4,12.2,1.4c5.7,0,10.8-1.1,12.2-1.4l0.1,0l0.2,0c0.5,0,1,0.3,1.2,0.9
		l0.2,0.5c0.3,0.8-0.1,1.6-0.8,2c-0.5,0.3-1.4,0.7-2.4,1.2c-0.6,0.3-0.8,0.6-1.1,0.9C37.3,33.1,36.1,33.9,29,33.9z"/>
	<path class="st8" d="M41.5,27c0.2,0,0.3,0.1,0.4,0.3l0.2,0.5c0.1,0.4-0.1,0.8-0.4,1c-0.5,0.3-1.4,0.7-2.4,1.2
		c-2.5,1.3-0.2,3.1-10.2,3.1c-9.9,0-7.5-1.6-10.2-3.1c-0.8-0.4-1.6-0.8-2.4-1.2c-0.4-0.2-0.5-0.6-0.4-1l0.2-0.5
		c0.1-0.2,0.2-0.3,0.4-0.3c0,0,0.1,0,0.1,0c1.4,0.3,6.6,1.4,12.4,1.4C34.8,28.5,40,27.4,41.5,27C41.4,27,41.4,27,41.5,27 M41.5,25.3
		c-0.2,0-0.3,0-0.5,0.1c-1.4,0.3-6.4,1.4-12,1.4s-10.6-1.1-12-1.4c-0.2,0-0.3-0.1-0.5-0.1c-0.9,0-1.7,0.6-2,1.4l-0.2,0.5
		c-0.4,1.2,0.2,2.5,1.3,3c0.8,0.4,1.6,0.8,2.4,1.2c0.4,0.2,0.6,0.5,0.9,0.8c1.4,1.7,2.9,2.5,10.1,2.5c7.4,0,8.8-1,10.1-2.5
		c0.3-0.3,0.4-0.5,0.8-0.7c1-0.5,1.9-1,2.4-1.2c1.1-0.5,1.7-1.8,1.3-3l-0.2-0.5C43.2,25.9,42.4,25.3,41.5,25.3L41.5,25.3z"/>
</g>
<path class="st9" d="M25.9,38.2l0.5,0.5c1.2,1.4,3.4,1.6,4.8,0.4c0.1-0.1,0.3-0.2,0.4-0.4l0.5-0.5"/>
</svg>
