<?xml version="1.0" encoding="utf-8"?>
<!-- Generator: Adobe Illustrator 25.2.1, SVG Export Plug-In . SVG Version: 6.00 Build 0)  -->
<svg version="1.1" id="Calque_1" xmlns="http://www.w3.org/2000/svg" xmlns:xlink="http://www.w3.org/1999/xlink" x="0px" y="0px"
	 viewBox="0 0 58 66.7" style="enable-background:new 0 0 58 66.7;" xml:space="preserve">
<style type="text/css">
	.st0{fill-rule:evenodd;clip-rule:evenodd;fill:#FFFFFF;}
	.st1{fill-rule:evenodd;clip-rule:evenodd;fill:#0CB0FF;}
	.st2{fill-rule:evenodd;clip-rule:evenodd;fill:#D5D7DB;stroke:#3C4043;stroke-width:2.261;}
	.st3{fill-rule:evenodd;clip-rule:evenodd;fill:#D8D8D8;}
	.st4{fill:none;stroke:#3C4043;stroke-width:2.261;stroke-linecap:round;}
	.st5{fill-rule:evenodd;clip-rule:evenodd;fill:#90959C;stroke:#3C4043;stroke-width:2.261;}
</style>
<path class="st0" d="M37.4,56.8C49.3,53.1,58,42.1,58,29C58,13,45,0,29,0S0,13,0,29c0,13.1,8.7,24.1,20.6,27.8l6.8,9.1
	c0.7,0.9,1.9,1.1,2.8,0.4c0.2-0.1,0.3-0.2,0.4-0.4L37.4,56.8z"/>
<path class="st1" d="M29,55c14.4,0,26-11.6,26-26S43.4,3,29,3S3,14.6,3,29S14.6,55,29,55z"/>
<g transform="translate(-4 -4)">
	<path class="st2" d="M21.1,35.8c-1.1-2-1.2-2.5-0.1-4.3c1-1.7,2.9-2.8,4.9-2.8c0.4,0,0.8-1.7,1.2-1.6c1.2-3.2,4.2-5.3,7.7-5.3
		c3.7,0,7,2.6,7.9,6.2c2.2,0.5,3.9,2.5,4,4.8c0,0.4,0.6,1.3,0.8,1.6c1,1,1.6,1.2,2.5,1.5c0.7,0.2,1.1,0.9,1,1.6
		c-0.1,0.7-0.7,1.3-1.4,1.2H26.2C24.1,38.7,22.2,37.5,21.1,35.8L21.1,35.8z"/>
	<path class="st3" d="M44.8,28.9c-0.9-0.7-1.9-1.1-3-1.1c-0.7,0-1.4,0.1-2,0.4"/>
	<path class="st4" d="M44.8,28.9c-0.9-0.7-1.9-1.1-3-1.1c-0.7,0-1.4,0.1-2,0.4"/>
	<path class="st5" d="M14.9,37.5c-0.1-0.7,0.3-1.3,0.9-1.5c0.2-0.1,1-0.1,1.5-0.5c0.6-0.5,1-1.3,1-1.4c0.1-1.7,1.3-3.1,2.9-3.6
		c0.7-2.6,3.1-4.4,5.8-4.4c2.4,0,4.6,1.4,5.6,3.7c1.7-0.3,3.5,0.6,4.4,2.1c0.8,1.4,0.8,3-0.1,4.5c-0.8,1.3-2.2,2.2-3.8,2.2H16.2
		C15.6,38.7,15,38.2,14.9,37.5z"/>
	<path class="st3" d="M33.3,29.8c-1.6,0-3.1,0.9-3.9,2.3L33.3,29.8z"/>
	<path class="st4" d="M33.3,29.8c-1.6,0-3.1,0.9-3.9,2.3"/>
</g>
</svg>
