<?xml version="1.0" encoding="utf-8"?>
<!-- Generator: Adobe Illustrator 25.2.1, SVG Export Plug-In . SVG Version: 6.00 Build 0)  -->
<svg version="1.1" id="Weather" xmlns="http://www.w3.org/2000/svg" xmlns:xlink="http://www.w3.org/1999/xlink" x="0px" y="0px"
	 viewBox="0 0 58 66.7" style="enable-background:new 0 0 58 66.7;" xml:space="preserve">
<style type="text/css">
	.st0{fill-rule:evenodd;clip-rule:evenodd;fill:#FFFFFF;}
	.st1{fill-rule:evenodd;clip-rule:evenodd;fill:#0CB0FF;}
	.st2{fill:#B5EEFE;}
	.st3{fill:#AFB3C7;}
	.st4{fill:#81DBFE;}
	.st5{fill:#DBE0EA;}
	.st6{fill:#AFB4C7;}
	.st7{fill:#AFB4C8;}
	.st8{fill:#B6EEFE;}
</style>
<g id="Pin">
	<path class="st0" d="M37.4,56.8C49.3,53.1,58,42.1,58,29C58,13,45,0,29,0S0,13,0,29c0,13.1,8.7,24.1,20.6,27.8l6.8,9.1
		c0.7,0.9,1.9,1.1,2.8,0.4c0.2-0.1,0.3-0.2,0.4-0.4L37.4,56.8z"/>
	<path class="st1" d="M29,55c14.4,0,26-11.6,26-26S43.4,3,29,3S3,14.6,3,29S14.6,55,29,55z"/>
</g>
<g id="Hail">
	<path class="st2" d="M14.1,18.6c0.1-0.1,0.2-0.1,0.2-0.2c1.2-1.2,2.4-2.4,3.7-3.7c0.2-0.2,0.3-0.2,0.5,0c0.3,0.3,0.6,0.6,0.8,0.8
		c0.1,0.1,0.1,0.2,0,0.4c-1.3,1.2-2.5,2.5-3.8,3.8c-0.1,0.1-0.2,0.1-0.4,0C14.8,19.4,14.4,19.1,14.1,18.6
		C14.1,18.7,14.1,18.7,14.1,18.6z"/>
	<path class="st3" d="M21.7,34.5c2.3,0,4.1,1.8,4.1,4.1c0,2.4-1.8,4.1-4.1,4.1c-2.2,0-4.1-1.8-4.1-4.1
		C17.6,36.3,19.5,34.5,21.7,34.5z"/>
	<path class="st4" d="M42.8,19.6c0.1,0,0.1,0.1,0.1,0.1c0.3,0.3,0.6,0.6,0.9,0.9c0.1,0.1,0.1,0.3,0,0.4c-0.3,0.3-0.6,0.6-1,0.9
		c-4.3,4.3-8.5,8.5-12.8,12.8c-0.3,0.3-0.3,0.3-0.6,0c-0.3-0.3-0.5-0.5-0.8-0.8c-0.1-0.1-0.1-0.2,0-0.3c0,0,0.1-0.1,0.1-0.1
		c4.6-4.6,9.1-9.1,13.7-13.7C42.6,19.8,42.7,19.7,42.8,19.6z"/>
	<path class="st5" d="M20.1,25.2c-1.8,0-3.2-1.4-3.2-3.1c0-1.8,1.4-3.2,3.2-3.2c1.8,0,3.1,1.5,3.1,3.2
		C23.3,23.7,21.8,25.3,20.1,25.2z"/>
	<path class="st2" d="M33.3,24.6c0,0-0.1-0.1-0.1-0.1c-0.3-0.3-0.7-0.7-1-1c-0.1-0.1-0.1-0.1,0-0.2c0.1-0.1,0.1-0.1,0.2-0.2
		c2-2,4-4,6-5.9c0.8-0.7,1.5-1.5,2.3-2.3c0.2-0.2,0.3-0.2,0.4,0c0.3,0.3,0.6,0.6,0.9,0.9c0.1,0.1,0.1,0.2,0,0.3
		c-2.3,2.3-4.6,4.6-6.9,6.9c-0.5,0.5-1,1-1.5,1.4C33.4,24.5,33.4,24.6,33.3,24.6z"/>
	<path class="st5" d="M27.1,27.2c-0.1-1.2,1.1-2.5,2.5-2.4c1.3,0,2.4,1.1,2.4,2.4c0,1.4-1.1,2.4-2.5,2.4
		C28.2,29.6,27,28.4,27.1,27.2z"/>
	<path class="st2" d="M31.8,19.4c0,0.1-0.1,0.2-0.2,0.2c-2.2,2.2-4.4,4.4-6.5,6.6c-0.1,0.1-0.3,0.3-0.4,0.4c-0.1,0.1-0.2,0.1-0.3,0
		c-0.3-0.3-0.6-0.6-1-1c-0.1-0.1-0.1-0.2,0-0.3c0,0,0.1-0.1,0.1-0.1c2.3-2.3,4.5-4.5,6.8-6.8c0.2-0.2,0.3-0.2,0.5,0
		c0.3,0.3,0.6,0.6,0.8,0.9C31.7,19.3,31.8,19.3,31.8,19.4z"/>
	<path class="st6" d="M32.2,39.1c1.2-0.1,2.3,1.1,2.3,2.3c0,1.4-1.1,2.4-2.3,2.4c-1.3,0-2.4-1.1-2.4-2.3
		C29.7,40.2,30.8,39,32.2,39.1z"/>
	<path class="st2" d="M17.3,34c0,0-0.1-0.1-0.1-0.1c-0.3-0.3-0.6-0.6-1-0.9c-0.1-0.1-0.1-0.2,0-0.3c1.7-1.6,3.3-3.3,5-5
		c0.1-0.1,0.2-0.1,0.3,0c0.3,0.3,0.6,0.6,0.9,1c0.1,0.1,0.1,0.2,0,0.3c-1.7,1.7-3.3,3.3-5,5C17.4,33.9,17.4,33.9,17.3,34z"/>
	<path class="st7" d="M39.7,29.6c-0.1-1.1,1-1.9,1.9-2c1.2,0,2.1,0.9,2.1,2c0,1.2-0.9,2-2,2C40.6,31.6,39.6,30.7,39.7,29.6z"/>
	<path class="st5" d="M33.9,18.2c-1,0-2-0.9-2-2c0-1.2,1-2,2-2c1.1,0,2,0.9,2,2C35.9,17.4,35,18.3,33.9,18.2z"/>
	<path class="st4" d="M43.3,36.7c0,0.1-0.1,0.1-0.1,0.2c-1.5,1.5-3.1,3.1-4.6,4.6c-0.1,0.1-0.2,0.1-0.3,0c-0.3-0.3-0.6-0.6-1-1
		c-0.1-0.1-0.1-0.2,0-0.3c1.5-1.5,3.1-3.1,4.6-4.6c0.1-0.1,0.2-0.2,0.3,0c0.3,0.3,0.7,0.7,1,1C43.3,36.6,43.3,36.6,43.3,36.7z"/>
	<path class="st4" d="M35.1,37.5c-0.1,0-0.1,0-0.2-0.1c-0.3-0.3-0.6-0.7-1-1c-0.1-0.1-0.1-0.2,0-0.3c0.7-0.7,1.4-1.4,2.1-2.1
		c0.8-0.8,1.5-1.5,2.3-2.3c0.1-0.1,0.2-0.2,0.3,0c0.3,0.3,0.6,0.6,0.9,0.9c0.1,0.1,0.1,0.2,0,0.3c-1.5,1.5-2.9,2.9-4.4,4.4
		C35.2,37.4,35.2,37.5,35.1,37.5z"/>
	<path class="st2" d="M27.9,15.4c0,0.1-0.1,0.1-0.1,0.2c-1.1,1.1-2.2,2.2-3.3,3.3c-0.1,0.1-0.2,0.1-0.3,0c-0.3-0.3-0.6-0.6-0.9-0.9
		c-0.1-0.1-0.2-0.2,0-0.3c1.1-1.1,2.2-2.2,3.4-3.4c0.1-0.1,0.2-0.2,0.3,0c0.3,0.3,0.6,0.6,0.9,1C27.8,15.3,27.9,15.3,27.9,15.4z"/>
	<path class="st8" d="M24.3,33.3c-0.1,0-0.1-0.1-0.2-0.1c-0.3-0.3-0.6-0.6-0.9-0.9c-0.1-0.1-0.1-0.2,0-0.3c0.8-0.7,1.5-1.5,2.2-2.2
		c0.1-0.1,0.2-0.1,0.3,0c0.3,0.3,0.6,0.6,0.9,0.9c0.1,0.1,0.1,0.2,0,0.3c-0.8,0.7-1.5,1.5-2.3,2.2C24.5,33.3,24.4,33.3,24.3,33.3z"
		/>
	<path class="st8" d="M15.9,27.4c0,0-0.1-0.1-0.1-0.1c-0.3-0.3-0.6-0.6-1-1c-0.1-0.1-0.1-0.2,0-0.3c0.3-0.3,0.7-0.6,1-1
		c0.1-0.1,0.2-0.1,0.3,0c0.3,0.3,0.6,0.6,1,1c0.1,0.1,0.1,0.2,0,0.3c-0.3,0.3-0.7,0.7-1,1C16,27.4,15.9,27.4,15.9,27.4z"/>
</g>
</svg>
