<?xml version="1.0" encoding="utf-8"?>
<!-- Generator: Adobe Illustrator 25.2.1, SVG Export Plug-In . SVG Version: 6.00 Build 0)  -->
<svg version="1.1" id="Calque_1" xmlns="http://www.w3.org/2000/svg" xmlns:xlink="http://www.w3.org/1999/xlink" x="0px" y="0px"
	 viewBox="0 0 58 66.7" style="enable-background:new 0 0 58 66.7;" xml:space="preserve">
<style type="text/css">
	.st0{fill-rule:evenodd;clip-rule:evenodd;fill:#FFFFFF;}
	.st1{fill-rule:evenodd;clip-rule:evenodd;fill:#FFC400;}
	.st2{fill-rule:evenodd;clip-rule:evenodd;fill:#FDD632;stroke:#A84600;stroke-width:4.522;}
	.st3{fill-rule:evenodd;clip-rule:evenodd;fill:#8A3700;}
</style>
<path class="st0" d="M37.4,56.8C49.3,53.1,58,42.1,58,29C58,13,45,0,29,0S0,13,0,29c0,13.1,8.7,24.1,20.6,27.8l6.8,9.1
	c0.7,0.9,1.9,1.1,2.8,0.4c0.2-0.1,0.3-0.2,0.4-0.4L37.4,56.8L37.4,56.8z"/>
<path class="st1" d="M29,55c14.4,0,26-11.6,26-26S43.4,3,29,3S3,14.6,3,29S14.6,55,29,55z"/>
<path class="st2" d="M25.1,15c1.8-2.9,6-2.9,7.7,0L44,33.4c1.8,3-0.3,6.9-3.9,6.9H17.8c-3.5,0-5.7-3.9-3.9-6.9L25.1,15z"/>
<path class="st3" d="M29.5,22.2c0.6,0,1.1,0.6,1,1.2l-0.9,5.7c0,0.3-0.3,0.5-0.6,0.5h-0.2c-0.3,0-0.5-0.2-0.6-0.5l-0.9-5.7
	c-0.1-0.6,0.3-1.1,0.8-1.2c0.1,0,0.1,0,0.2,0H29.5z M30.7,32.9L30.7,32.9c0,1-0.7,1.7-1.7,1.7c-1,0-1.7-0.7-1.7-1.7v0
	c0-0.9,0.7-1.7,1.7-1.7C30,31.3,30.7,32,30.7,32.9z"/>
</svg>
