<?xml version="1.0" encoding="utf-8"?>
<!-- Generator: Adobe Illustrator 25.2.1, SVG Export Plug-In . SVG Version: 6.00 Build 0)  -->
<svg version="1.1" id="Calque_1" xmlns="http://www.w3.org/2000/svg" xmlns:xlink="http://www.w3.org/1999/xlink" x="0px" y="0px"
	 viewBox="0 0 58 66.7" style="enable-background:new 0 0 58 66.7;" xml:space="preserve">
<style type="text/css">
	.st0{fill-rule:evenodd;clip-rule:evenodd;fill:#FFFFFF;}
	.st1{fill-rule:evenodd;clip-rule:evenodd;fill:#FFC400;}
	.st2{fill-rule:evenodd;clip-rule:evenodd;fill:#90959C;}
	.st3{fill:#FFFFFF;filter:url(#Adobe_OpacityMaskFilter);}
	.st4{fill-rule:evenodd;clip-rule:evenodd;}
	.st5{mask:url(#b_1_);fill:none;stroke:#55595E;stroke-width:4.522;}
	.st6{fill:#65DBFF;stroke:#18427C;stroke-width:2.261;}
	.st7{fill-rule:evenodd;clip-rule:evenodd;fill:#CAF8FF;}
	.st8{fill:none;stroke:#225AA8;stroke-width:2.261;}
	.st9{fill:#FFFFFF;}
</style>
<path class="st0" d="M37.4,56.8C49.3,53.1,58,42.1,58,29C58,13,45,0,29,0S0,13,0,29c0,13.1,8.7,24.1,20.6,27.8l6.8,9.1
	c0.7,0.9,1.9,1.1,2.8,0.4c0.2-0.1,0.3-0.2,0.4-0.4L37.4,56.8z"/>
<path class="st1" d="M29,55c14.4,0,26-11.6,26-26S43.4,3,29,3S3,14.6,3,29S14.6,55,29,55z"/>
<g transform="translate(-4 -4)">
	<path class="st2" d="M25.1,45.4c-1.2,0-2.3-1-2.3-2.3c0,0,0,0,0,0V21.7c0-1.2,1-2.3,2.3-2.3l11.3,0c1.2,0,2.3,1,2.3,2.3
		c0,0,0,0,0,0l0,21.5c0,1.2-1,2.3-2.3,2.3c0,0,0,0,0,0L25.1,45.4z"/>
	<defs>
		<filter id="Adobe_OpacityMaskFilter" filterUnits="userSpaceOnUse" x="20.6" y="17.2" width="20.3" height="30.5">
			<feColorMatrix  type="matrix" values="1 0 0 0 0  0 1 0 0 0  0 0 1 0 0  0 0 0 1 0"/>
		</filter>
	</defs>
	<mask maskUnits="userSpaceOnUse" x="20.6" y="17.2" width="20.3" height="30.5" id="b_1_">
		<path class="st3" d="M19.8,16.4h22v32h-22V16.4z"/>
		<path class="st4" d="M25.1,45.4c-1.2,0-2.3-1-2.3-2.3c0,0,0,0,0,0V21.7c0-1.2,1-2.3,2.3-2.3l11.3,0c1.2,0,2.3,1,2.3,2.3
			c0,0,0,0,0,0l0,21.5c0,1.2-1,2.3-2.3,2.3c0,0,0,0,0,0L25.1,45.4z"/>
	</mask>
	<path class="st5" d="M25.1,45.4c-1.2,0-2.3-1-2.3-2.3c0,0,0,0,0,0V21.7c0-1.2,1-2.3,2.3-2.3l11.3,0c1.2,0,2.3,1,2.3,2.3
		c0,0,0,0,0,0l0,21.5c0,1.2-1,2.3-2.3,2.3c0,0,0,0,0,0L25.1,45.4z"/>
	<path class="st0" d="M30.7,39.2c0.6,0,1.1,0.5,1.1,1.1v5.1h-2.3v-5.1C29.6,39.7,30.1,39.2,30.7,39.2L30.7,39.2z M30.7,25.1
		c-0.6,0-1.1-0.5-1.1-1.1v-4.5h2.3V24C31.9,24.6,31.4,25.1,30.7,25.1z"/>
	<path class="st6" d="M36.4,25.1h10.2c1.2,0,2.3,1,2.3,2.3v10.2c0,1.2-1,2.3-2.3,2.3H36.4c-1.2,0-2.3-1-2.3-2.3V27.3
		C34.1,26.1,35.1,25.1,36.4,25.1z"/>
	<g>
		<path class="st7" d="M34.9,25.1h2.8l5.6,14.7h-2.8L34.9,25.1z M39.7,25.1h2.8L48,39.8h-2.8L39.7,25.1z"/>
		<path class="st8" d="M36.4,25.1h10.2c1.2,0,2.3,1,2.3,2.3v10.2c0,1.2-1,2.3-2.3,2.3H36.4c-1.2,0-2.3-1-2.3-2.3V27.3
			C34.1,26.1,35.1,25.1,36.4,25.1z"/>
	</g>
	<path class="st9" d="M30.7,28.5L30.7,28.5c0.6,0,1.1,0.5,1.1,1.1v5.7c0,0.6-0.5,1.1-1.1,1.1h0c-0.6,0-1.1-0.5-1.1-1.1v-5.7
		C29.6,29,30.1,28.5,30.7,28.5z"/>
</g>
</svg>
