<?xml version="1.0" encoding="utf-8"?>
<!-- Generator: Adobe Illustrator 25.2.1, SVG Export Plug-In . SVG Version: 6.00 Build 0)  -->
<svg version="1.1" id="Calque_1" xmlns="http://www.w3.org/2000/svg" xmlns:xlink="http://www.w3.org/1999/xlink" x="0px" y="0px"
	 viewBox="0 0 58 66.7" style="enable-background:new 0 0 58 66.7;" xml:space="preserve">
<style type="text/css">
	.st0{fill-rule:evenodd;clip-rule:evenodd;fill:#FFFFFF;}
	.st1{fill-rule:evenodd;clip-rule:evenodd;fill:#D9504C;}
	.st2{fill:#202124;}
	.st3{fill:#75011D;}
	.st4{fill-rule:evenodd;clip-rule:evenodd;fill:#FFA600;}
	.st5{fill-rule:evenodd;clip-rule:evenodd;fill:#75011D;}
	.st6{fill-rule:evenodd;clip-rule:evenodd;fill:#E66A22;}
	.st7{fill-rule:evenodd;clip-rule:evenodd;fill:#E42828;}
</style>
<path class="st0" d="M37.4,56.8C49.3,53.1,58,42.1,58,29C58,13,45,0,29,0S0,13,0,29c0,13.1,8.7,24.1,20.6,27.8l6.8,9.1
	c0.7,0.9,1.9,1.1,2.8,0.4c0.2-0.1,0.3-0.2,0.4-0.4L37.4,56.8L37.4,56.8z"/>
<path class="st1" d="M29,55c14.4,0,26-11.6,26-26S43.4,3,29,3S3,14.6,3,29S14.6,55,29,55z"/>
<path class="st2" d="M25.4,27.8h3.9v3.3c0,1.1-0.9,1.9-1.9,1.9s-1.9-0.9-1.9-1.9V27.8z"/>
<path class="st3" d="M40.8,27.8h3.9v3.3c0,1.1-0.9,1.9-1.9,1.9s-1.9-0.9-1.9-1.9V27.8z"/>
<path class="st4" d="M30.2,13.3c-1.4,0.4-2.4,1.5-2.8,3l-1.3,4.8c-1.3,0.9-1.8,2.5-1.5,4.1l0.1,0.5c0.4,2,2.1,3.4,4.1,3.4h12.4
	c2,0,3.7-1.4,4.1-3.4l0.1-0.5c0.3-1.6-0.2-3.2-1.5-4.1l-1.3-4.8c-0.4-1.4-1.4-2.6-2.8-3c-1.6-0.4-3.2-0.6-4.9-0.6
	C33.1,12.7,31.4,13,30.2,13.3L30.2,13.3z"/>
<path class="st3" d="M27.4,16.3l-0.8-0.2L27.4,16.3z M30.2,13.3l0.2,0.8L30.2,13.3z M26.1,21.1l0.5,0.7l0.3-0.2l0.1-0.3L26.1,21.1z
	 M24.6,25.2l0.8-0.2L24.6,25.2z M24.7,25.7l-0.8,0.2L24.7,25.7z M45.3,25.7l-0.8-0.2L45.3,25.7z M45.4,25.2l0.8,0.2L45.4,25.2z
	 M43.9,21.1l-0.8,0.2l0.1,0.3l0.3,0.2L43.9,21.1z M42.7,16.3l0.8-0.2L42.7,16.3z M39.9,13.3l-0.2,0.8L39.9,13.3z M28.2,16.5
	c0.3-1.2,1.1-2.1,2.2-2.4L30,12.5c-1.8,0.4-3,1.9-3.4,3.6L28.2,16.5L28.2,16.5z M26.9,21.3l1.3-4.8l-1.6-0.4l-1.3,4.8L26.9,21.3
	L26.9,21.3z M25.4,25c-0.3-1.3,0.2-2.6,1.1-3.2l-0.9-1.4c-1.7,1.1-2.2,3.1-1.9,5L25.4,25z M25.5,25.5L25.4,25l-1.7,0.3l0.1,0.5
	L25.5,25.5z M28.8,28.2c-1.6,0-3-1.1-3.3-2.7l-1.7,0.3c0.5,2.4,2.5,4.1,5,4.1V28.2z M41.2,28.2H28.8v1.7h12.4L41.2,28.2L41.2,28.2z
	 M44.5,25.5c-0.3,1.6-1.7,2.7-3.3,2.7v1.7c2.4,0,4.5-1.7,5-4.1L44.5,25.5z M44.6,25l-0.1,0.5l1.7,0.3l0.1-0.5L44.6,25z M43.5,21.8
	c1,0.6,1.4,1.9,1.1,3.2l1.7,0.3c0.4-1.8-0.2-3.9-1.9-5L43.5,21.8L43.5,21.8z M41.9,16.5l1.3,4.8l1.6-0.4l-1.3-4.8L41.9,16.5
	L41.9,16.5z M39.7,14.1c1.1,0.3,1.9,1.2,2.2,2.4l1.6-0.4c-0.4-1.7-1.6-3.1-3.4-3.6L39.7,14.1L39.7,14.1z M35,13.5
	c1.9,0,3.5,0.3,4.7,0.6l0.4-1.6c-1.7-0.4-3.4-0.6-5.1-0.6V13.5z M30.4,14.1c1.5-0.4,3.1-0.6,4.7-0.6v-1.7c-2,0-3.8,0.3-5.1,0.6
	L30.4,14.1L30.4,14.1z"/>
<path class="st5" d="M30.1,17.4c0.3-0.9,1-1.6,1.9-1.8c0.9-0.2,2-0.3,3-0.3s2.2,0.2,3,0.3c0.9,0.2,1.6,0.9,1.9,1.8l0.5,1.7
	c0.1,0.3-0.1,0.7-0.4,0.8c-0.1,0-0.1,0-0.2,0h-9.8c-0.4,0-0.7-0.3-0.7-0.6c0-0.1,0-0.1,0-0.2L30.1,17.4L30.1,17.4z"/>
<path class="st0" d="M40.2,26.5c1.1,0,1.9-0.9,1.9-2c0-1.1-0.9-2-1.9-2s-1.9,0.9-1.9,2C38.2,25.6,39.1,26.5,40.2,26.5z M29.9,26.5
	c1.1,0,1.9-0.9,1.9-2c0-1.1-0.9-2-1.9-2s-1.9,0.9-1.9,2C27.9,25.6,28.8,26.5,29.9,26.5z"/>
<path class="st2" d="M18.8,33h3.9v3.3c0,1.1-0.9,1.9-1.9,1.9s-1.9-0.9-1.9-1.9l0,0V33z"/>
<path class="st3" d="M34.2,33h3.9v3.3c0,1.1-0.9,1.9-1.9,1.9s-1.9-0.9-1.9-1.9l0,0L34.2,33L34.2,33z"/>
<path class="st6" d="M23.6,18.5c-1.4,0.4-2.4,1.5-2.8,3l-1.3,4.8c-1.3,0.9-1.8,2.5-1.5,4.1l0.1,0.5c0.4,2,2.1,3.4,4.1,3.4h12.4
	c2,0,3.7-1.4,4.1-3.4l0.1-0.5c0.3-1.6-0.2-3.2-1.5-4.1l-1.3-4.8c-0.4-1.4-1.4-2.6-2.8-3c-1.6-0.4-3.2-0.6-4.9-0.6
	C26.5,17.9,24.8,18.2,23.6,18.5L23.6,18.5z"/>
<path class="st3" d="M20.8,21.5l0.8,0.2L20.8,21.5z M23.6,18.5l-0.2-0.8L23.6,18.5z M19.5,26.3L20,27l0.3-0.2l0.1-0.3L19.5,26.3z
	 M18,30.4l0.8-0.2L18,30.4z M18.1,30.9l-0.8,0.2L18.1,30.9z M38.7,30.9l-0.8-0.2L38.7,30.9L38.7,30.9z M38.9,30.4l0.8,0.2L38.9,30.4
	L38.9,30.4z M37.4,26.3l-0.8,0.2l0.1,0.3l0.3,0.2L37.4,26.3z M36.1,21.5l0.8-0.2L36.1,21.5z M33.3,18.5l-0.2,0.8L33.3,18.5z
	 M21.6,21.7c0.3-1.2,1.1-2.1,2.2-2.4l-0.4-1.6c-1.8,0.4-3,1.9-3.4,3.6L21.6,21.7z M20.3,26.5l1.3-4.8l-1.6-0.4l-1.3,4.8L20.3,26.5
	L20.3,26.5z M18.9,30.2C18.6,28.9,19,27.7,20,27L19,25.6c-1.7,1.1-2.2,3.1-1.9,5L18.9,30.2z M19,30.8l-0.1-0.5l-1.7,0.3l0.1,0.5
	L19,30.8z M22.3,33.5c-1.6,0-3-1.1-3.3-2.7l-1.7,0.3c0.5,2.4,2.5,4.1,5,4.1L22.3,33.5z M34.6,33.5H22.3v1.7h12.4L34.6,33.5
	L34.6,33.5z M37.9,30.8c-0.3,1.6-1.7,2.7-3.3,2.7v1.7c2.4,0,4.5-1.7,5-4.1L37.9,30.8z M38,30.2l-0.1,0.5l1.7,0.3l0.1-0.5L38,30.2
	L38,30.2z M36.9,27c1,0.6,1.4,1.9,1.1,3.2l1.7,0.3c0.4-1.8-0.2-3.9-1.9-5L36.9,27z M35.3,21.7l1.3,4.8l1.6-0.4l-1.3-4.8L35.3,21.7z
	 M33.1,19.4c1.1,0.3,1.9,1.2,2.2,2.4l1.6-0.4c-0.4-1.7-1.6-3.1-3.4-3.6L33.1,19.4z M28.4,18.8c1.9,0,3.5,0.3,4.7,0.6l0.4-1.6
	c-1.7-0.4-3.4-0.6-5.1-0.6V18.8z M23.8,19.4c1.5-0.4,3.1-0.6,4.7-0.6v-1.7c-1.7,0-3.4,0.2-5.1,0.6L23.8,19.4z"/>
<path class="st5" d="M23.5,22.7c0.3-0.9,1-1.6,1.9-1.8c0.9-0.2,2-0.3,3-0.3s2.2,0.2,3,0.3c0.9,0.2,1.6,0.9,1.9,1.8l0.5,1.7
	c0.1,0.3-0.1,0.7-0.4,0.8c-0.1,0-0.1,0-0.2,0h-9.8c-0.4,0-0.7-0.3-0.7-0.6c0-0.1,0-0.1,0-0.2L23.5,22.7z"/>
<path class="st0" d="M33.6,31.7c1.1,0,1.9-0.9,1.9-2c0-1.1-0.9-2-1.9-2c-1.1,0-1.9,0.9-1.9,2C31.6,30.8,32.5,31.7,33.6,31.7z
	 M23.3,31.7c1.1,0,1.9-0.9,1.9-2c0-1.1-0.9-2-1.9-2s-1.9,0.9-1.9,2C21.4,30.8,22.2,31.7,23.3,31.7z"/>
<path class="st3" d="M12.2,38.3h3.9v3.3c0,1.1-0.9,1.9-2,1.9c-1,0-1.9-0.9-1.9-1.9L12.2,38.3L12.2,38.3z M27.6,38.3h3.9v3.3
	c0,1.1-0.9,1.9-1.9,1.9s-1.9-0.9-1.9-1.9l0,0L27.6,38.3L27.6,38.3z"/>
<path class="st7" d="M17,23.8c-1.4,0.4-2.4,1.5-2.8,3l-1.3,4.8c-1.3,0.9-1.8,2.5-1.5,4.1l0.1,0.5c0.4,2,2.1,3.4,4.1,3.4H28
	c2,0,3.7-1.4,4.1-3.4l0.1-0.5c0.3-1.6-0.2-3.2-1.5-4.1l-1.3-4.8c-0.4-1.4-1.4-2.6-2.8-3c-1.6-0.4-3.2-0.6-4.9-0.6
	C19.9,23.2,18.2,23.5,17,23.8z"/>
<path class="st3" d="M14.2,26.8l-0.8-0.2L14.2,26.8z M17,23.8l0.2,0.8L17,23.8z M12.9,31.6l0.5,0.7l0.3-0.2l0.1-0.3L12.9,31.6z
	 M11.4,35.7l-0.8,0.2L11.4,35.7z M11.5,36.2l0.8-0.2L11.5,36.2z M32.2,36.2L31.3,36L32.2,36.2z M32.3,35.7l0.8,0.2L32.3,35.7
	L32.3,35.7z M30.8,31.6L30,31.8l0.1,0.3l0.3,0.2L30.8,31.6z M29.5,26.8L28.7,27L29.5,26.8z M26.7,23.8l0.2-0.8L26.7,23.8z M15,27
	c0.3-1.2,1.1-2.1,2.2-2.4L16.8,23c-1.8,0.4-3,1.9-3.4,3.6L15,27z M13.7,31.8L15,27l-1.6-0.4l-1.3,4.8L13.7,31.8z M12.3,35.5
	c-0.3-1.3,0.2-2.6,1.1-3.2l-0.9-1.4c-1.7,1.1-2.2,3.1-1.9,5L12.3,35.5z M12.4,36l-0.1-0.5l-1.7,0.3l0.1,0.5L12.4,36L12.4,36z
	 M15.7,38.7c-1.6,0-3-1.1-3.3-2.7l-1.7,0.3c0.5,2.4,2.5,4.1,5,4.1V38.7z M28,38.7H15.7v1.7H28L28,38.7L28,38.7z M31.3,36
	c-0.3,1.6-1.7,2.7-3.3,2.7v1.7c2.4,0,4.5-1.7,5-4.1L31.3,36L31.3,36z M31.4,35.5L31.3,36l1.7,0.3l0.1-0.5L31.4,35.5z M30.3,32.3
	c1,0.6,1.4,1.9,1.1,3.2l1.7,0.3c0.4-1.8-0.2-3.9-1.9-5L30.3,32.3z M28.7,27l1.3,4.8l1.6-0.4l-1.3-4.8L28.7,27z M26.5,24.6
	c1.1,0.3,1.9,1.2,2.2,2.4l1.6-0.4c-0.4-1.7-1.6-3.1-3.4-3.6L26.5,24.6L26.5,24.6z M21.8,24c1.9,0,3.5,0.3,4.7,0.6l0.4-1.6
	c-1.7-0.4-3.4-0.6-5.1-0.6V24z M17.2,24.6c1.5-0.4,3.1-0.6,4.7-0.6v-1.7c-1.7,0-3.4,0.2-5.1,0.6L17.2,24.6z"/>
<path class="st5" d="M16.9,27.9c0.3-0.9,1-1.6,1.9-1.8c0.9-0.2,2-0.3,3-0.3s2.2,0.2,3,0.3c0.9,0.2,1.6,0.9,1.9,1.8l0.5,1.7
	c0.1,0.3-0.1,0.7-0.4,0.8c-0.1,0-0.1,0-0.2,0H17c-0.4,0-0.7-0.3-0.7-0.6c0-0.1,0-0.1,0-0.2L16.9,27.9z"/>
<path class="st0" d="M27,37c1.1,0,1.9-0.9,1.9-2c0-1.1-0.9-2-1.9-2s-1.9,0.9-1.9,2C25.1,36.1,25.9,37,27,37z M16.7,37
	c1.1,0,1.9-0.9,1.9-2c0-1.1-0.9-2-1.9-2s-1.9,0.9-1.9,2C14.8,36.1,15.6,37,16.7,37z"/>
</svg>
