<?xml version="1.0" encoding="utf-8"?>
<!-- Generator: Adobe Illustrator 25.2.1, SVG Export Plug-In . SVG Version: 6.00 Build 0)  -->
<svg version="1.1" id="Calque_1" xmlns="http://www.w3.org/2000/svg" xmlns:xlink="http://www.w3.org/1999/xlink" x="0px" y="0px"
	 viewBox="0 0 58 66.7" style="enable-background:new 0 0 58 66.7;" xml:space="preserve">
<style type="text/css">
	.st0{fill-rule:evenodd;clip-rule:evenodd;fill:#FFFFFF;}
	.st1{fill-rule:evenodd;clip-rule:evenodd;fill:#F1B9AD;}
	.st2{fill:#202124;}
	.st3{fill-rule:evenodd;clip-rule:evenodd;fill:#E66A22;}
	.st4{fill-rule:evenodd;clip-rule:evenodd;fill:#A84600;}
	.st5{fill-rule:evenodd;clip-rule:evenodd;fill:#FFC400;}
</style>
<path class="st0" d="M37.4,56.8C49.3,53.1,58,42.1,58,29C58,13,45,0,29,0S0,13,0,29c0,13.1,8.7,24.1,20.6,27.8l6.8,9.1
	c0.7,0.9,1.9,1.1,2.8,0.4c0.2-0.1,0.3-0.2,0.4-0.4L37.4,56.8L37.4,56.8z"/>
<path class="st1" d="M29,55c14.4,0,26-11.6,26-26S43.4,3,29,3S3,14.6,3,29S14.6,55,29,55z"/>
<g>
	<g id="Car_02">
		<path class="st2" d="M22.6,33h3.9v3.3c0,1.1-0.9,1.9-1.9,1.9s-1.9-0.9-1.9-1.9l0,0V33z"/>
		<path class="st2" d="M38.1,33h3.9v3.3c0,1.1-0.9,1.9-1.9,1.9s-1.9-0.9-1.9-1.9l0,0L38.1,33L38.1,33z"/>
		<path class="st3" d="M27.4,18.5c-1.4,0.4-2.4,1.5-2.8,3l-1.3,4.8c-1.3,0.9-1.8,2.5-1.5,4.1l0.1,0.5c0.4,2,2.1,3.4,4.1,3.4h12.4
			c2,0,3.7-1.4,4.1-3.4l0.1-0.5c0.3-1.6-0.2-3.2-1.5-4.1L40,21.5c-0.4-1.4-1.4-2.6-2.8-3c-1.6-0.4-3.2-0.6-4.9-0.6
			C30.3,17.9,28.7,18.2,27.4,18.5L27.4,18.5z"/>
		<path class="st2" d="M24.6,21.5l0.8,0.2L24.6,21.5z M27.4,18.5l-0.2-0.8L27.4,18.5z M23.4,26.3l0.5,0.7l0.3-0.2l0.1-0.3L23.4,26.3
			z M21.9,30.4l0.8-0.2L21.9,30.4z M22,30.9l-0.8,0.2L22,30.9z M42.6,30.9l-0.8-0.2L42.6,30.9L42.6,30.9z M42.7,30.4l0.8,0.2
			L42.7,30.4L42.7,30.4z M41.2,26.3l-0.8,0.2l0.1,0.3l0.3,0.2L41.2,26.3z M40,21.5l0.8-0.2L40,21.5z M37.2,18.5l-0.2,0.8L37.2,18.5z
			 M25.4,21.7c0.3-1.2,1.1-2.1,2.2-2.4l-0.4-1.6c-1.8,0.4-3,1.9-3.4,3.6L25.4,21.7z M24.2,26.5l1.3-4.8l-1.6-0.4l-1.3,4.8L24.2,26.5
			L24.2,26.5z M22.7,30.2c-0.3-1.3,0.2-2.6,1.1-3.2l-0.9-1.4c-1.7,1.1-2.2,3.1-1.9,5L22.7,30.2z M22.8,30.8l-0.1-0.5L21,30.6
			l0.1,0.5L22.8,30.8z M26.1,33.5c-1.6,0-3-1.1-3.3-2.7l-1.7,0.3c0.5,2.4,2.5,4.1,5,4.1L26.1,33.5z M38.5,33.5H26.1v1.7h12.4
			L38.5,33.5L38.5,33.5z M41.8,30.8c-0.3,1.6-1.7,2.7-3.3,2.7v1.7c2.4,0,4.5-1.7,5-4.1L41.8,30.8z M41.9,30.2l-0.1,0.5l1.7,0.3
			l0.1-0.5L41.9,30.2L41.9,30.2z M40.7,27c1,0.6,1.4,1.9,1.1,3.2l1.7,0.3c0.4-1.8-0.2-3.9-1.9-5L40.7,27z M39.1,21.7l1.3,4.8
			l1.6-0.4l-1.3-4.8L39.1,21.7z M36.9,19.4c1.1,0.3,1.9,1.2,2.2,2.4l1.6-0.4c-0.4-1.7-1.6-3.1-3.4-3.6L36.9,19.4z M32.3,18.8
			c1.9,0,3.5,0.3,4.7,0.6l0.4-1.6c-1.7-0.4-3.4-0.6-5.1-0.6V18.8z M27.6,19.4c1.5-0.4,3.1-0.6,4.7-0.6v-1.7c-1.7,0-3.4,0.2-5.1,0.6
			L27.6,19.4z"/>
		<path class="st4" d="M27.3,22.7c0.3-0.9,1-1.6,1.9-1.8c0.9-0.2,2-0.3,3-0.3s2.2,0.2,3,0.3c0.9,0.2,1.6,0.9,1.9,1.8l0.5,1.7
			c0.1,0.3-0.1,0.7-0.4,0.8c-0.1,0-0.1,0-0.2,0h-9.8c-0.4,0-0.7-0.3-0.7-0.6c0-0.1,0-0.1,0-0.2L27.3,22.7z"/>
		<path class="st0" d="M37.4,31.7c1.1,0,1.9-0.9,1.9-2c0-1.1-0.9-2-1.9-2c-1.1,0-1.9,0.9-1.9,2C35.5,30.8,36.4,31.7,37.4,31.7z
			 M27.1,31.7c1.1,0,1.9-0.9,1.9-2c0-1.1-0.9-2-1.9-2s-1.9,0.9-1.9,2C25.2,30.8,26.1,31.7,27.1,31.7z"/>
	</g>
	<g id="Car_01">
		<path class="st2" d="M16.1,38.3h3.9v3.3c0,1.1-0.9,1.9-2,1.9c-1,0-1.9-0.9-1.9-1.9L16.1,38.3L16.1,38.3z M31.5,38.3h3.9v3.3
			c0,1.1-0.9,1.9-1.9,1.9s-1.9-0.9-1.9-1.9l0,0L31.5,38.3L31.5,38.3z"/>
		<path class="st5" d="M20.8,23.8c-1.4,0.4-2.4,1.5-2.8,3l-1.3,4.8c-1.3,0.9-1.8,2.5-1.5,4.1l0.1,0.5c0.4,2,2.1,3.4,4.1,3.4h12.4
			c2,0,3.7-1.4,4.1-3.4l0.1-0.5c0.3-1.6-0.2-3.2-1.5-4.1l-1.3-4.8c-0.4-1.4-1.4-2.6-2.8-3c-1.6-0.4-3.2-0.6-4.9-0.6
			C23.7,23.2,22.1,23.5,20.8,23.8z"/>
		<path class="st2" d="M18,26.8l-0.8-0.2L18,26.8z M20.8,23.8l0.2,0.8L20.8,23.8z M16.8,31.6l0.5,0.7l0.3-0.2l0.1-0.3L16.8,31.6z
			 M15.3,35.7l-0.8,0.2L15.3,35.7z M15.4,36.2l0.8-0.2L15.4,36.2z M36,36.2L35.2,36L36,36.2z M36.1,35.7l0.8,0.2L36.1,35.7
			L36.1,35.7z M34.6,31.6l-0.8,0.2l0.1,0.3l0.3,0.2L34.6,31.6z M33.4,26.8L32.6,27L33.4,26.8z M30.6,23.8l0.2-0.8L30.6,23.8z
			 M18.9,27c0.3-1.2,1.1-2.1,2.2-2.4L20.6,23c-1.8,0.4-3,1.9-3.4,3.6L18.9,27z M17.6,31.8l1.3-4.8l-1.6-0.4L16,31.4L17.6,31.8z
			 M16.1,35.5c-0.3-1.3,0.2-2.6,1.1-3.2l-0.9-1.4c-1.7,1.1-2.2,3.1-1.9,5L16.1,35.5z M16.2,36l-0.1-0.5l-1.7,0.3l0.1,0.5L16.2,36
			L16.2,36z M19.5,38.7c-1.6,0-3-1.1-3.3-2.7l-1.7,0.3c0.5,2.4,2.5,4.1,5,4.1V38.7z M31.9,38.7H19.5v1.7h12.4L31.9,38.7L31.9,38.7z
			 M35.2,36c-0.3,1.6-1.7,2.7-3.3,2.7v1.7c2.4,0,4.5-1.7,5-4.1L35.2,36L35.2,36z M35.3,35.5L35.2,36l1.7,0.3l0.1-0.5L35.3,35.5z
			 M34.2,32.3c1,0.6,1.4,1.9,1.1,3.2l1.7,0.3c0.4-1.8-0.2-3.9-1.9-5L34.2,32.3z M32.6,27l1.3,4.8l1.6-0.4l-1.3-4.8L32.6,27z
			 M30.4,24.6c1.1,0.3,1.9,1.2,2.2,2.4l1.6-0.4c-0.4-1.7-1.6-3.1-3.4-3.6L30.4,24.6L30.4,24.6z M25.7,24c1.9,0,3.5,0.3,4.7,0.6
			l0.4-1.6c-1.7-0.4-3.4-0.6-5.1-0.6V24z M21.1,24.6c1.5-0.4,3.1-0.6,4.7-0.6v-1.7c-1.7,0-3.4,0.2-5.1,0.6L21.1,24.6z"/>
		<path class="st4" d="M20.7,27.9c0.3-0.9,1-1.6,1.9-1.8c0.9-0.2,2-0.3,3-0.3s2.2,0.2,3,0.3c0.9,0.2,1.6,0.9,1.9,1.8l0.5,1.7
			c0.1,0.3-0.1,0.7-0.4,0.8c-0.1,0-0.1,0-0.2,0h-9.8c-0.4,0-0.7-0.3-0.7-0.6c0-0.1,0-0.1,0-0.2L20.7,27.9z"/>
		<path class="st0" d="M30.9,37c1.1,0,1.9-0.9,1.9-2c0-1.1-0.9-2-1.9-2s-1.9,0.9-1.9,2C28.9,36.1,29.8,37,30.9,37z M20.6,37
			c1.1,0,1.9-0.9,1.9-2c0-1.1-0.9-2-1.9-2s-1.9,0.9-1.9,2C18.6,36.1,19.5,37,20.6,37z"/>
	</g>
</g>
</svg>
