<svg width="58" height="66.667" fill="none" xmlns="http://www.w3.org/2000/svg"><path fill-rule="evenodd" clip-rule="evenodd" d="M37.434 56.755C49.337 53.142 58 42.082 58 29 58 12.984 45.016 0 29 0S0 12.984 0 29c0 13.083 8.663 24.142 20.566 27.755l6.834 9.112a2 2 0 0 0 3.2 0z" fill="#fff"/><path fill-rule="evenodd" clip-rule="evenodd" d="M29 55c14.36 0 26-11.64 26-26S43.36 3 29 3 3 14.64 3 29s11.64 26 26 26z" fill="#1ab3ff"/><mask id="a" maskUnits="userSpaceOnUse" x="19.826" y="21.522" width="26" height="27" fill="#000"><path fill="#fff" d="M19.826 21.522h26v27h-26z"/><path fill-rule="evenodd" clip-rule="evenodd" d="M33 46c5.596 0 10.174-4.242 10.174-12.435 0-8.192-5.276-9.043-10.513-9.043-4.638 0-9.835.85-9.835 9.043S27.404 46 33 46z"/></mask><path fill-rule="evenodd" clip-rule="evenodd" d="M29 42c5.596 0 10.174-4.242 10.174-12.435 0-8.193-5.277-9.043-10.513-9.043-4.638 0-9.835.85-9.835 9.043S23.404 42 29 42z" fill="#cca36c"/><path clip-rule="evenodd" d="M33 46c5.596 0 10.174-4.242 10.174-12.435 0-8.192-5.276-9.043-10.513-9.043-4.638 0-9.835.85-9.835 9.043S27.404 46 33 46z" stroke="#8a3700" stroke-width="4.522" mask="url(#a)" transform="translate(-4 -4)"/><path d="M26.74 38.044h4.521" stroke="#8a3700" stroke-width="2.261" stroke-linecap="round"/><mask id="b" maskUnits="userSpaceOnUse" x="16.435" y="16.435" width="32" height="19" fill="#000"><path fill="#fff" d="M16.435 16.435h32v19h-32z"/><path fill-rule="evenodd" clip-rule="evenodd" d="M32.66 32.66c7.305 0 13.227-2.96 13.227-6.612s-5.922-6.613-13.226-6.613c-7.305 0-13.226 2.96-13.226 6.613 0 3.652 5.921 6.613 13.226 6.613z"/></mask><path fill-rule="evenodd" clip-rule="evenodd" d="M28.66 28.66c7.305 0 13.227-2.96 13.227-6.612s-5.922-6.613-13.226-6.613c-7.305 0-13.226 2.96-13.226 6.613 0 3.652 5.921 6.613 13.226 6.613z" fill="#0075e3"/><path clip-rule="evenodd" d="M32.66 32.66c7.305 0 13.227-2.96 13.227-6.612s-5.922-6.613-13.226-6.613c-7.305 0-13.226 2.96-13.226 6.613 0 3.652 5.921 6.613 13.226 6.613z" stroke="#18427c" stroke-width="4.522" mask="url(#b)" transform="translate(-4 -4)"/><path fill-rule="evenodd" clip-rule="evenodd" d="M29 23.348a2.26 2.26 0 1 0 0-4.522 2.26 2.26 0 0 0 0 4.522z" fill="#f8f9fa"/><path fill-rule="evenodd" clip-rule="evenodd" d="M17.741 26.74c.521 3.168 5.391 5.651 11.797 5.651 5.388 0 10.202-2.483 10.72-5.652z" fill="#0075e3"/><path d="M17.741 26.74v-1.131a1.13 1.13 0 0 0-1.115 1.314zm22.517 0 1.115.182a1.13 1.13 0 0 0-1.115-1.313zm-23.632.183c.346 2.108 2.08 3.758 4.31 4.847 2.27 1.107 5.265 1.752 8.602 1.752V31.26c-3.069 0-5.711-.597-7.61-1.523-1.936-.945-2.897-2.121-3.071-3.182zm12.912 6.599c2.855 0 5.59-.656 7.71-1.767 2.083-1.09 3.784-2.741 4.125-4.833l-2.23-.365c-.177 1.077-1.142 2.252-2.943 3.195-1.762.923-4.13 1.509-6.662 1.509zm10.72-7.913H17.74v2.26h22.517z" fill="#18427c"/><mask id="c" mask-type="alpha" maskUnits="userSpaceOnUse" x="20" y="29" width="26" height="9"><path fill-rule="evenodd" clip-rule="evenodd" d="M21.741 30.74c.521 3.168 5.391 5.651 11.797 5.651 5.388 0 10.202-2.483 10.72-5.652z" fill="#fff"/><path d="M21.741 30.74v-1.131a1.13 1.13 0 0 0-1.115 1.314zm22.517 0 1.115.182a1.13 1.13 0 0 0-1.115-1.313zm-23.632.183c.346 2.108 2.08 3.758 4.31 4.847 2.27 1.107 5.265 1.752 8.602 1.752V35.26c-3.069 0-5.711-.597-7.61-1.523-1.936-.945-2.897-2.121-3.071-3.182zm12.912 6.599c2.855 0 5.59-.656 7.71-1.767 2.083-1.09 3.784-2.741 4.125-4.834l-2.23-.364c-.177 1.077-1.142 2.252-2.943 3.195-1.762.923-4.13 1.509-6.662 1.509zm10.72-7.913H21.74v2.26h22.517z" fill="#fff"/></mask></svg>