<?xml version="1.0" encoding="utf-8"?>
<!-- Generator: Adobe Illustrator 25.2.1, SVG Export Plug-In . SVG Version: 6.00 Build 0)  -->
<svg version="1.1" id="Calque_1" xmlns="http://www.w3.org/2000/svg" xmlns:xlink="http://www.w3.org/1999/xlink" x="0px" y="0px"
	 viewBox="0 0 58 66.7" style="enable-background:new 0 0 58 66.7;" xml:space="preserve">
<style type="text/css">
	.st0{fill-rule:evenodd;clip-rule:evenodd;fill:#FFFFFF;}
	.st1{fill-rule:evenodd;clip-rule:evenodd;fill:#FFC400;}
	.st2{filter:url(#Adobe_OpacityMaskFilter);}
	.st3{mask:url(#Hole_1_);}
	.st4{fill:none;stroke:#CAF8FF;stroke-width:2.261;}
	.st5{fill:#202124;stroke:#90959C;stroke-width:2.261;}
	.st6{fill:none;stroke:#3C4043;stroke-width:2.261;}
	.st7{fill:none;stroke:#8A3700;stroke-width:3;stroke-linecap:round;}
	.st8{fill-rule:evenodd;clip-rule:evenodd;fill:#FDD632;stroke:#8A3700;stroke-width:2;stroke-miterlimit:10;}
	.st9{fill:#8A3700;}
	.st10{fill-rule:evenodd;clip-rule:evenodd;fill:#8A3700;}
</style>
<g id="Pin">
	<path class="st0" d="M37.4,56.8C49.3,53.1,58,42.1,58,29C58,13,45,0,29,0S0,13,0,29c0,13.1,8.7,24.1,20.6,27.8l6.8,9.1
		c0.7,0.9,1.9,1.1,2.8,0.4c0.2-0.1,0.3-0.2,0.4-0.4L37.4,56.8z"/>
	<path class="st1" d="M29,55c14.4,0,26-11.6,26-26S43.4,3,29,3S3,14.6,3,29S14.6,55,29,55z"/>
</g>
<defs>
	<filter id="Adobe_OpacityMaskFilter" filterUnits="userSpaceOnUse" x="16" y="32.4" width="26" height="13.6">
		<feFlood  style="flood-color:white;flood-opacity:1" result="back"/>
		<feBlend  in="SourceGraphic" in2="back" mode="normal"/>
	</filter>
</defs>
<mask maskUnits="userSpaceOnUse" x="16" y="32.4" width="26" height="13.6" id="Hole_1_">
	<g class="st2">
		<path d="M29,43.7c-5.8,0-11.6-1.6-12.8-4.5c-0.1,0.4-0.2,0.7-0.2,1.1C16,44,22.5,46,29,46c6.5,0,13-1.9,13-5.7
			c0-0.4-0.1-0.8-0.2-1.1C40.6,42.1,34.8,43.7,29,43.7z"/>
	</g>
</mask>
<g id="Hole" transform="translate(-4 -4)" class="st3">
	<path class="st4" d="M33,46.6c6.6,0,11.9-2,11.9-4.5c0-2.5-5.3-4.5-11.9-4.5c-6.6,0-11.9,2-11.9,4.5C21.1,44.5,26.4,46.6,33,46.6
		L33,46.6z"/>
	<path class="st5" d="M33,48.8c6.6,0,11.9-2,11.9-4.5c0-2.5-5.3-4.5-11.9-4.5c-6.6,0-11.9,2-11.9,4.5C21.1,46.8,26.4,48.8,33,48.8
		L33,48.8z"/>
	<path class="st6" d="M33,46.6c6.6,0,11.9-2,11.9-4.5c0-2.5-5.3-4.5-11.9-4.5c-6.6,0-11.9,2-11.9,4.5C21.1,44.5,26.4,46.6,33,46.6
		L33,46.6z"/>
</g>
<g id="Sign">
	<path class="st7" d="M29,25.3v14.4"/>
	<path class="st8" d="M30.3,13.4c-0.5-0.3-1-0.3-1.5-0.2c-0.5,0.1-0.9,0.5-1.2,0.9L21.1,25c-0.4,0.7-0.3,1.7,0.3,2.3
		c0.4,0.3,0.9,0.6,1.4,0.6h12.9c0.3,0,0.7-0.1,1-0.2c0.5-0.3,0.8-0.7,1-1.2c0.1-0.5,0.1-1-0.2-1.5L31,14.1
		C30.8,13.8,30.6,13.6,30.3,13.4L30.3,13.4z"/>
</g>
<g id="_x21_">
	<path class="st9" d="M29.3,25.5c0.7,0,1.3-0.6,1.3-1.3s-0.6-1.3-1.3-1.3c-0.7,0-1.3,0.6-1.3,1.3S28.5,25.5,29.3,25.5L29.3,25.5z"/>
	<path class="st10" d="M28,17.8c-0.1-0.8,0.5-1.4,1.3-1.4c0.8,0,1.4,0.6,1.3,1.4L30,21c0,0.4-0.4,0.6-0.8,0.6h-0.1
		c-0.4,0-0.7-0.3-0.8-0.6L28,17.8z"/>
</g>
</svg>
