<?xml version="1.0" encoding="utf-8"?>
<!-- Generator: Adobe Illustrator 25.2.1, SVG Export Plug-In . SVG Version: 6.00 Build 0)  -->
<svg version="1.1" id="road-oil-stain" xmlns="http://www.w3.org/2000/svg" xmlns:xlink="http://www.w3.org/1999/xlink" x="0px"
	 y="0px" viewBox="0 0 58 66.7" style="enable-background:new 0 0 58 66.7;" xml:space="preserve">
<style type="text/css">
	.st0{fill-rule:evenodd;clip-rule:evenodd;fill:#FFFFFF;}
	.st1{fill-rule:evenodd;clip-rule:evenodd;fill:#FFC400;}
	.st2{fill:#55595E;}
	.st3{fill:#90959C;}
	.st4{fill:#FFFFFF;}
</style>
<g id="Pin">
	<path id="Contour" class="st0" d="M37.4,56.8C49.3,53.1,58,42.1,58,29C58,13,45,0,29,0S0,13,0,29c0,13.1,8.7,24.1,20.6,27.8
		l6.8,9.1c0.7,0.9,1.9,1.1,2.8,0.4c0.2-0.1,0.3-0.2,0.4-0.4L37.4,56.8z"/>
	<path id="BG" class="st1" d="M29,55c14.4,0,26-11.6,26-26S43.4,3,29,3S3,14.6,3,29S14.6,55,29,55z"/>
</g>
<g id="Road">
	<g id="Route">
		<path class="st2" d="M35,43.4H23c-2.2,0-4-1.8-4-4v-22c0-2.2,1.8-4,4-4h12c2.2,0,4,1.8,4,4v22C39,41.6,37.2,43.4,35,43.4z"/>
	</g>
	<path id="Asphalte_2_" class="st3" d="M35,41.4H23c-1.1,0-2-0.9-2-2v-22c0-1.1,0.9-2,2-2h12c1.1,0,2,0.9,2,2v22
		C37,40.5,36.1,41.4,35,41.4z"/>
	<g id="Paint">
		<path class="st4" d="M29,38.1c-0.6,0-1.1,0.5-1.1,1.1v2.2h2.2v-2.2C30.1,38.6,29.6,38.1,29,38.1z"/>
		<path class="st4" d="M27.9,15.4v4.9c0,0.6,0.5,1.1,1.1,1.1s1.1-0.5,1.1-1.1v-4.9H27.9z"/>
	</g>
</g>
<g id="Oil">
	<path d="M34.5,18.5c0.4,0,0.9,0,1.3,0c0,0,0,0,0.1,0c1.3,0.2,2.2,0.9,2.9,2c0.5,0.7,0.7,1.5,0.5,2.4c0,0.1,0,0.3,0,0.5
		c0,0.3,0.3,0.5,0.6,0.4c0.2,0,0.4-0.1,0.5-0.2c0.7-0.4,1.5-0.6,2.4-0.4c1.3,0.3,2.2,1.7,2.1,3c-0.1,1.4-1.3,2.5-2.7,2.5
		c-0.3,0-0.6,0-0.8,0.2c-0.8,0.4-1,1.5-0.3,2.2c0.2,0.1,0.3,0.3,0.5,0.5c0.9,0.9,1.3,2.1,1.2,3.4c-0.2,1.7-1.6,3.1-3.3,3.4
		c-1.9,0.3-3.5-0.5-4.4-2.2c-0.3-0.6-0.5-1.2-0.8-1.8c-0.3-0.8-1-1.1-1.8-1c-0.3,0-0.7,0.2-0.9,0.4c-0.3,0.3-0.6,0.6-0.9,0.9
		c-0.5,0.6-1.2,0.9-1.9,0.9c-1.6,0.1-3-1.2-3-2.9c0-1.2,0.7-2.4,2-2.7c0.4-0.1,0.8-0.2,1.1-0.2c0.7-0.2,1.1-0.7,1.2-1.3
		c0.1-0.7-0.2-1.3-0.8-1.6c-0.3-0.2-0.6-0.3-0.8-0.5c-0.5-0.3-0.8-1-0.6-1.6c0.2-0.7,0.5-1.1,1.2-1.3c0.4-0.1,0.7,0,1,0.1
		c0.2,0.1,0.4,0.1,0.7,0.2c0.4,0.1,0.7-0.2,0.6-0.6c0-0.5-0.1-0.9,0-1.4c0.3-1.3,1-2.3,2.3-2.9C33.8,18.7,34.2,18.6,34.5,18.5z"/>
</g>
</svg>
