<?xml version="1.0" encoding="utf-8"?>
<!-- Generator: Adobe Illustrator 25.2.1, SVG Export Plug-In . SVG Version: 6.00 Build 0)  -->
<svg version="1.1" id="road-object" xmlns="http://www.w3.org/2000/svg" xmlns:xlink="http://www.w3.org/1999/xlink" x="0px"
	 y="0px" viewBox="0 0 58 66.7" style="enable-background:new 0 0 58 66.7;" xml:space="preserve">
<style type="text/css">
	.Style_x0020_graphique_x0020_2{fill:#FD804B;stroke:#A84600;stroke-width:1.75;}
	.Style_x0020_graphique_x0020_3{fill:#FD804B;stroke:#A84600;stroke-width:2;}
	.st0{fill-rule:evenodd;clip-rule:evenodd;fill:#FFFFFF;}
	.st1{fill-rule:evenodd;clip-rule:evenodd;fill:#FFC400;}
	.st2{fill:#55595E;}
	.st3{fill:#90959C;}
	.st4{fill:#FFFFFF;}
	.st5{fill:#FD804B;}
	.st6{fill:none;stroke:#A84600;stroke-width:2;}
</style>
<g id="Pin">
	<path id="Contour" class="st0" d="M37.4,56.8C49.3,53.1,58,42.1,58,29C58,13,45,0,29,0S0,13,0,29c0,13.1,8.7,24.1,20.6,27.8
		l6.8,9.1c0.7,0.9,1.9,1.1,2.8,0.4c0.2-0.1,0.3-0.2,0.4-0.4L37.4,56.8z"/>
	<path id="BG" class="st1" d="M29,55c14.4,0,26-11.6,26-26S43.4,3,29,3S3,14.6,3,29S14.6,55,29,55z"/>
</g>
<g id="Road">
	<g id="Route">
		<path class="st2" d="M35,43.4H23c-2.2,0-4-1.8-4-4v-22c0-2.2,1.8-4,4-4h12c2.2,0,4,1.8,4,4v22C39,41.6,37.2,43.4,35,43.4z"/>
	</g>
	<path id="Asphalte_2_" class="st3" d="M35,41.4H23c-1.1,0-2-0.9-2-2v-22c0-1.1,0.9-2,2-2h12c1.1,0,2,0.9,2,2v22
		C37,40.5,36.1,41.4,35,41.4z"/>
	<g id="Paint">
		<path class="st4" d="M29,38.1c-0.6,0-1.1,0.5-1.1,1.1v2.2h2.2v-2.2C30.1,38.6,29.6,38.1,29,38.1z"/>
		<path class="st4" d="M27.9,15.4v4.9c0,0.6,0.5,1.1,1.1,1.1s1.1-0.5,1.1-1.1v-4.9H27.9z"/>
	</g>
</g>
<g id="Paw_Print">
	<g>
		<path class="st5" d="M49.7,29.2c-0.2,0.4-0.2,0.9-0.5,1.3c-0.6,1-1.4,1.6-2.6,1.7c-1.3,0.1-2.3-0.7-2.6-2c-0.5-1.9,1.2-4,3.2-4
			c1.2,0,2.2,0.9,2.4,2.1c0,0.1,0,0.1,0,0.2C49.7,28.7,49.7,28.9,49.7,29.2z"/>
		<path class="st5" d="M30.7,34.6c0-0.7,0.2-1.3,0.6-1.8c0.8-1.2,1.5-2.4,2.3-3.6c1.1-1.7,2.7-2.5,4.7-2.4c1.7,0.1,3.1,0.8,4,2.2
			c0.9,1.3,1.7,2.6,2.5,4c1.3,2.1,0,4.7-2.4,5.1c-0.5,0.1-1.1,0-1.6-0.2c-1-0.4-2-0.7-3.1-0.6c-0.9,0-1.7,0.3-2.4,0.6
			c-1.9,0.8-4-0.3-4.5-2.3C30.7,35.1,30.7,34.8,30.7,34.6z"/>
		<path class="st5" d="M33.2,22.5c0-1.1,0.4-2.2,1.4-2.9c1.3-1,2.9-0.8,4,0.5c1.3,1.4,1.2,3.8,0,5.2c-1.4,1.5-3.6,1.3-4.7-0.3
			C33.5,24.2,33.2,23.4,33.2,22.5z"/>
		<path class="st5" d="M46,23.7c-0.1,1.3-0.5,2.3-1.6,3c-1.6,1.1-3.5,0.4-4.2-1.4c-0.6-1.7,0.2-3.6,1.8-4.4c1.5-0.7,3.2,0,3.8,1.5
			c0.1,0.2,0.1,0.4,0.2,0.6C45.9,23.3,45.9,23.5,46,23.7z"/>
		<path class="st5" d="M33.5,26.5c0,1-0.4,1.9-1.2,2.4c-1,0.6-2,0.5-2.9-0.1c-1.2-0.8-1.8-2.6-1.2-3.9c0.7-1.7,2.7-2.2,4.1-1
			C33.1,24.5,33.5,25.4,33.5,26.5z"/>
	</g>
	<g>
		<path class="Style_x0020_graphique_x0020_2" d="M49.7,29.2c-0.2,0.4-0.2,0.9-0.5,1.3c-0.6,1-1.4,1.6-2.6,1.7
			c-1.3,0.1-2.3-0.7-2.6-2c-0.5-1.9,1.2-4,3.2-4c1.2,0,2.2,0.9,2.4,2.1c0,0.1,0,0.1,0,0.2C49.7,28.7,49.7,28.9,49.7,29.2z"/>
		<path class="Style_x0020_graphique_x0020_2" d="M30.7,34.6c0-0.7,0.2-1.3,0.6-1.8c0.8-1.2,1.5-2.4,2.3-3.6
			c1.1-1.7,2.7-2.5,4.7-2.4c1.7,0.1,3.1,0.8,4,2.2c0.9,1.3,1.7,2.6,2.5,4c1.3,2.1,0,4.7-2.4,5.1c-0.5,0.1-1.1,0-1.6-0.2
			c-1-0.4-2-0.7-3.1-0.6c-0.9,0-1.7,0.3-2.4,0.6c-1.9,0.8-4-0.3-4.5-2.3C30.7,35.1,30.7,34.8,30.7,34.6z"/>
		<path class="Style_x0020_graphique_x0020_2" d="M33.2,22.5c0-1.1,0.4-2.2,1.4-2.9c1.3-1,2.9-0.8,4,0.5c1.3,1.4,1.2,3.8,0,5.2
			c-1.4,1.5-3.6,1.3-4.7-0.3C33.5,24.2,33.2,23.4,33.2,22.5z"/>
		<path class="Style_x0020_graphique_x0020_2" d="M46,23.7c-0.1,1.3-0.5,2.3-1.6,3c-1.6,1.1-3.5,0.4-4.2-1.4
			c-0.6-1.7,0.2-3.6,1.8-4.4c1.5-0.7,3.2,0,3.8,1.5c0.1,0.2,0.1,0.4,0.2,0.6C45.9,23.3,45.9,23.5,46,23.7z"/>
		<path class="Style_x0020_graphique_x0020_3" d="M33.5,26.5c0,1-0.4,1.9-1.2,2.4c-1,0.6-2,0.5-2.9-0.1c-1.2-0.8-1.8-2.6-1.2-3.9
			c0.7-1.7,2.7-2.2,4.1-1C33.1,24.5,33.5,25.4,33.5,26.5z"/>
	</g>
	<g>
		<path class="st6" d="M49.7,29.2c-0.2,0.4-0.2,0.9-0.5,1.3c-0.6,1-1.4,1.6-2.6,1.7c-1.3,0.1-2.3-0.7-2.6-2c-0.5-1.9,1.2-4,3.2-4
			c1.2,0,2.2,0.9,2.4,2.1c0,0.1,0,0.1,0,0.2C49.7,28.7,49.7,28.9,49.7,29.2z"/>
		<path class="st6" d="M30.7,34.6c0-0.7,0.2-1.3,0.6-1.8c0.8-1.2,1.5-2.4,2.3-3.6c1.1-1.7,2.7-2.5,4.7-2.4c1.7,0.1,3.1,0.8,4,2.2
			c0.9,1.3,1.7,2.6,2.5,4c1.3,2.1,0,4.7-2.4,5.1c-0.5,0.1-1.1,0-1.6-0.2c-1-0.4-2-0.7-3.1-0.6c-0.9,0-1.7,0.3-2.4,0.6
			c-1.9,0.8-4-0.3-4.5-2.3C30.7,35.1,30.7,34.8,30.7,34.6z"/>
		<path class="st6" d="M33.2,22.5c0-1.1,0.4-2.2,1.4-2.9c1.3-1,2.9-0.8,4,0.5c1.3,1.4,1.2,3.8,0,5.2c-1.4,1.5-3.6,1.3-4.7-0.3
			C33.5,24.2,33.2,23.4,33.2,22.5z"/>
		<path class="st6" d="M46,23.7c-0.1,1.3-0.5,2.3-1.6,3c-1.6,1.1-3.5,0.4-4.2-1.4c-0.6-1.7,0.2-3.6,1.8-4.4c1.5-0.7,3.2,0,3.8,1.5
			c0.1,0.2,0.1,0.4,0.2,0.6C45.9,23.3,45.9,23.5,46,23.7z"/>
		<path class="st6" d="M33.5,26.5c0,1-0.4,1.9-1.2,2.4c-1,0.6-2,0.5-2.9-0.1c-1.2-0.8-1.8-2.6-1.2-3.9c0.7-1.7,2.7-2.2,4.1-1
			C33.1,24.5,33.5,25.4,33.5,26.5z"/>
	</g>
</g>
</svg>
