<?xml version="1.0" encoding="utf-8"?>
<!-- Generator: Adobe Illustrator 25.2.1, SVG Export Plug-In . SVG Version: 6.00 Build 0)  -->
<svg version="1.1" id="Calque_1" xmlns="http://www.w3.org/2000/svg" xmlns:xlink="http://www.w3.org/1999/xlink" x="0px" y="0px"
	 viewBox="0 0 58 66.7" style="enable-background:new 0 0 58 66.7;" xml:space="preserve">
<style type="text/css">
	.st0{fill-rule:evenodd;clip-rule:evenodd;fill:#FFFFFF;}
	.st1{fill-rule:evenodd;clip-rule:evenodd;fill:#FFC400;}
	.st2{fill-rule:evenodd;clip-rule:evenodd;fill:#FF5252;stroke:#75011D;stroke-width:2.261;}
	.st3{fill:#90959C;stroke:#3C4043;stroke-width:2.261;stroke-linejoin:round;}
	.st4{fill-rule:evenodd;clip-rule:evenodd;fill:#F2F4F7;stroke:#3C4043;stroke-width:2;stroke-miterlimit:10;}
	.st5{fill:#3C4043;}
	.st6{fill:none;stroke:#3C4043;stroke-width:2.261;stroke-linecap:round;stroke-linejoin:round;}
	.st7{fill-rule:evenodd;clip-rule:evenodd;fill:#FDD632;stroke:#A84600;}
	.st8{fill-rule:evenodd;clip-rule:evenodd;fill:#8A3700;}
	.st9{fill:#8A3700;}
</style>
<path class="st0" d="M37.4,56.8C49.3,53.1,58,42.1,58,29C58,13,45,0,29,0S0,13,0,29c0,13.1,8.7,24.1,20.6,27.8l6.8,9.1
	c0.7,0.9,1.9,1.1,2.8,0.4c0.2-0.1,0.3-0.2,0.4-0.4L37.4,56.8z"/>
<path class="st1" d="M29,55c14.4,0,26-11.6,26-26S43.4,3,29,3S3,14.6,3,29S14.6,55,29,55z"/>
<path class="st2" d="M28.9,33.9c0.9,0.9,0.9,2.3,0,3.2L22,43.7c-0.9,0.9-2.3,0.9-3.2,0c-0.9-0.9-0.9-2.3,0-3.2l6.9-6.6
	C26.6,33,28,33,28.9,33.9z"/>
<path class="st3" d="M40,15.6c-0.4-0.1-0.8-0.1-1.2-0.1c-2.3,0-4.5,0.9-6.1,2.6C31,17.3,29.1,17,27.3,17c-1.8,0-3.7,0.4-5.4,1.1
	c-1.6-1.7-3.8-2.6-6.1-2.6c-0.3,0-0.8,0-1.2,0.1c-1.2,0.2-2.2,1.2-2.4,2.4l0,0.2c-0.1,0.4-0.1,0.7-0.1,1c0,2.3,0.9,4.5,2.6,6.1
	c-0.7,1.7-1.1,3.5-1.1,5.4c0,1.7,0.3,3.3,0.9,4.8c0.3,0.8,1.2,1.2,1.9,0.9c0.1,0,0.2-0.1,0.3-0.2c0.1,0,0.1-0.1,0.2-0.1
	c3.2-2.1,6.7-1.5,10.4-1.5c3.8,0,6.8-0.3,9.8,1.2c1.3,0.6,2.9,0.3,3.3-1c0.4-1.3,0.6-2.7,0.6-4.1c0-1.9-0.4-3.7-1.1-5.4
	c1.7-1.6,2.6-3.8,2.6-6.1c0-0.3,0-0.6-0.1-1l0-0.2l0-0.2C42.1,16.7,41.2,15.8,40,15.6z"/>
<path class="st4" d="M33.2,25.8c0.2,0.1,0.5,0.2,0.7,0.3c2,1.2,2.5,3.6,1.1,5.5L30.8,39c-1.3,1.9-3.9,2.4-5.8,1.2
	c-0.5-0.3-0.9-0.7-1.2-1.2l-4.2-7.3c-1.4-1.9-0.9-4.3,1.1-5.5c1.4-0.9,3.2-0.7,4.5,0.4l0.2,0.2c1.1,1,2.8,1,3.9,0l0.2-0.2
	C30.5,25.6,31.9,25.4,33.2,25.8z"/>
<path class="st5" d="M27.3,37.7c1.2,0,2.3-1,2.3-2.3c0-1.2-1-2.3-2.3-2.3l0,0c-1.2,0-2.3,1-2.3,2.3C25,36.7,26.1,37.7,27.3,37.7z
	 M23.1,31.5c0.3,0.3,0.8,0.3,1.1,0s0.3-0.8,0-1.1L23.1,31.5z M22.1,28.3c-0.3-0.3-0.8-0.3-1.1,0s-0.3,0.8,0,1.1l0,0L22.1,28.3z
	 M24.2,30.4l-2.1-2.1L21,29.4l2.1,2.1L24.2,30.4z"/>
<path class="st5" d="M22.1,31.5c-0.3,0.3-0.8,0.3-1.1,0s-0.3-0.8,0-1.1L22.1,31.5z M23.1,28.3c0.3-0.3,0.8-0.3,1.1,0s0.3,0.8,0,1.1
	L23.1,28.3z M21,30.4l2.1-2.1l1.1,1.1l-2.1,2.1L21,30.4z M32.5,31.5c0.3,0.3,0.8,0.3,1.1,0s0.3-0.8,0-1.1l0,0L32.5,31.5z M31.5,28.3
	c-0.3-0.3-0.8-0.3-1.1,0s-0.3,0.8,0,1.1l0,0L31.5,28.3z M33.6,30.4l-2.1-2.1l-1.1,1.1l2.1,2.1L33.6,30.4z"/>
<path class="st5" d="M31.5,31.5c-0.3,0.3-0.8,0.3-1.1,0s-0.3-0.8,0-1.1L31.5,31.5z M32.5,28.3c0.3-0.3,0.8-0.3,1.1,0s0.3,0.8,0,1.1
	L32.5,28.3z M30.4,30.4l2.1-2.1l1.1,1.1l-2.1,2.1L30.4,30.4z"/>
<path class="st6" d="M24.5,17.7v3.4 M30.1,17.7v3.4"/>
<path class="st5" d="M39.3,26.6c0.2,0.6,0.9,0.9,1.5,0.6c0.6-0.2,0.9-0.9,0.6-1.5L39.3,26.6z M38.7,20.9c0.5-0.4,0.6-1.1,0.2-1.6
	c-0.4-0.5-1.1-0.6-1.6-0.2l0,0L38.7,20.9z M38,20l0.7,0.9L38,20z M41.4,25.8c-0.5-1.2-1.1-2.1-1.7-2.7L38,24.5
	c0.4,0.5,0.9,1.1,1.3,2.1L41.4,25.8z M38.7,20.9C38.7,20.9,38.7,20.9,38.7,20.9l-1.3-1.8c0,0-0.1,0.1-0.1,0.1L38.7,20.9z M39.7,23
	c-0.5-0.5-0.9-1.1-1-1.5c-0.1-0.2-0.1-0.3-0.1-0.4c0,0,0-0.1,0.1-0.2l-1.5-1.7c-0.5,0.4-0.8,0.9-0.9,1.5c-0.1,0.6,0,1.1,0.1,1.5
	c0.3,0.9,0.9,1.7,1.5,2.3L39.7,23z M15.4,26.6c-0.2,0.6-0.9,0.9-1.5,0.6c-0.6-0.2-0.9-0.9-0.6-1.5L15.4,26.6z M15.9,20.9
	c-0.5-0.4-0.6-1.1-0.2-1.6c0.4-0.5,1.1-0.6,1.6-0.2L15.9,20.9z M16.6,20l-0.7,0.9L16.6,20z M13.3,25.8c0.5-1.2,1.1-2.1,1.7-2.7
	l1.7,1.5c-0.4,0.5-0.9,1.1-1.3,2.1L13.3,25.8z M15.9,20.9C15.9,20.9,15.9,20.9,15.9,20.9l1.4-1.8c0,0,0.1,0.1,0.1,0.1L15.9,20.9z
	 M14.9,23c0.5-0.5,0.9-1.1,1-1.5c0.1-0.2,0.1-0.3,0.1-0.4c0,0,0-0.1-0.1-0.2l1.5-1.7c0.5,0.4,0.8,0.9,0.9,1.5c0.1,0.6,0,1.1-0.1,1.5
	c-0.3,0.9-0.9,1.7-1.5,2.3L14.9,23z"/>
<path class="st7" d="M39.3,30.8c-0.3-0.2-0.7-0.2-1.1-0.1c-0.4,0.1-0.7,0.3-0.9,0.6l-4.7,7.5c-0.1,0.2-0.2,0.4-0.2,0.7
	c0,0.4,0.2,0.7,0.4,0.9c0.3,0.2,0.6,0.4,1,0.4h9.5c0.3,0,0.5-0.1,0.7-0.2c0.4-0.2,0.6-0.5,0.7-0.8c0.1-0.3,0.1-0.7-0.1-1l-4.7-7.5
	C39.8,31.1,39.6,30.9,39.3,30.8L39.3,30.8z"/>
<path class="st8" d="M37.7,34c-0.1-0.6,0.3-1,0.9-1c0.6,0,1,0.5,0.9,1l-0.3,2.3c0,0.3-0.3,0.5-0.6,0.5h-0.1c-0.3,0-0.5-0.2-0.6-0.5
	L37.7,34z"/>
<path class="st9" d="M38.6,39.6c0.5,0,1-0.4,1-1s-0.4-1-1-1c-0.5,0-1,0.4-1,1S38.1,39.6,38.6,39.6z"/>
</svg>
