<?xml version="1.0" encoding="utf-8"?>
<!-- Generator: Adobe Illustrator 25.2.1, SVG Export Plug-In . SVG Version: 6.00 Build 0)  -->
<svg version="1.1" id="road-object" xmlns="http://www.w3.org/2000/svg" xmlns:xlink="http://www.w3.org/1999/xlink" x="0px"
	 y="0px" viewBox="0 0 58 66.7" style="enable-background:new 0 0 58 66.7;" xml:space="preserve">
<style type="text/css">
	.st0{fill-rule:evenodd;clip-rule:evenodd;fill:#FFFFFF;}
	.st1{fill-rule:evenodd;clip-rule:evenodd;fill:#FFC400;}
	.st2{fill:#55595E;}
	.st3{fill:#90959C;}
	.st4{fill:#FFFFFF;}
	.st5{display:none;}
	.st6{display:inline;fill:#75011D;}
	.st7{display:inline;fill:#FF5252;stroke:#75011D;stroke-width:1.837;}
	.st8{display:inline;}
</style>
<g id="Pin">
	<path id="Contour" class="st0" d="M37.4,56.8C49.3,53.1,58,42.1,58,29C58,13,45,0,29,0S0,13,0,29c0,13.1,8.7,24.1,20.6,27.8
		l6.8,9.1c0.7,0.9,1.9,1.1,2.8,0.4c0.2-0.1,0.3-0.2,0.4-0.4L37.4,56.8z"/>
	<path id="BG" class="st1" d="M29,55c14.4,0,26-11.6,26-26S43.4,3,29,3S3,14.6,3,29S14.6,55,29,55z"/>
</g>
<g id="Road">
	<g id="Route">
		<path class="st2" d="M35,43.4H23c-2.2,0-4-1.8-4-4v-22c0-2.2,1.8-4,4-4h12c2.2,0,4,1.8,4,4v22C39,41.6,37.2,43.4,35,43.4z"/>
	</g>
	<path id="Asphalte_2_" class="st3" d="M35,41.4H23c-1.1,0-2-0.9-2-2v-22c0-1.1,0.9-2,2-2h12c1.1,0,2,0.9,2,2v22
		C37,40.5,36.1,41.4,35,41.4z"/>
	<g id="Paint">
		<path class="st4" d="M29,38.1c-0.6,0-1.1,0.5-1.1,1.1v2.2h2.2v-2.2C30.1,38.6,29.6,38.1,29,38.1z"/>
		<path class="st4" d="M27.9,15.4v4.9c0,0.6,0.5,1.1,1.1,1.1s1.1-0.5,1.1-1.1v-4.9H27.9z"/>
	</g>
</g>
<g id="Car" class="st5">
	<path id="Wheels" class="st6" d="M42.9,33.3h2.7v3.7c0,0.7-0.6,1.3-1.4,1.3c-0.7,0-1.3-0.6-1.3-1.3V33.3z M30.1,33.3h2.7v3.7
		c0,0.7-0.6,1.3-1.4,1.3c-0.7,0-1.3-0.6-1.3-1.3V33.3z"/>
	<path class="st7" d="M41,19.3c-2-0.3-4.1-0.3-6.1,0c-1.9,0.3-3.4,1.7-3.9,3.6l-0.8,3.6c-0.1,0.4-0.3,0.7-0.5,1
		c-0.5,0.7-0.8,1.6-0.8,2.4v1c0,2.2,1.8,4,4,4H43c2.2,0,4-1.8,4-4v-1c0-1.1-0.5-2.2-1.2-2.9l-1-4.1C44.4,21.1,42.8,19.6,41,19.3
		L41,19.3z"/>
	<g id="Lights" class="st8">
		<path id="Light_1_" class="st4" d="M33.2,29L33.2,29c0.9,0,1.7,0.8,1.7,1.7l0,0c0,0.9-0.8,1.7-1.7,1.7l0,0c-0.9,0-1.7-0.8-1.7-1.7
			l0,0C31.5,29.7,32.2,29,33.2,29z"/>
		<path id="Light" class="st4" d="M42.6,29L42.6,29c0.9,0,1.7,0.8,1.7,1.7l0,0c0,0.9-0.8,1.7-1.7,1.7l0,0c-0.9,0-1.7-0.8-1.7-1.7
			l0,0C40.9,29.7,41.7,29,42.6,29z"/>
	</g>
	<path class="st6" d="M32.8,23.7l-0.2,0.8c-0.2,0.7,0.2,1.5,1,1.7c0.1,0,0.2,0,0.4,0h7.9c0.8,0,1.4-0.6,1.4-1.4c0-0.1,0-0.2,0-0.4
		l-0.2-0.8c-0.2-0.9-1-1.6-1.9-1.7c-2.1-0.3-4.2-0.3-6.2,0C33.8,22.1,33.1,22.8,32.8,23.7L32.8,23.7z"/>
</g>
<g id="Wheel">
	<path d="M48.6,28.2c0,0.4,0,0.8,0,1.2c0,0.2-0.1,0.4-0.1,0.6c-0.3,2.5-1.5,4.5-3.4,6c-1.7,1.3-3.6,2-5.7,2c-3.7,0-7.5,0-11.2,0
		c-0.1,0-0.2,0-0.2,0c-0.3,0-0.6-0.3-0.6-0.6c0-0.4,0.2-0.7,0.5-0.7c0.1,0,0.2,0,0.4,0c2.1,0,4.1,0,6.2,0c0.1,0,0.1,0,0.2,0
		c-0.4-0.3-0.8-0.6-1.2-0.9c-0.1-0.1-0.2-0.1-0.4-0.1c-0.9,0-1.9,0-2.8,0c-0.1,0-0.2,0-0.3,0c-0.3-0.1-0.5-0.4-0.5-0.8
		c0-0.3,0.3-0.6,0.7-0.6c0.6,0,1.2,0,1.8,0c0.1,0,0.1,0,0.2,0c-1-1.5-1.6-3.1-1.7-4.9c-0.1-1.8,0.4-3.4,1.2-5c-0.1,0-0.2,0-0.3,0
		c-1.1,0-2.1,0-3.2,0c-0.1,0-0.2,0-0.3,0c-0.3,0-0.6-0.3-0.6-0.6c0-0.3,0.1-0.6,0.4-0.7c0.1,0,0.3-0.1,0.4-0.1c1.5,0,2.9,0,4.4,0
		c0.1,0,0.2,0,0.3-0.1c0.4-0.4,0.9-0.8,1.3-1.2c0.2-0.1,0.3-0.2,0.5-0.4c0,0,0,0,0,0c-0.1,0-0.1,0-0.2,0c-0.9,0-1.8,0-2.6,0
		c-0.2,0-0.5,0-0.7,0c-0.5,0-0.8-0.5-0.6-1c0.2-0.3,0.4-0.4,0.8-0.4c2.7,0,5.5,0,8.2,0c0.8,0,1.6,0.1,2.4,0.3c1.9,0.5,3.5,1.5,4.7,3
		c1,1.2,1.6,2.6,1.9,4.1C48.5,27.4,48.5,27.8,48.6,28.2z M39.5,23.1c-3.1,0-5.7,2.5-5.7,5.7c0,3.1,2.5,5.6,5.6,5.6
		c3.1,0,5.6-2.5,5.7-5.6C45.1,25.6,42.6,23.1,39.5,23.1z"/>
	<path class="st4" d="M39.5,23.1c3.1,0,5.7,2.6,5.6,5.7c0,3.1-2.6,5.6-5.7,5.6c-3.1,0-5.6-2.6-5.6-5.6
		C33.8,25.6,36.4,23.1,39.5,23.1z M43.2,26.8c-0.7-1.2-1.7-2-3.1-2.3c0,0.6,0,1.2,0,1.8c0,0,0.1,0.1,0.1,0.1
		c0.4,0.2,0.8,0.4,1.1,0.8c0,0,0.1,0.1,0.1,0.1C42.1,27.2,42.7,27,43.2,26.8z M42.5,31.7c1-1,1.4-2.2,1.2-3.6
		c-0.6,0.2-1.2,0.4-1.7,0.6c0,0-0.1,0.1-0.1,0.2c0,0.5-0.2,0.9-0.4,1.3c0,0,0,0.1,0,0.2C41.8,30.8,42.1,31.2,42.5,31.7z M35.3,28.1
		c-0.3,1.3,0.3,2.9,1.2,3.6c0.3-0.5,0.7-0.9,1-1.4c0,0,0-0.1,0-0.2c-0.3-0.4-0.4-0.8-0.4-1.3c0-0.1-0.1-0.1-0.1-0.2
		C36.4,28.5,35.8,28.3,35.3,28.1z M35.7,26.8c0.6,0.2,1.2,0.4,1.7,0.6c0,0,0.1,0,0.1-0.1c0.3-0.4,0.7-0.6,1.1-0.8
		c0.1,0,0.1-0.1,0.1-0.1c0-0.6,0-1.2,0-1.8C37.4,24.8,36.4,25.5,35.7,26.8z M41.4,32.6c-0.4-0.5-0.7-1-1.1-1.4c0,0-0.1-0.1-0.2,0
		c-0.4,0.1-0.9,0.1-1.3,0c-0.1,0-0.2,0-0.2,0.1c-0.3,0.4-0.6,0.9-0.9,1.3c0,0,0,0.1-0.1,0.1C38.8,33.2,40.1,33.2,41.4,32.6z
		 M38.4,28.7c0,0.6,0.5,1,1,1c0.6,0,1.1-0.5,1.1-1c0-0.6-0.5-1-1-1C38.9,27.7,38.4,28.2,38.4,28.7z"/>
	<g>
		<path d="M43.2,26.8c-0.6,0.2-1.2,0.4-1.7,0.6c0,0-0.1,0-0.1-0.1c-0.3-0.4-0.7-0.6-1.1-0.8c-0.1,0-0.1-0.1-0.1-0.1
			c0-0.6,0-1.2,0-1.8C41.5,24.8,42.6,25.5,43.2,26.8z"/>
		<path d="M42.5,31.7c-0.4-0.5-0.7-1-1.1-1.5c0,0,0-0.1,0-0.2c0.3-0.4,0.4-0.8,0.4-1.3c0-0.1,0-0.2,0.1-0.2c0.6-0.2,1.1-0.4,1.7-0.6
			C43.9,29.5,43.5,30.7,42.5,31.7z"/>
		<path d="M35.3,28.1c0.6,0.2,1.1,0.4,1.7,0.6c0,0,0.1,0.1,0.1,0.2c0,0.5,0.2,0.9,0.4,1.3c0,0,0,0.1,0,0.2c-0.3,0.5-0.7,0.9-1,1.4
			C35.6,31,35,29.4,35.3,28.1z"/>
		<path d="M35.7,26.8c0.7-1.2,1.7-2,3.1-2.3c0,0.6,0,1.2,0,1.8c0,0-0.1,0.1-0.1,0.1c-0.4,0.2-0.8,0.4-1.1,0.8c0,0-0.1,0.1-0.1,0.1
			C36.8,27.2,36.3,27,35.7,26.8z"/>
		<path d="M41.4,32.6c-1.3,0.6-2.5,0.6-3.8,0c0,0,0-0.1,0.1-0.1c0.3-0.4,0.6-0.9,0.9-1.3c0.1-0.1,0.1-0.1,0.2-0.1
			c0.4,0.1,0.9,0.1,1.3,0c0.1,0,0.2,0,0.2,0C40.7,31.6,41,32.1,41.4,32.6z"/>
		<path d="M38.4,28.7c0-0.6,0.5-1,1.1-1c0.6,0,1,0.5,1,1c0,0.6-0.5,1-1.1,1C38.9,29.8,38.4,29.3,38.4,28.7z"/>
	</g>
</g>
</svg>
