<?xml version="1.0" encoding="utf-8"?>
<!-- Generator: Adobe Illustrator 25.2.1, SVG Export Plug-In . SVG Version: 6.00 Build 0)  -->
<svg version="1.1" id="vehicle-stopped" xmlns="http://www.w3.org/2000/svg" xmlns:xlink="http://www.w3.org/1999/xlink" x="0px"
	 y="0px" viewBox="0 0 58 66.7" style="enable-background:new 0 0 58 66.7;" xml:space="preserve">
<style type="text/css">
	.st0{fill-rule:evenodd;clip-rule:evenodd;fill:#FFFFFF;}
	.st1{fill-rule:evenodd;clip-rule:evenodd;fill:#FFC400;}
	.st2{fill:#55595E;}
	.st3{fill:#90959C;}
	.st4{fill:#FFFFFF;}
	.st5{fill:#75011D;}
	.st6{fill:#FF5252;stroke:#75011D;stroke-width:1.837;}
</style>
<g id="Pin">
	<path id="Contour" class="st0" d="M37.4,56.8C49.3,53.1,58,42.1,58,29C58,13,45,0,29,0S0,13,0,29c0,13.1,8.7,24.1,20.6,27.8
		l6.8,9.1c0.7,0.9,1.9,1.1,2.8,0.4c0.2-0.1,0.3-0.2,0.4-0.4L37.4,56.8z"/>
	<path id="BG" class="st1" d="M29,55c14.4,0,26-11.6,26-26S43.4,3,29,3S3,14.6,3,29S14.6,55,29,55z"/>
</g>
<g id="Road">
	<g id="Route">
		<path class="st2" d="M35,43.4H23c-2.2,0-4-1.8-4-4v-22c0-2.2,1.8-4,4-4h12c2.2,0,4,1.8,4,4v22C39,41.6,37.2,43.4,35,43.4z"/>
	</g>
	<path id="Asphalte_2_" class="st3" d="M35,41.4H23c-1.1,0-2-0.9-2-2v-22c0-1.1,0.9-2,2-2h12c1.1,0,2,0.9,2,2v22
		C37,40.5,36.1,41.4,35,41.4z"/>
	<g id="Paint">
		<path class="st4" d="M29,38.1c-0.6,0-1.1,0.5-1.1,1.1v2.2h2.2v-2.2C30.1,38.6,29.6,38.1,29,38.1z"/>
		<path class="st4" d="M27.9,15.4v4.9c0,0.6,0.5,1.1,1.1,1.1s1.1-0.5,1.1-1.1v-4.9H27.9z"/>
	</g>
</g>
<g id="Car">
	<path id="Wheels" class="st5" d="M42.9,33.3h2.7v3.7c0,0.7-0.6,1.3-1.4,1.3c-0.7,0-1.3-0.6-1.3-1.3V33.3z M30.1,33.3h2.7v3.7
		c0,0.7-0.6,1.3-1.4,1.3c-0.7,0-1.3-0.6-1.3-1.3V33.3z"/>
	<path class="st6" d="M41,19.3c-2-0.3-4.1-0.3-6.1,0c-1.9,0.3-3.4,1.7-3.9,3.6l-0.8,3.6c-0.1,0.4-0.3,0.7-0.5,1
		c-0.5,0.7-0.8,1.6-0.8,2.4v1c0,2.2,1.8,4,4,4H43c2.2,0,4-1.8,4-4v-1c0-1.1-0.5-2.2-1.2-2.9l-1-4.1C44.4,21.1,42.8,19.6,41,19.3
		L41,19.3z"/>
	<g id="Lights">
		<path id="Light_1_" class="st4" d="M33.2,29L33.2,29c0.9,0,1.7,0.8,1.7,1.7l0,0c0,0.9-0.8,1.7-1.7,1.7l0,0c-0.9,0-1.7-0.8-1.7-1.7
			l0,0C31.5,29.7,32.2,29,33.2,29z"/>
		<path id="Light" class="st4" d="M42.6,29L42.6,29c0.9,0,1.7,0.8,1.7,1.7l0,0c0,0.9-0.8,1.7-1.7,1.7l0,0c-0.9,0-1.7-0.8-1.7-1.7
			l0,0C40.9,29.7,41.7,29,42.6,29z"/>
	</g>
	<path class="st5" d="M32.8,23.7l-0.2,0.8c-0.2,0.7,0.2,1.5,1,1.7c0.1,0,0.2,0,0.4,0h7.9c0.8,0,1.4-0.6,1.4-1.4c0-0.1,0-0.2,0-0.4
		l-0.2-0.8c-0.2-0.9-1-1.6-1.9-1.7c-2.1-0.3-4.2-0.3-6.2,0C33.8,22.1,33.1,22.8,32.8,23.7L32.8,23.7z"/>
</g>
</svg>
