<?xml version="1.0" encoding="utf-8"?>
<!-- Generator: Adobe Illustrator 25.2.1, SVG Export Plug-In . SVG Version: 6.00 Build 0)  -->
<svg version="1.1" id="Weather" xmlns="http://www.w3.org/2000/svg" xmlns:xlink="http://www.w3.org/1999/xlink" x="0px" y="0px"
	 viewBox="0 0 58 66.7" style="enable-background:new 0 0 58 66.7;" xml:space="preserve">
<style type="text/css">
	.st0{fill-rule:evenodd;clip-rule:evenodd;fill:#FFFFFF;}
	.st1{fill-rule:evenodd;clip-rule:evenodd;fill:#0CB0FF;}
	.st2{fill-rule:evenodd;clip-rule:evenodd;fill:#FDD632;stroke:#A84600;stroke-width:2;}
	.st3{fill-rule:evenodd;clip-rule:evenodd;fill:#8A3700;}
	.st4{fill:#F0EBE2;stroke:#C2C1B6;stroke-width:2;}
	.st5{display:none;fill:#FFFFFF;}
</style>
<g id="Pin">
	<path class="st0" d="M37.4,56.8C49.3,53.1,58,42.1,58,29C58,13,45,0,29,0S0,13,0,29c0,13.1,8.7,24.1,20.6,27.8l6.8,9.1
		c0.7,0.9,1.9,1.1,2.8,0.4c0.2-0.1,0.3-0.2,0.4-0.4L37.4,56.8z"/>
	<path class="st1" d="M29,55c14.4,0,26-11.6,26-26S43.4,3,29,3S3,14.6,3,29S14.6,55,29,55z"/>
</g>
<g id="Panneau">
	<path class="st2" d="M26.7,30.6c1-1.7,3.4-1.7,4.4,0l6.4,10.6c1,1.7-0.2,3.9-2.2,3.9H22.5c-2,0-3.3-2.2-2.2-3.9L26.7,30.6z"/>
	<path class="st3" d="M29.3,33.9c0.4,0,0.7,0.4,0.6,0.8l-0.6,3.7c0,0.2-0.2,0.3-0.4,0.3h-0.1c-0.2,0-0.3-0.1-0.4-0.3L28,34.7
		c-0.1-0.4,0.2-0.7,0.5-0.7c0,0,0.1,0,0.1,0H29.3z M30,40.8L30,40.8c0,0.6-0.5,1.1-1.1,1.1c-0.6,0-1.1-0.5-1.1-1.1v0
		c0-0.6,0.5-1.1,1.1-1.1C29.6,39.7,30,40.2,30,40.8z"/>
</g>
<g id="Cloud">
	<path class="st4" d="M46.9,26.3c-0.4-2.8-3.2-4.9-6.1-4.5c-0.2,0-0.4,0.1-0.6,0.1c-0.1-2.4-1.1-4.2-3.1-5.4c-2-1.2-4.1-1.3-6.2-0.3
		c-1.8-2.6-4.3-4-7.4-3.4c-3.7,0.7-5.6,3.1-6.2,6.7c-0.1,0-0.1,0-0.2,0c-2.7,0.2-4.9,2.1-5.7,4.6c-0.1,0.4-0.2,0.9-0.3,1.3
		c0,0.5,0,0.9,0,1.4c0,0.1,0.1,0.1,0.1,0.2c0.5,3.4,3.2,5.7,6.6,5.7c0.3,0,1.9,0,4.2,0l2.3-3.7c1-1.7,2.8-2.7,4.8-2.7c0,0,0,0,0,0
		c2,0,3.8,1,4.8,2.7l2.3,3.7c2.8,0,4.9,0,5.4,0c0.4,0,0.7,0,1.1-0.1C45.4,32.1,47.3,29.4,46.9,26.3z M24.6,17.2
		c-1.7,0.1-2.7,1.1-2.8,2.8c0,0.5-0.3,0.8-0.8,0.8c-0.5,0-0.7-0.4-0.7-0.9c0.1-2.3,2-4.2,4.3-4.2c0.4,0,0.8,0.3,0.8,0.7
		C25.3,16.8,25,17.1,24.6,17.2z"/>
	<path class="st5" d="M20.3,19.8c0.1-2.3,2-4.2,4.3-4.2c0.4,0,0.8,0.3,0.8,0.7c0,0.4-0.3,0.7-0.8,0.8c-1.7,0.1-2.7,1.1-2.8,2.8
		c0,0.5-0.3,0.8-0.8,0.8C20.5,20.7,20.3,20.4,20.3,19.8z"/>
</g>
</svg>
